SplineFontDB: 3.2
FontName: Reijima-ThinItalic
FullName: Reijima Thin Italic
FamilyName: Reijima Thin
Weight: Thin
Copyright: Copyright (c) 2019 by Coji Morishita. All rights reserved.
Version: 1.000
ItalicAngle: -9
UnderlinePosition: -100
UnderlineWidth: 50
Ascent: 860
Descent: 140
InvalidEm: 0
sfntRevision: 0x00010000
LayerCount: 2
Layer: 0 1 "Back" 1
Layer: 1 1 "Fore" 0
XUID: [1021 531 -1996577725 13722277]
StyleMap: 0x0001
FSType: 8
OS2Version: 4
OS2_WeightWidthSlopeOnly: 0
OS2_UseTypoMetrics: 1
CreationTime: 1575364793
ModificationTime: 1707313436
PfmFamily: 81
TTFWeight: 100
TTFWidth: 5
LineGap: 0
VLineGap: 1000
Panose: 0 0 2 0 0 0 0 0 0 0
OS2TypoAscent: 960
OS2TypoAOffset: 0
OS2TypoDescent: -230
OS2TypoDOffset: 0
OS2TypoLinegap: 200
OS2WinAscent: 1060
OS2WinAOffset: 0
OS2WinDescent: 330
OS2WinDOffset: 0
HheadAscent: 1060
HheadAOffset: 0
HheadDescent: -330
HheadDOffset: 0
OS2SubXSize: 650
OS2SubYSize: 600
OS2SubXOff: 0
OS2SubYOff: 75
OS2SupXSize: 650
OS2SupYSize: 600
OS2SupXOff: 0
OS2SupYOff: 350
OS2StrikeYSize: 50
OS2StrikeYPos: 312
OS2CapHeight: 730
OS2XHeight: 520
OS2Vendor: 'M+  '
OS2CodePages: 0000019f.00000000
OS2UnicodeRanges: a00002ff.0000004b.00000000.00000000
Lookup: 1 0 0 "'aalt' Access All Alternates in Latin lookup 0" { "'aalt' Access All Alternates in Latin lookup 0 subtable"  } ['aalt' ('DFLT' <'dflt' > 'latn' <'AZE ' 'CAT ' 'CRT ' 'KAZ ' 'MOL ' 'ROM ' 'TAT ' 'TRK ' 'dflt' > ) ]
Lookup: 3 0 0 "'aalt' Access All Alternates in Latin lookup 1" { "'aalt' Access All Alternates in Latin lookup 1 subtable"  } ['aalt' ('DFLT' <'dflt' > 'latn' <'AZE ' 'CAT ' 'CRT ' 'KAZ ' 'MOL ' 'ROM ' 'TAT ' 'TRK ' 'dflt' > ) ]
Lookup: 6 0 0 "'ccmp' Glyph Composition/Decomposition in Latin lookup 2" { "'ccmp' Glyph Composition/Decomposition in Latin lookup 2 contextual 0"  "'ccmp' Glyph Composition/Decomposition in Latin lookup 2 contextual 1"  } ['ccmp' ('DFLT' <'dflt' > 'latn' <'AZE ' 'CAT ' 'CRT ' 'KAZ ' 'MOL ' 'ROM ' 'TAT ' 'TRK ' 'dflt' > ) ]

StartChar: .notdef
Encoding: 1114112 -1 0
Width: 477
Flags: W
LayerCount: 2
Fore
SplineSet
328 -140 m 1,0,-1
 17 -140 l 1,1,-1
 176 860 l 1,2,-1
 487 860 l 1,3,-1
 328 -140 l 1,0,-1
239 793 m 1,4,-1
 234 760 l 1,5,-1
 297 760 l 1,6,-1
 291 723 l 1,7,-1
 227 723 l 1,8,-1
 221 690 l 1,9,-1
 384 690 l 1,10,-1
 389 723 l 1,11,-1
 325 723 l 1,12,-1
 331 760 l 1,13,-1
 395 760 l 1,14,-1
 400 793 l 1,15,-1
 239 793 l 1,4,-1
217 664 m 1,16,-1
 201 560 l 1,17,-1
 364 560 l 1,18,-1
 369 594 l 1,19,-1
 304 594 l 1,20,-1
 315 664 l 1,21,-1
 217 664 l 1,16,-1
271 594 m 1,22,-1
 239 594 l 1,23,-1
 244 630 l 1,24,-1
 277 630 l 1,25,-1
 271 594 l 1,22,-1
197 533 m 1,26,-1
 191 500 l 1,27,-1
 256 500 l 1,28,-1
 250 463 l 1,29,-1
 185 463 l 1,30,-1
 180 430 l 1,31,-1
 278 430 l 1,32,-1
 289 500 l 1,33,-1
 354 500 l 1,34,-1
 359 533 l 1,35,-1
 197 533 l 1,26,-1
317 473 m 1,36,-1
 307 407 l 1,37,-1
 177 407 l 1,38,-1
 171 373 l 1,39,-1
 334 373 l 1,40,-1
 350 473 l 1,41,-1
 317 473 l 1,36,-1
232 351 m 1,42,-1
 224 295 l 1,43,-1
 257 295 l 1,44,-1
 261 318 l 1,45,-1
 293 318 l 1,46,-1
 285 271 l 1,47,-1
 187 271 l 1,48,-1
 200 351 l 1,49,-1
 168 351 l 1,50,-1
 150 238 l 1,51,-1
 313 238 l 1,52,-1
 330 351 l 1,53,-1
 232 351 l 1,42,-1
140 178 m 1,54,-1
 122 65 l 1,55,-1
 285 65 l 1,56,-1
 303 178 l 1,57,-1
 140 178 l 1,54,-1
258 98 m 1,58,-1
 160 98 l 1,59,-1
 167 145 l 1,60,-1
 265 145 l 1,61,-1
 258 98 l 1,58,-1
119 42 m 1,62,-1
 114 9 l 1,63,-1
 182 9 l 1,64,-1
 106 -38 l 1,65,-1
 101 -71 l 1,66,-1
 264 -71 l 1,67,-1
 269 -38 l 1,68,-1
 169 -38 l 1,69,-1
 245 9 l 1,70,-1
 276 9 l 1,71,-1
 281 42 l 1,72,-1
 119 42 l 1,62,-1
EndSplineSet
EndChar

StartChar: A
Encoding: 65 65 2
Width: 632
GlyphClass: 2
Flags: W
AnchorPoint: "Anchor-6" 279 730 basechar 0
AnchorPoint: "Anchor-5" 584 0 basechar 0
AnchorPoint: "Anchor-4" 279 0 basechar 0
LayerCount: 2
Fore
SplineSet
549 0 m 1,0,-1
 494 237 l 1,1,-1
 124 237 l 1,2,-1
 -6 0 l 1,3,-1
 -28 0 l 1,4,-1
 372 730 l 1,5,-1
 402 730 l 1,6,-1
 570 0 l 1,7,-1
 549 0 l 1,0,-1
135 257 m 1,8,-1
 489 257 l 1,9,-1
 385 711 l 1,10,-1
 383 711 l 1,11,-1
 135 257 l 1,8,-1
EndSplineSet
Substitution2: "Single Substitution lookup 21 subtable" ordfeminine
Substitution2: "'aalt' Access All Alternates in Latin lookup 0 subtable" ordfeminine
EndChar

StartChar: Aogonek
Encoding: 260 260 23
Width: 638
GlyphClass: 2
Flags: W
AnchorPoint: "Anchor-6" 279 730 basechar 0
AnchorPoint: "Anchor-5" 584 0 basechar 0
AnchorPoint: "Anchor-4" 279 0 basechar 0
LayerCount: 2
Fore
SplineSet
624 -199 m 1,0,1
 577 -220 577 -220 522 -220 c 0,2,3
 449 -220 449 -220 426.5 -194 c 128,-1,4
 404 -168 404 -168 410 -135 c 0,5,6
 416 -97 416 -97 451.5 -60 c 128,-1,7
 487 -23 487 -23 547 8 c 1,8,-1
 494 237 l 1,9,-1
 124 237 l 1,10,-1
 -6 0 l 1,11,-1
 -28 0 l 1,12,-1
 372 730 l 1,13,-1
 402 730 l 1,14,-1
 570 0 l 1,15,16
 507 -32 507 -32 471 -66.5 c 128,-1,17
 435 -101 435 -101 429 -135 c 0,18,19
 423 -172 423 -172 452 -186 c 128,-1,20
 481 -200 481 -200 525 -200 c 0,21,22
 576 -200 576 -200 619 -181 c 1,23,-1
 624 -199 l 1,0,1
135 257 m 1,24,-1
 489 257 l 1,25,-1
 385 711 l 1,26,-1
 383 711 l 1,27,-1
 135 257 l 1,24,-1
EndSplineSet
EndChar

StartChar: Aring
Encoding: 197 197 24
Width: 632
GlyphClass: 2
Flags: W
AnchorPoint: "Anchor-6" 279 905 basechar 0
AnchorPoint: "Anchor-5" 584 0 basechar 0
AnchorPoint: "Anchor-4" 279 0 basechar 0
LayerCount: 2
Fore
SplineSet
494 237 m 1,0,-1
 124 237 l 1,1,-1
 -6 0 l 1,2,-1
 -28 0 l 1,3,-1
 368 721 l 1,4,5
 324 728 324 728 299.5 763 c 128,-1,6
 275 798 275 798 283 845 c 0,7,8
 291 897 291 897 332.5 933.5 c 128,-1,9
 374 970 374 970 425 970 c 256,10,11
 476 970 476 970 506 933.5 c 128,-1,12
 536 897 536 897 528 845 c 0,13,14
 521 798 521 798 485 763 c 128,-1,15
 449 728 449 728 403 721 c 1,16,-1
 570 0 l 1,17,-1
 549 0 l 1,18,-1
 494 237 l 1,0,-1
320.5 771 m 128,-1,20
 346 740 346 740 388 740 c 0,21,22
 431 740 431 740 466 771 c 128,-1,23
 501 802 501 802 508 845 c 0,24,25
 515 889 515 889 490 919.5 c 128,-1,26
 465 950 465 950 422 950 c 0,27,28
 380 950 380 950 344.5 919.5 c 128,-1,29
 309 889 309 889 302 845 c 0,30,19
 295 802 295 802 320.5 771 c 128,-1,20
135 257 m 1,31,-1
 489 257 l 1,32,-1
 385 711 l 1,33,-1
 383 711 l 1,34,-1
 135 257 l 1,31,-1
EndSplineSet
EndChar

StartChar: Aringacute
Encoding: 506 506 25
Width: 632
GlyphClass: 2
Flags: W
AnchorPoint: "Anchor-6" 279 905 basechar 0
AnchorPoint: "Anchor-5" 584 0 basechar 0
AnchorPoint: "Anchor-4" 279 0 basechar 0
LayerCount: 2
Fore
SplineSet
494 237 m 1,0,-1
 124 237 l 1,1,-1
 -6 0 l 1,2,-1
 -28 0 l 1,3,-1
 368 721 l 1,4,5
 324 728 324 728 299.5 763 c 128,-1,6
 275 798 275 798 283 845 c 0,7,8
 288 877 288 877 307 904 c 128,-1,9
 326 931 326 931 353 949 c 1,10,-1
 502 1155 l 1,11,-1
 525 1155 l 1,12,-1
 387 964 l 1,13,14
 406 970 406 970 425 970 c 0,15,16
 476 970 476 970 506 933.5 c 128,-1,17
 536 897 536 897 528 845 c 0,18,19
 521 798 521 798 485 763 c 128,-1,20
 449 728 449 728 403 721 c 1,21,-1
 570 0 l 1,22,-1
 549 0 l 1,23,-1
 494 237 l 1,0,-1
320.5 771 m 128,-1,25
 346 740 346 740 388 740 c 0,26,27
 431 740 431 740 466 771 c 128,-1,28
 501 802 501 802 508 845 c 0,29,30
 515 889 515 889 490 919.5 c 128,-1,31
 465 950 465 950 422 950 c 0,32,33
 380 950 380 950 344.5 919.5 c 128,-1,34
 309 889 309 889 302 845 c 0,35,24
 295 802 295 802 320.5 771 c 128,-1,25
135 257 m 1,36,-1
 489 257 l 1,37,-1
 385 711 l 1,38,-1
 383 711 l 1,39,-1
 135 257 l 1,36,-1
EndSplineSet
EndChar

StartChar: AE
Encoding: 198 198 27
Width: 781
GlyphClass: 2
Flags: W
AnchorPoint: "Anchor-6" 395 730 basechar 0
AnchorPoint: "Anchor-4" 395 0 basechar 0
LayerCount: 2
Fore
SplineSet
784 710 m 1,0,-1
 490 710 l 1,1,-1
 441 400 l 1,2,-1
 716 400 l 1,3,-1
 713 380 l 1,4,-1
 438 380 l 1,5,-1
 381 20 l 1,6,-1
 675 20 l 1,7,-1
 672 0 l 1,8,-1
 358 0 l 1,9,-1
 396 237 l 1,10,-1
 147 237 l 1,11,-1
 -5 0 l 1,12,-1
 -28 0 l 1,13,-1
 443 730 l 1,14,-1
 788 730 l 1,15,-1
 784 710 l 1,0,-1
160 257 m 1,16,-1
 399 257 l 1,17,-1
 471 710 l 1,18,-1
 451 710 l 1,19,-1
 160 257 l 1,16,-1
EndSplineSet
EndChar

StartChar: B
Encoding: 66 66 29
Width: 591
Flags: W
LayerCount: 2
Fore
SplineSet
519.5 327.5 m 128,-1,1
 556 281 556 281 544 200 c 0,2,3
 528 97 528 97 448 48.5 c 128,-1,4
 368 0 368 0 218 0 c 2,5,-1
 41 0 l 1,6,-1
 157 730 l 1,7,-1
 333 730 l 2,8,9
 588 730 588 730 561 555 c 0,10,11
 540 425 540 425 394 392 c 1,12,-1
 393 390 l 1,13,0
 483 374 483 374 519.5 327.5 c 128,-1,1
174 710 m 1,14,-1
 124 400 l 1,15,-1
 281 400 l 2,16,17
 401 400 401 400 464.5 438 c 128,-1,18
 528 476 528 476 541 555 c 256,19,20
 554 634 554 634 502 672 c 128,-1,21
 450 710 450 710 330 710 c 2,22,-1
 174 710 l 1,14,-1
436 63.5 m 128,-1,24
 509 107 509 107 524 200 c 256,25,26
 539 293 539 293 479.5 336.5 c 128,-1,27
 420 380 420 380 278 380 c 2,28,-1
 121 380 l 1,29,-1
 64 20 l 1,30,-1
 221 20 l 2,31,23
 363 20 363 20 436 63.5 c 128,-1,24
EndSplineSet
EndChar

StartChar: C
Encoding: 67 67 30
Width: 663
GlyphClass: 2
Flags: W
AnchorPoint: "Anchor-6" 335 730 basechar 0
AnchorPoint: "Anchor-4" 335 0 basechar 0
LayerCount: 2
Fore
SplineSet
168.5 36.5 m 128,-1,1
 97 83 97 83 67.5 168 c 128,-1,2
 38 253 38 253 56 365 c 256,3,4
 74 477 74 477 130 562 c 128,-1,5
 186 647 186 647 272.5 693.5 c 128,-1,6
 359 740 359 740 464 740 c 0,7,8
 588 740 588 740 673 675 c 1,9,-1
 660 658 l 1,10,11
 580 720 580 720 461 720 c 0,12,13
 362 720 362 720 280.5 676.5 c 128,-1,14
 199 633 199 633 145.5 552.5 c 128,-1,15
 92 472 92 472 75 365 c 256,16,17
 58 258 58 258 85.5 177.5 c 128,-1,18
 113 97 113 97 180.5 53.5 c 128,-1,19
 248 10 248 10 348 10 c 0,20,21
 467 10 467 10 567 72 c 1,22,-1
 575 55 l 1,23,24
 470 -10 470 -10 345 -10 c 0,25,0
 240 -10 240 -10 168.5 36.5 c 128,-1,1
EndSplineSet
EndChar

StartChar: Ccedilla
Encoding: 199 199 33
Width: 663
GlyphClass: 2
Flags: W
AnchorPoint: "Anchor-6" 335 730 basechar 0
AnchorPoint: "Anchor-4" 335 0 basechar 0
LayerCount: 2
Fore
SplineSet
575 55 m 1,0,1
 470 -10 470 -10 347 -10 c 1,2,3
 425 -70 425 -70 414 -136 c 0,4,5
 409 -169 409 -169 378.5 -195 c 128,-1,6
 348 -221 348 -221 275 -221 c 0,7,8
 220 -221 220 -221 180 -200 c 1,9,-1
 190 -182 l 1,10,11
 227 -201 227 -201 279 -201 c 0,12,13
 323 -201 323 -201 356 -187 c 128,-1,14
 389 -173 389 -173 395 -136 c 0,15,16
 400 -104 400 -104 377.5 -71.5 c 128,-1,17
 355 -39 355 -39 308 -8 c 1,18,19
 215 0 215 0 152 48 c 128,-1,20
 89 96 89 96 64 178 c 128,-1,21
 39 260 39 260 56 365 c 0,22,23
 74 477 74 477 130 562 c 128,-1,24
 186 647 186 647 272.5 693.5 c 128,-1,25
 359 740 359 740 464 740 c 0,26,27
 588 740 588 740 673 675 c 1,28,-1
 660 658 l 1,29,30
 580 720 580 720 461 720 c 0,31,32
 362 720 362 720 280.5 676.5 c 128,-1,33
 199 633 199 633 145.5 552.5 c 128,-1,34
 92 472 92 472 75 365 c 256,35,36
 58 258 58 258 85.5 177.5 c 128,-1,37
 113 97 113 97 180.5 53.5 c 128,-1,38
 248 10 248 10 348 10 c 0,39,40
 467 10 467 10 567 72 c 1,41,-1
 575 55 l 1,0,1
EndSplineSet
EndChar

StartChar: D
Encoding: 68 68 36
Width: 648
GlyphClass: 2
Flags: W
AnchorPoint: "Anchor-6" 291 730 basechar 0
AnchorPoint: "Anchor-4" 291 0 basechar 0
LayerCount: 2
Fore
SplineSet
314 730 m 2,0,1
 492 730 492 730 569.5 637 c 128,-1,2
 647 544 647 544 619 365 c 256,3,4
 591 186 591 186 484 93 c 128,-1,5
 377 0 377 0 198 0 c 2,6,-1
 41 0 l 1,7,-1
 157 730 l 1,8,-1
 314 730 l 2,0,1
472 107 m 128,-1,10
 572 194 572 194 599 365 c 256,11,12
 626 536 626 536 553.5 623 c 128,-1,13
 481 710 481 710 311 710 c 2,14,-1
 174 710 l 1,15,-1
 64 20 l 1,16,-1
 201 20 l 2,17,9
 372 20 372 20 472 107 c 128,-1,10
EndSplineSet
EndChar

StartChar: Eth
Encoding: 208 208 38
Width: 698
GlyphClass: 2
Flags: W
CounterMasks: 1 e0
AnchorPoint: "Anchor-6" 337 730 basechar 0
AnchorPoint: "Anchor-4" 337 0 basechar 0
LayerCount: 2
Fore
SplineSet
619.5 637 m 128,-1,1
 697 544 697 544 668 365 c 256,2,3
 640 186 640 186 533 93 c 128,-1,4
 426 0 426 0 248 0 c 2,5,-1
 91 0 l 1,6,-1
 147 355 l 1,7,-1
 39 355 l 1,8,-1
 43 375 l 1,9,-1
 150 375 l 1,10,-1
 207 730 l 1,11,-1
 363 730 l 2,12,0
 542 730 542 730 619.5 637 c 128,-1,1
521.5 107 m 128,-1,14
 622 194 622 194 649 365 c 256,15,16
 676 536 676 536 603.5 623 c 128,-1,17
 531 710 531 710 360 710 c 2,18,-1
 223 710 l 1,19,-1
 170 375 l 1,20,-1
 444 375 l 1,21,-1
 441 355 l 1,22,-1
 167 355 l 1,23,-1
 114 20 l 1,24,-1
 251 20 l 2,25,13
 421 20 421 20 521.5 107 c 128,-1,14
EndSplineSet
EndChar

StartChar: E
Encoding: 69 69 42
Width: 562
GlyphClass: 2
Flags: W
AnchorPoint: "Anchor-6" 265 730 basechar 0
AnchorPoint: "Anchor-5" 470 0 basechar 0
AnchorPoint: "Anchor-4" 265 0 basechar 0
LayerCount: 2
Fore
SplineSet
157 730 m 1,0,-1
 569 730 l 1,1,-1
 566 710 l 1,2,-1
 174 710 l 1,3,-1
 124 400 l 1,4,-1
 497 400 l 1,5,-1
 494 380 l 1,6,-1
 121 380 l 1,7,-1
 64 20 l 1,8,-1
 456 20 l 1,9,-1
 453 0 l 1,10,-1
 41 0 l 1,11,-1
 157 730 l 1,0,-1
EndSplineSet
EndChar

StartChar: Eogonek
Encoding: 280 280 60
Width: 568
GlyphClass: 2
Flags: W
AnchorPoint: "Anchor-6" 265 730 basechar 0
AnchorPoint: "Anchor-5" 470 0 basechar 0
AnchorPoint: "Anchor-4" 265 0 basechar 0
LayerCount: 2
Fore
SplineSet
507 -199 m 1,0,1
 460 -220 460 -220 404 -220 c 0,2,3
 331 -220 331 -220 309 -194 c 128,-1,4
 287 -168 287 -168 293 -135 c 0,5,6
 299 -100 299 -100 330 -65 c 128,-1,7
 361 -30 361 -30 415 0 c 1,8,-1
 41 0 l 1,9,-1
 157 730 l 1,10,-1
 569 730 l 1,11,-1
 566 710 l 1,12,-1
 174 710 l 1,13,-1
 124 400 l 1,14,-1
 497 400 l 1,15,-1
 494 380 l 1,16,-1
 121 380 l 1,17,-1
 64 20 l 1,18,-1
 456 20 l 1,19,-1
 453 0 l 1,20,21
 390 -32 390 -32 353.5 -66.5 c 128,-1,22
 317 -101 317 -101 312 -135 c 0,23,24
 306 -172 306 -172 335 -186 c 128,-1,25
 364 -200 364 -200 408 -200 c 0,26,27
 459 -200 459 -200 502 -181 c 1,28,-1
 507 -199 l 1,0,1
EndSplineSet
EndChar

StartChar: F
Encoding: 70 70 62
Width: 545
Flags: W
LayerCount: 2
Fore
SplineSet
157 730 m 1,0,-1
 569 730 l 1,1,-1
 566 710 l 1,2,-1
 174 710 l 1,3,-1
 124 400 l 1,4,-1
 497 400 l 1,5,-1
 494 380 l 1,6,-1
 121 380 l 1,7,-1
 61 0 l 1,8,-1
 41 0 l 1,9,-1
 157 730 l 1,0,-1
EndSplineSet
EndChar

StartChar: G
Encoding: 71 71 63
Width: 753
GlyphClass: 2
Flags: W
AnchorPoint: "Anchor-6" 365 730 basechar 0
AnchorPoint: "Anchor-4" 365 0 basechar 0
LayerCount: 2
Fore
SplineSet
698 400 m 1,0,-1
 642 44 l 1,1,2
 587 19 587 19 513.5 4.5 c 128,-1,3
 440 -10 440 -10 373 -10 c 0,4,5
 256 -10 256 -10 178.5 35 c 128,-1,6
 101 80 101 80 69 164.5 c 128,-1,7
 37 249 37 249 56 365 c 256,8,9
 74 481 74 481 132.5 565.5 c 128,-1,10
 191 650 191 650 283 695 c 128,-1,11
 375 740 375 740 491 740 c 0,12,13
 625 740 625 740 716 680 c 1,14,-1
 704 663 l 1,15,16
 617 720 617 720 488 720 c 0,17,18
 377 720 377 720 290 678 c 128,-1,19
 203 636 203 636 148 556 c 128,-1,20
 93 476 93 476 75 365 c 256,21,22
 57 254 57 254 87.5 174 c 128,-1,23
 118 94 118 94 191.5 52 c 128,-1,24
 265 10 265 10 376 10 c 0,25,26
 438 10 438 10 505 22.5 c 128,-1,27
 572 35 572 35 624 57 c 1,28,-1
 675 380 l 1,29,-1
 361 380 l 1,30,-1
 364 400 l 1,31,-1
 698 400 l 1,0,-1
EndSplineSet
EndChar

StartChar: H
Encoding: 72 72 69
Width: 672
GlyphClass: 2
Flags: W
AnchorPoint: "Anchor-6" 305 730 basechar 0
AnchorPoint: "Anchor-4" 305 0 basechar 0
LayerCount: 2
Fore
SplineSet
637 730 m 1,0,-1
 657 730 l 1,1,-1
 541 0 l 1,2,-1
 522 0 l 1,3,-1
 582 380 l 1,4,-1
 121 380 l 1,5,-1
 61 0 l 1,6,-1
 41 0 l 1,7,-1
 157 730 l 1,8,-1
 177 730 l 1,9,-1
 124 400 l 1,10,-1
 585 400 l 1,11,-1
 637 730 l 1,0,-1
EndSplineSet
EndChar

StartChar: Hbar
Encoding: 294 294 70
Width: 740
GlyphClass: 2
Flags: W
AnchorPoint: "Anchor-6" 335 730 basechar 0
AnchorPoint: "Anchor-4" 335 0 basechar 0
LayerCount: 2
Fore
SplineSet
764 606 m 1,0,-1
 761 586 l 1,1,-1
 668 586 l 1,2,-1
 575 0 l 1,3,-1
 556 0 l 1,4,-1
 616 380 l 1,5,-1
 155 380 l 1,6,-1
 95 0 l 1,7,-1
 75 0 l 1,8,-1
 168 586 l 1,9,-1
 75 586 l 1,10,-1
 78 606 l 1,11,-1
 171 606 l 1,12,-1
 191 730 l 1,13,-1
 211 730 l 1,14,-1
 191 606 l 1,15,-1
 652 606 l 1,16,-1
 671 730 l 1,17,-1
 691 730 l 1,18,-1
 671 606 l 1,19,-1
 764 606 l 1,0,-1
619 400 m 1,20,-1
 648 586 l 1,21,-1
 188 586 l 1,22,-1
 158 400 l 1,23,-1
 619 400 l 1,20,-1
EndSplineSet
EndChar

StartChar: I
Encoding: 73 73 72
Width: 210
GlyphClass: 2
Flags: W
AnchorPoint: "Anchor-6" 70 730 basechar 0
AnchorPoint: "Anchor-5" 80 0 basechar 0
AnchorPoint: "Anchor-4" 70 0 basechar 0
LayerCount: 2
Fore
SplineSet
166 730 m 1,0,-1
 186 730 l 1,1,-1
 70 0 l 1,2,-1
 51 0 l 1,3,-1
 166 730 l 1,0,-1
EndSplineSet
EndChar

StartChar: Iogonek
Encoding: 302 302 84
Width: 225
GlyphClass: 2
Flags: W
AnchorPoint: "Anchor-6" 70 730 basechar 0
AnchorPoint: "Anchor-5" 80 0 basechar 0
AnchorPoint: "Anchor-4" 70 0 basechar 0
LayerCount: 2
Fore
SplineSet
132 -199 m 1,0,1
 85 -220 85 -220 30 -220 c 0,2,3
 -43 -220 -43 -220 -65 -194 c 128,-1,4
 -87 -168 -87 -168 -82 -135 c 0,5,6
 -76 -96 -76 -96 -38.5 -58.5 c 128,-1,7
 -1 -21 -1 -21 61 11 c 1,8,-1
 175 730 l 1,9,-1
 194 730 l 1,10,-1
 79 0 l 1,11,12
 16 -32 16 -32 -20.5 -66.5 c 128,-1,13
 -57 -101 -57 -101 -62 -135 c 0,14,15
 -68 -172 -68 -172 -39.5 -186 c 128,-1,16
 -11 -200 -11 -200 33 -200 c 0,17,18
 84 -200 84 -200 127 -181 c 1,19,-1
 132 -199 l 1,0,1
EndSplineSet
EndChar

StartChar: J
Encoding: 74 74 86
Width: 531
GlyphClass: 2
Flags: W
AnchorPoint: "Anchor-6" 230 730 basechar 0
AnchorPoint: "Anchor-4" 230 0 basechar 0
LayerCount: 2
Fore
SplineSet
61.5 6 m 128,-1,1
 10 22 10 22 -24 50 c 1,2,-1
 -10 66 l 1,3,4
 23 40 23 40 71.5 25 c 128,-1,5
 120 10 120 10 174 10 c 0,6,7
 285 10 285 10 348.5 76 c 128,-1,8
 412 142 412 142 433 280 c 2,9,-1
 505 730 l 1,10,-1
 524 730 l 1,11,-1
 453 280 l 2,12,13
 430 134 430 134 360.5 62 c 128,-1,14
 291 -10 291 -10 171 -10 c 0,15,0
 113 -10 113 -10 61.5 6 c 128,-1,1
EndSplineSet
EndChar

StartChar: K
Encoding: 75 75 88
Width: 583
GlyphClass: 2
Flags: W
AnchorPoint: "Anchor-6" 235 730 basechar 0
AnchorPoint: "Anchor-4" 235 0 basechar 0
LayerCount: 2
Fore
SplineSet
157 730 m 1,0,-1
 177 730 l 1,1,-1
 125 404 l 1,2,-1
 127 404 l 1,3,-1
 585 730 l 1,4,-1
 618 730 l 1,5,-1
 138 390 l 1,6,-1
 512 0 l 1,7,-1
 482 0 l 1,8,-1
 123 376 l 1,9,-1
 121 376 l 1,10,-1
 61 0 l 1,11,-1
 41 0 l 1,12,-1
 157 730 l 1,0,-1
EndSplineSet
EndChar

StartChar: L
Encoding: 76 76 90
Width: 561
GlyphClass: 2
Flags: W
AnchorPoint: "Anchor-7" 518 730 basechar 0
AnchorPoint: "Anchor-6" 247 730 basechar 0
AnchorPoint: "Anchor-4" 247 0 basechar 0
LayerCount: 2
Fore
SplineSet
157 730 m 1,0,-1
 177 730 l 1,1,-1
 64 20 l 1,2,-1
 476 20 l 1,3,-1
 473 0 l 1,4,-1
 41 0 l 1,5,-1
 157 730 l 1,0,-1
EndSplineSet
EndChar

StartChar: Lslash
Encoding: 321 321 97
Width: 647
GlyphClass: 2
Flags: W
AnchorPoint: "Anchor-7" 600 730 basechar 0
AnchorPoint: "Anchor-6" 329 730 basechar 0
AnchorPoint: "Anchor-4" 329 0 basechar 0
LayerCount: 2
Fore
SplineSet
150 20 m 1,0,-1
 562 20 l 1,1,-1
 558 0 l 1,2,-1
 127 0 l 1,3,-1
 183 350 l 1,4,-1
 24 281 l 1,5,-1
 19 299 l 1,6,-1
 186 371 l 1,7,-1
 243 730 l 1,8,-1
 262 730 l 1,9,-1
 207 380 l 1,10,-1
 366 449 l 1,11,-1
 371 431 l 1,12,-1
 204 359 l 1,13,-1
 150 20 l 1,0,-1
EndSplineSet
EndChar

StartChar: M
Encoding: 77 77 98
Width: 819
Flags: W
LayerCount: 2
Fore
SplineSet
157 730 m 1,0,-1
 187 730 l 1,1,-1
 391 174 l 1,2,-1
 393 174 l 1,3,-1
 773 730 l 1,4,-1
 804 730 l 1,5,-1
 688 0 l 1,6,-1
 669 0 l 1,7,-1
 781 709 l 1,8,-1
 779 709 l 1,9,-1
 401 155 l 1,10,-1
 378 155 l 1,11,-1
 175 709 l 1,12,-1
 173 709 l 1,13,-1
 61 0 l 1,14,-1
 41 0 l 1,15,-1
 157 730 l 1,0,-1
EndSplineSet
EndChar

StartChar: N
Encoding: 78 78 99
Width: 682
GlyphClass: 2
Flags: W
AnchorPoint: "Anchor-6" 310 730 basechar 0
AnchorPoint: "Anchor-4" 310 0 basechar 0
LayerCount: 2
Fore
SplineSet
157 730 m 1,0,-1
 188 730 l 1,1,-1
 533 21 l 1,2,-1
 535 21 l 1,3,-1
 647 730 l 1,4,-1
 667 730 l 1,5,-1
 551 0 l 1,6,-1
 520 0 l 1,7,-1
 175 709 l 1,8,-1
 173 709 l 1,9,-1
 61 0 l 1,10,-1
 41 0 l 1,11,-1
 157 730 l 1,0,-1
EndSplineSet
EndChar

StartChar: Eng
Encoding: 330 330 104
Width: 682
GlyphClass: 2
Flags: W
AnchorPoint: "Anchor-6" 310 730 basechar 0
AnchorPoint: "Anchor-4" 310 0 basechar 0
LayerCount: 2
Fore
SplineSet
667 730 m 1,0,-1
 541 -61 l 2,1,2
 529 -138 529 -138 490.5 -174.5 c 128,-1,3
 452 -211 452 -211 380 -211 c 0,4,5
 341 -211 341 -211 304 -196 c 1,6,-1
 314 -177 l 1,7,8
 345 -191 345 -191 384 -191 c 0,9,10
 447 -191 447 -191 479 -160.5 c 128,-1,11
 511 -130 511 -130 522 -61 c 2,12,-1
 529 -18 l 1,13,-1
 175 709 l 1,14,-1
 173 709 l 1,15,-1
 61 0 l 1,16,-1
 41 0 l 1,17,-1
 157 730 l 1,18,-1
 188 730 l 1,19,-1
 533 21 l 1,20,-1
 535 21 l 1,21,-1
 647 730 l 1,22,-1
 667 730 l 1,0,-1
EndSplineSet
EndChar

StartChar: O
Encoding: 79 79 107
Width: 771
GlyphClass: 2
Flags: W
AnchorPoint: "Anchor-7" 539 690 basechar 0
AnchorPoint: "Anchor-6" 352 730 basechar 0
AnchorPoint: "Anchor-5" 401 0 basechar 0
AnchorPoint: "Anchor-4" 352 0 basechar 0
LayerCount: 2
Fore
SplineSet
167.5 37 m 128,-1,1
 97 84 97 84 67.5 169.5 c 128,-1,2
 38 255 38 255 56 365 c 256,3,4
 73 475 73 475 129.5 560.5 c 128,-1,5
 186 646 186 646 271.5 693 c 128,-1,6
 357 740 357 740 458 740 c 256,7,8
 559 740 559 740 629.5 693 c 128,-1,9
 700 646 700 646 729.5 560.5 c 128,-1,10
 759 475 759 475 742 365 c 256,11,12
 725 255 725 255 668 169.5 c 128,-1,13
 611 84 611 84 525.5 37 c 128,-1,14
 440 -10 440 -10 339 -10 c 256,15,0
 238 -10 238 -10 167.5 37 c 128,-1,1
518.5 54.5 m 128,-1,17
 599 99 599 99 652 179.5 c 128,-1,18
 705 260 705 260 722 365 c 256,19,20
 739 470 739 470 711 550.5 c 128,-1,21
 683 631 683 631 617 675.5 c 128,-1,22
 551 720 551 720 455 720 c 256,23,24
 359 720 359 720 279 675.5 c 128,-1,25
 199 631 199 631 145.5 550.5 c 128,-1,26
 92 470 92 470 75 365 c 256,27,28
 58 260 58 260 86 179.5 c 128,-1,29
 114 99 114 99 180 54.5 c 128,-1,30
 246 10 246 10 342 10 c 256,31,16
 438 10 438 10 518.5 54.5 c 128,-1,17
EndSplineSet
Substitution2: "Single Substitution lookup 21 subtable" ordmasculine
Substitution2: "'aalt' Access All Alternates in Latin lookup 0 subtable" ordmasculine
EndChar

StartChar: Ohorn
Encoding: 416 416 123
Width: 780
GlyphClass: 2
Flags: W
AnchorPoint: "Anchor-7" 704 845 basechar 0
AnchorPoint: "Anchor-6" 352 730 basechar 0
AnchorPoint: "Anchor-5" 401 0 basechar 0
AnchorPoint: "Anchor-4" 352 0 basechar 0
LayerCount: 2
Fore
SplineSet
738 530.5 m 128,-1,1
 756 456 756 456 742 365 c 0,2,3
 725 255 725 255 668 169.5 c 128,-1,4
 611 84 611 84 525.5 37 c 128,-1,5
 440 -10 440 -10 339 -10 c 256,6,7
 238 -10 238 -10 167.5 37 c 128,-1,8
 97 84 97 84 67.5 169.5 c 128,-1,9
 38 255 38 255 56 365 c 256,10,11
 73 475 73 475 129.5 560.5 c 128,-1,12
 186 646 186 646 271.5 693 c 128,-1,13
 357 740 357 740 458 740 c 0,14,15
 563 740 563 740 635 689 c 0,16,17
 660 675 660 675 690 675 c 0,18,19
 754 675 754 675 766 753 c 0,20,21
 770 776 770 776 769 801.5 c 128,-1,22
 768 827 768 827 764 845 c 1,23,-1
 784 845 l 1,24,25
 792 797 792 797 785 753 c 0,26,27
 778 706 778 706 752.5 680.5 c 128,-1,28
 727 655 727 655 687 655 c 0,29,30
 678 655 678 655 673 656 c 1,31,0
 720 605 720 605 738 530.5 c 128,-1,1
518.5 54.5 m 128,-1,33
 599 99 599 99 652 179.5 c 128,-1,34
 705 260 705 260 722 365 c 256,35,36
 739 470 739 470 711 550.5 c 128,-1,37
 683 631 683 631 617 675.5 c 128,-1,38
 551 720 551 720 455 720 c 256,39,40
 359 720 359 720 279 675.5 c 128,-1,41
 199 631 199 631 145.5 550.5 c 128,-1,42
 92 470 92 470 75 365 c 256,43,44
 58 260 58 260 86 179.5 c 128,-1,45
 114 99 114 99 180 54.5 c 128,-1,46
 246 10 246 10 342 10 c 256,47,32
 438 10 438 10 518.5 54.5 c 128,-1,33
EndSplineSet
EndChar

StartChar: uni01EA
Encoding: 490 490 132
Width: 771
GlyphClass: 2
Flags: W
AnchorPoint: "Anchor-7" 539 690 basechar 0
AnchorPoint: "Anchor-6" 352 730 basechar 0
AnchorPoint: "Anchor-5" 401 0 basechar 0
AnchorPoint: "Anchor-4" 352 0 basechar 0
LayerCount: 2
Fore
SplineSet
285 -71 m 128,-1,1
 253 -103 253 -103 248 -135 c 0,2,3
 242 -172 242 -172 270.5 -186 c 128,-1,4
 299 -200 299 -200 343 -200 c 0,5,6
 394 -200 394 -200 438 -181 c 1,7,-1
 443 -199 l 1,8,9
 396 -220 396 -220 340 -220 c 0,10,11
 267 -220 267 -220 245 -194 c 128,-1,12
 223 -168 223 -168 228 -135 c 256,13,14
 233 -102 233 -102 261 -70 c 128,-1,15
 289 -38 289 -38 334 -10 c 1,16,17
 234 -9 234 -9 165 38.5 c 128,-1,18
 96 86 96 86 67 171 c 128,-1,19
 38 256 38 256 56 365 c 0,20,21
 73 475 73 475 129.5 560.5 c 128,-1,22
 186 646 186 646 271.5 693 c 128,-1,23
 357 740 357 740 458 740 c 256,24,25
 559 740 559 740 629.5 693 c 128,-1,26
 700 646 700 646 729.5 560.5 c 128,-1,27
 759 475 759 475 742 365 c 0,28,29
 726 261 726 261 674 179 c 128,-1,30
 622 97 622 97 544 48 c 128,-1,31
 466 -1 466 -1 373 -9 c 1,32,0
 317 -39 317 -39 285 -71 c 128,-1,1
86.5 179.5 m 128,-1,34
 114 99 114 99 180 54.5 c 128,-1,35
 246 10 246 10 342 10 c 256,36,37
 438 10 438 10 518.5 54.5 c 128,-1,38
 599 99 599 99 652 179.5 c 128,-1,39
 705 260 705 260 722 365 c 256,40,41
 739 470 739 470 711 550.5 c 128,-1,42
 683 631 683 631 617 675.5 c 128,-1,43
 551 720 551 720 455 720 c 256,44,45
 359 720 359 720 279 675.5 c 128,-1,46
 199 631 199 631 145.5 550.5 c 128,-1,47
 92 470 92 470 75 365 c 256,48,33
 59 260 59 260 86.5 179.5 c 128,-1,34
EndSplineSet
EndChar

StartChar: Oslash
Encoding: 216 216 133
Width: 771
GlyphClass: 2
Flags: W
AnchorPoint: "Anchor-7" 539 690 basechar 0
AnchorPoint: "Anchor-6" 352 730 basechar 0
AnchorPoint: "Anchor-5" 401 0 basechar 0
AnchorPoint: "Anchor-4" 352 0 basechar 0
LayerCount: 2
Fore
SplineSet
737.5 532.5 m 128,-1,1
 756 457 756 457 742 365 c 0,2,3
 725 255 725 255 668 169.5 c 128,-1,4
 611 84 611 84 525.5 37 c 128,-1,5
 440 -10 440 -10 339 -10 c 0,6,7
 217 -10 217 -10 138 59 c 1,8,-1
 72 -16 l 1,9,-1
 58 -4 l 1,10,-1
 126 72 l 1,11,12
 78 122 78 122 59.5 197.5 c 128,-1,13
 41 273 41 273 56 365 c 0,14,15
 73 475 73 475 129.5 560.5 c 128,-1,16
 186 646 186 646 271.5 693 c 128,-1,17
 357 740 357 740 458 740 c 0,18,19
 580 740 580 740 659 671 c 1,20,-1
 725 746 l 1,21,-1
 739 734 l 1,22,-1
 671 658 l 1,23,0
 719 608 719 608 737.5 532.5 c 128,-1,1
78.5 207 m 128,-1,25
 96 136 96 136 140 88 c 1,26,-1
 644 655 l 1,27,28
 571 720 571 720 455 720 c 0,29,30
 359 720 359 720 279 675.5 c 128,-1,31
 199 631 199 631 145.5 550.5 c 128,-1,32
 92 470 92 470 75 365 c 0,33,24
 61 278 61 278 78.5 207 c 128,-1,25
518.5 54.5 m 128,-1,35
 599 99 599 99 652 179.5 c 128,-1,36
 705 260 705 260 722 365 c 0,37,38
 736 452 736 452 718.5 523 c 128,-1,39
 701 594 701 594 657 642 c 1,40,-1
 153 75 l 1,41,42
 226 10 226 10 342 10 c 0,43,34
 438 10 438 10 518.5 54.5 c 128,-1,35
EndSplineSet
EndChar

StartChar: OE
Encoding: 338 338 137
Width: 949
GlyphClass: 2
Flags: W
AnchorPoint: "Anchor-6" 656 730 basechar 0
AnchorPoint: "Anchor-5" 861 0 basechar 0
AnchorPoint: "Anchor-4" 656 0 basechar 0
LayerCount: 2
Fore
SplineSet
560 710 m 1,0,-1
 511 400 l 1,1,-1
 883 400 l 1,2,-1
 880 380 l 1,3,-1
 508 380 l 1,4,-1
 451 20 l 1,5,-1
 843 20 l 1,6,-1
 840 0 l 1,7,-1
 428 0 l 1,8,9
 380 -10 380 -10 339 -10 c 0,10,11
 238 -10 238 -10 167.5 37 c 128,-1,12
 97 84 97 84 67.5 169.5 c 128,-1,13
 38 255 38 255 56 365 c 256,14,15
 73 475 73 475 129.5 560.5 c 128,-1,16
 186 646 186 646 271.5 693 c 128,-1,17
 357 740 357 740 458 740 c 0,18,19
 499 740 499 740 544 730 c 1,20,-1
 955 730 l 1,21,-1
 952 710 l 1,22,-1
 560 710 l 1,0,-1
86.5 179.5 m 128,-1,24
 114 99 114 99 180 54.5 c 128,-1,25
 246 10 246 10 342 10 c 0,26,27
 390 10 390 10 431 20 c 1,28,-1
 540 710 l 1,29,30
 502 720 502 720 455 720 c 0,31,32
 359 720 359 720 279 675.5 c 128,-1,33
 199 631 199 631 145.5 550.5 c 128,-1,34
 92 470 92 470 75 365 c 256,35,23
 59 260 59 260 86.5 179.5 c 128,-1,24
EndSplineSet
EndChar

StartChar: P
Encoding: 80 80 138
Width: 544
Flags: W
LayerCount: 2
Fore
SplineSet
512 680 m 128,-1,1
 572 630 572 630 555 520 c 256,2,3
 538 410 538 410 462 360 c 128,-1,4
 386 310 386 310 238 310 c 2,5,-1
 110 310 l 1,6,-1
 61 0 l 1,7,-1
 41 0 l 1,8,-1
 157 730 l 1,9,-1
 304 730 l 2,10,0
 452 730 452 730 512 680 c 128,-1,1
450 374.5 m 128,-1,12
 519 419 519 419 535 520 c 256,13,14
 551 621 551 621 496 665.5 c 128,-1,15
 441 710 441 710 301 710 c 2,16,-1
 174 710 l 1,17,-1
 113 330 l 1,18,-1
 241 330 l 2,19,11
 381 330 381 330 450 374.5 c 128,-1,12
EndSplineSet
EndChar

StartChar: Thorn
Encoding: 222 222 139
Width: 544
Flags: W
LayerCount: 2
Fore
SplineSet
489 535 m 128,-1,1
 549 485 549 485 532 375 c 256,2,3
 515 265 515 265 439 215 c 128,-1,4
 363 165 363 165 215 165 c 2,5,-1
 87 165 l 1,6,-1
 61 0 l 1,7,-1
 41 0 l 1,8,-1
 157 730 l 1,9,-1
 177 730 l 1,10,-1
 154 585 l 1,11,-1
 281 585 l 2,12,0
 429 585 429 585 489 535 c 128,-1,1
427 229.5 m 128,-1,14
 496 274 496 274 512 375 c 256,15,16
 528 476 528 476 473 520.5 c 128,-1,17
 418 565 418 565 278 565 c 2,18,-1
 151 565 l 1,19,-1
 90 185 l 1,20,-1
 218 185 l 2,21,13
 358 185 358 185 427 229.5 c 128,-1,14
EndSplineSet
EndChar

StartChar: Q
Encoding: 81 81 140
Width: 785
Flags: W
LayerCount: 2
Fore
SplineSet
339 -10 m 0,1,2
 238 -10 238 -10 167.5 37 c 128,-1,3
 97 84 97 84 67.5 169.5 c 128,-1,4
 38 255 38 255 56 365 c 256,5,6
 73 475 73 475 129.5 560.5 c 128,-1,7
 186 646 186 646 271.5 693 c 128,-1,8
 357 740 357 740 458 740 c 256,9,10
 559 740 559 740 629.5 693 c 128,-1,11
 700 646 700 646 729.5 560.5 c 128,-1,12
 759 475 759 475 742 365 c 0,13,14
 720 229 720 229 639.5 133 c 128,-1,15
 559 37 559 37 443 5 c 1,16,-1
 443 3 l 1,17,18
 606 -17 606 -17 681 -102 c 1,19,-1
 665 -116 l 1,20,0
 573 -10 573 -10 339 -10 c 0,1,2
518.5 54.5 m 128,-1,22
 599 99 599 99 652 179.5 c 128,-1,23
 705 260 705 260 722 365 c 256,24,25
 739 470 739 470 711 550.5 c 128,-1,26
 683 631 683 631 617 675.5 c 128,-1,27
 551 720 551 720 455 720 c 256,28,29
 359 720 359 720 279 675.5 c 128,-1,30
 199 631 199 631 145.5 550.5 c 128,-1,31
 92 470 92 470 75 365 c 256,32,33
 58 260 58 260 86 179.5 c 128,-1,34
 114 99 114 99 180 54.5 c 128,-1,35
 246 10 246 10 342 10 c 256,36,21
 438 10 438 10 518.5 54.5 c 128,-1,22
EndSplineSet
EndChar

StartChar: R
Encoding: 82 82 141
Width: 571
GlyphClass: 2
Flags: W
AnchorPoint: "Anchor-6" 245 730 basechar 0
AnchorPoint: "Anchor-4" 245 0 basechar 0
LayerCount: 2
Fore
SplineSet
206 350 m 1,0,-1
 116 350 l 1,1,-1
 61 0 l 1,2,-1
 41 0 l 1,3,-1
 157 730 l 1,4,-1
 324 730 l 2,5,6
 463 730 463 730 518.5 685 c 128,-1,7
 574 640 574 640 558 540 c 256,8,9
 542 440 542 440 472.5 395 c 128,-1,10
 403 350 403 350 263 350 c 2,11,-1
 233 350 l 1,12,-1
 492 0 l 1,13,-1
 465 0 l 1,14,-1
 206 350 l 1,0,-1
120 370 m 1,15,-1
 267 370 l 2,16,17
 398 370 398 370 461 410 c 128,-1,18
 524 450 524 450 539 540 c 256,19,20
 553 630 553 630 502.5 670 c 128,-1,21
 452 710 452 710 321 710 c 2,22,-1
 174 710 l 1,23,-1
 120 370 l 1,15,-1
EndSplineSet
EndChar

StartChar: S
Encoding: 83 83 147
Width: 575
GlyphClass: 2
Flags: W
AnchorPoint: "Anchor-6" 251 730 basechar 0
AnchorPoint: "Anchor-4" 251 0 basechar 0
LayerCount: 2
Fore
SplineSet
120.5 5 m 128,-1,1
 66 20 66 20 23 48 c 1,2,-1
 36 66 l 1,3,4
 77 39 77 39 129 24.5 c 128,-1,5
 181 10 181 10 239 10 c 0,6,7
 340 10 340 10 404 55.5 c 128,-1,8
 468 101 468 101 481 183 c 0,9,10
 490 241 490 241 466.5 275.5 c 128,-1,11
 443 310 443 310 404 328.5 c 128,-1,12
 365 347 365 347 295 368 c 0,13,14
 226 389 226 389 185 408 c 128,-1,15
 144 427 144 427 119.5 463.5 c 128,-1,16
 95 500 95 500 105 561 c 0,17,18
 118 644 118 644 184.5 692 c 128,-1,19
 251 740 251 740 355 740 c 0,20,21
 412 740 412 740 471.5 726 c 128,-1,22
 531 712 531 712 564 690 c 1,23,-1
 551 672 l 1,24,25
 520 693 520 693 463.5 706.5 c 128,-1,26
 407 720 407 720 352 720 c 0,27,28
 257 720 257 720 196.5 678 c 128,-1,29
 136 636 136 636 124 561 c 0,30,31
 116 508 116 508 138 475 c 128,-1,32
 160 442 160 442 198 424.5 c 128,-1,33
 236 407 236 407 304 387 c 0,34,35
 374 366 374 366 416.5 346 c 128,-1,36
 459 326 459 326 484.5 287 c 128,-1,37
 510 248 510 248 500 183 c 0,38,39
 487 92 487 92 416.5 41 c 128,-1,40
 346 -10 346 -10 236 -10 c 0,41,0
 175 -10 175 -10 120.5 5 c 128,-1,1
EndSplineSet
EndChar

StartChar: Scedilla
Encoding: 350 350 150
Width: 575
GlyphClass: 2
Flags: W
AnchorPoint: "Anchor-6" 251 730 basechar 0
AnchorPoint: "Anchor-4" 251 0 basechar 0
LayerCount: 2
Fore
SplineSet
426 49 m 128,-1,1
 365 -1 365 -1 267 -9 c 1,2,3
 306 -38 306 -38 324 -70.5 c 128,-1,4
 342 -103 342 -103 337 -136 c 256,5,6
 332 -169 332 -169 301 -195 c 128,-1,7
 270 -221 270 -221 198 -221 c 0,8,9
 143 -221 143 -221 102 -200 c 1,10,-1
 113 -182 l 1,11,12
 150 -201 150 -201 201 -201 c 0,13,14
 245 -201 245 -201 278 -187 c 128,-1,15
 311 -173 311 -173 317 -136 c 0,16,17
 327 -73 327 -73 233 -10 c 1,18,19
 172 -9 172 -9 118 5.5 c 128,-1,20
 64 20 64 20 23 48 c 1,21,-1
 36 66 l 1,22,23
 77 39 77 39 129 24.5 c 128,-1,24
 181 10 181 10 239 10 c 0,25,26
 340 10 340 10 404 55.5 c 128,-1,27
 468 101 468 101 481 183 c 0,28,29
 490 241 490 241 466.5 275.5 c 128,-1,30
 443 310 443 310 404 328.5 c 128,-1,31
 365 347 365 347 295 368 c 0,32,33
 226 389 226 389 185 408 c 128,-1,34
 144 427 144 427 119.5 463.5 c 128,-1,35
 95 500 95 500 105 561 c 0,36,37
 118 644 118 644 184.5 692 c 128,-1,38
 251 740 251 740 355 740 c 0,39,40
 412 740 412 740 471.5 726 c 128,-1,41
 531 712 531 712 564 690 c 1,42,-1
 551 672 l 1,43,44
 520 693 520 693 463.5 706.5 c 128,-1,45
 407 720 407 720 352 720 c 0,46,47
 257 720 257 720 196.5 678 c 128,-1,48
 136 636 136 636 124 561 c 0,49,50
 116 508 116 508 138 475 c 128,-1,51
 160 442 160 442 198 424.5 c 128,-1,52
 236 407 236 407 304 387 c 0,53,54
 374 366 374 366 416.5 346 c 128,-1,55
 459 326 459 326 484.5 287 c 128,-1,56
 510 248 510 248 500 183 c 0,57,0
 487 99 487 99 426 49 c 128,-1,1
EndSplineSet
Substitution2: "'locl' Localized Forms in Latin lookup 4 subtable" uni0218
Substitution2: "'aalt' Access All Alternates in Latin lookup 0 subtable" uni0218
EndChar

StartChar: uni1E9E
Encoding: 7838 7838 153
Width: 620
Flags: W
LayerCount: 2
Fore
SplineSet
186 7 m 1,1,-1
 195 26 l 1,2,3
 245 10 245 10 309 10 c 0,4,5
 419 10 419 10 483 53.5 c 128,-1,6
 547 97 547 97 560 180 c 256,7,8
 573 263 573 263 523 306.5 c 128,-1,9
 473 350 473 350 365 350 c 2,10,-1
 346 350 l 1,11,-1
 350 379 l 1,12,-1
 537 572 l 1,13,14
 547 647 547 647 507.5 683.5 c 128,-1,15
 468 720 468 720 379 720 c 0,16,17
 274 720 274 720 216.5 668 c 128,-1,18
 159 616 159 616 141 505 c 2,19,-1
 61 0 l 1,20,-1
 41 0 l 1,21,-1
 121 505 l 2,22,23
 140 624 140 624 204 682 c 128,-1,24
 268 740 268 740 382 740 c 0,25,26
 583 740 583 740 555 565 c 1,27,-1
 369 372 l 1,28,-1
 369 370 l 1,29,30
 485 370 485 370 539.5 321 c 128,-1,31
 594 272 594 272 580 180 c 256,32,33
 565 88 565 88 494 39 c 128,-1,34
 423 -10 423 -10 305 -10 c 0,35,0
 240 -10 240 -10 186 7 c 1,1,-1
EndSplineSet
EndChar

StartChar: uni018F
Encoding: 399 399 154
Width: 730
Flags: W
LayerCount: 2
Fore
SplineSet
653.5 643 m 128,-1,1
 729 546 729 546 701 365 c 0,2,3
 682 248 682 248 630.5 163.5 c 128,-1,4
 579 79 579 79 499 34.5 c 128,-1,5
 419 -10 419 -10 318 -10 c 256,6,7
 217 -10 217 -10 151 34.5 c 128,-1,8
 85 79 85 79 60 163.5 c 128,-1,9
 35 248 35 248 54 365 c 2,10,-1
 54 368 l 1,11,-1
 681 368 l 1,12,13
 707 540 707 540 636 630 c 128,-1,14
 565 720 565 720 404 720 c 0,15,16
 336 720 336 720 267 704 c 128,-1,17
 198 688 198 688 138 658 c 1,18,-1
 132 676 l 1,19,20
 193 706 193 706 265.5 723 c 128,-1,21
 338 740 338 740 407 740 c 0,22,0
 578 740 578 740 653.5 643 c 128,-1,1
555 98.5 m 128,-1,24
 649 187 649 187 678 348 c 1,25,-1
 71 348 l 1,26,27
 49 187 49 187 115 98.5 c 128,-1,28
 181 10 181 10 321 10 c 256,29,23
 461 10 461 10 555 98.5 c 128,-1,24
EndSplineSet
EndChar

StartChar: T
Encoding: 84 84 155
Width: 599
GlyphClass: 2
Flags: W
AnchorPoint: "Anchor-8" 253 0 basechar 0
AnchorPoint: "Anchor-6" 263 730 basechar 0
AnchorPoint: "Anchor-4" 263 0 basechar 0
LayerCount: 2
Fore
SplineSet
358 710 m 1,0,-1
 93 710 l 1,1,-1
 96 730 l 1,2,-1
 645 730 l 1,3,-1
 642 710 l 1,4,-1
 377 710 l 1,5,-1
 265 0 l 1,6,-1
 245 0 l 1,7,-1
 358 710 l 1,0,-1
EndSplineSet
EndChar

StartChar: Tbar
Encoding: 358 358 156
Width: 650
GlyphClass: 2
Flags: W
AnchorPoint: "Anchor-8" 281 0 basechar 0
AnchorPoint: "Anchor-6" 291 730 basechar 0
AnchorPoint: "Anchor-4" 291 0 basechar 0
LayerCount: 2
Fore
SplineSet
667 710 m 1,0,-1
 403 710 l 1,1,-1
 342 325 l 1,2,-1
 538 325 l 1,3,-1
 534 305 l 1,4,-1
 338 305 l 1,5,-1
 290 0 l 1,6,-1
 271 0 l 1,7,-1
 319 305 l 1,8,-1
 123 305 l 1,9,-1
 126 325 l 1,10,-1
 322 325 l 1,11,-1
 383 710 l 1,12,-1
 118 710 l 1,13,-1
 122 730 l 1,14,-1
 670 730 l 1,15,-1
 667 710 l 1,0,-1
EndSplineSet
EndChar

StartChar: uni0162
Encoding: 354 354 158
Width: 599
GlyphClass: 2
Flags: W
AnchorPoint: "Anchor-8" 253 0 basechar 0
AnchorPoint: "Anchor-6" 263 730 basechar 0
AnchorPoint: "Anchor-4" 263 0 basechar 0
LayerCount: 2
Fore
SplineSet
377 710 m 1,0,-1
 266 11 l 1,1,2
 318 -21 318 -21 343.5 -58.5 c 128,-1,3
 369 -96 369 -96 363 -135 c 0,4,5
 358 -168 358 -168 327 -194 c 128,-1,6
 296 -220 296 -220 224 -220 c 0,7,8
 169 -220 169 -220 128 -199 c 1,9,-1
 139 -181 l 1,10,11
 176 -200 176 -200 227 -200 c 0,12,13
 271 -200 271 -200 304 -186 c 128,-1,14
 337 -172 337 -172 343 -135 c 0,15,16
 348 -101 348 -101 323 -66.5 c 128,-1,17
 298 -32 298 -32 245 0 c 1,18,-1
 358 710 l 1,19,-1
 93 710 l 1,20,-1
 96 730 l 1,21,-1
 645 730 l 1,22,-1
 642 710 l 1,23,-1
 377 710 l 1,0,-1
EndSplineSet
Substitution2: "'locl' Localized Forms in Latin lookup 4 subtable" uni021A
Substitution2: "'aalt' Access All Alternates in Latin lookup 0 subtable" uni021A
EndChar

StartChar: U
Encoding: 85 85 160
Width: 664
GlyphClass: 2
Flags: W
AnchorPoint: "Anchor-7" 560 690 basechar 0
AnchorPoint: "Anchor-6" 300 730 basechar 0
AnchorPoint: "Anchor-5" 409 10 basechar 0
AnchorPoint: "Anchor-4" 300 0 basechar 0
LayerCount: 2
Fore
SplineSet
106 60.5 m 128,-1,1
 53 131 53 131 75 270 c 2,2,-1
 148 730 l 1,3,-1
 168 730 l 1,4,-1
 95 270 l 2,5,6
 54 10 54 10 289 10 c 256,7,8
 524 10 524 10 565 270 c 2,9,-1
 638 730 l 1,10,-1
 658 730 l 1,11,-1
 585 270 l 2,12,13
 563 131 563 131 487.5 60.5 c 128,-1,14
 412 -10 412 -10 286 -10 c 256,15,0
 159 -10 159 -10 106 60.5 c 128,-1,1
EndSplineSet
EndChar

StartChar: Uhorn
Encoding: 431 431 169
Width: 710
GlyphClass: 2
Flags: W
AnchorPoint: "Anchor-7" 725 845 basechar 0
AnchorPoint: "Anchor-6" 300 730 basechar 0
AnchorPoint: "Anchor-5" 409 10 basechar 0
AnchorPoint: "Anchor-4" 300 0 basechar 0
LayerCount: 2
Fore
SplineSet
803 753 m 0,1,2
 796 706 796 706 770.5 680.5 c 128,-1,3
 745 655 745 655 704 655 c 0,4,5
 676 655 676 655 648 668 c 1,6,-1
 585 270 l 2,7,8
 563 131 563 131 487.5 60.5 c 128,-1,9
 412 -10 412 -10 286 -10 c 256,10,11
 160 -10 160 -10 106.5 60.5 c 128,-1,12
 53 131 53 131 75 270 c 2,13,-1
 148 730 l 1,14,-1
 168 730 l 1,15,-1
 95 270 l 2,16,17
 54 10 54 10 289 10 c 256,18,19
 524 10 524 10 565 270 c 2,20,-1
 638 730 l 1,21,-1
 658 730 l 1,22,-1
 651 690 l 1,23,24
 678 675 678 675 708 675 c 0,25,26
 772 675 772 675 784 753 c 0,27,28
 788 776 788 776 787 801.5 c 128,-1,29
 786 827 786 827 782 845 c 1,30,-1
 802 845 l 1,31,0
 810 797 810 797 803 753 c 0,1,2
EndSplineSet
EndChar

StartChar: Uogonek
Encoding: 370 370 178
Width: 664
GlyphClass: 2
Flags: W
AnchorPoint: "Anchor-7" 560 690 basechar 0
AnchorPoint: "Anchor-6" 300 730 basechar 0
AnchorPoint: "Anchor-5" 409 10 basechar 0
AnchorPoint: "Anchor-4" 300 0 basechar 0
LayerCount: 2
Fore
SplineSet
292 -61.5 m 128,-1,1
 260 -94 260 -94 255 -125 c 0,2,3
 249 -162 249 -162 277.5 -176 c 128,-1,4
 306 -190 306 -190 350 -190 c 0,5,6
 401 -190 401 -190 444 -171 c 1,7,-1
 449 -189 l 1,8,9
 402 -210 402 -210 347 -210 c 0,10,11
 274 -210 274 -210 252 -184 c 128,-1,12
 230 -158 230 -158 235 -125 c 0,13,14
 240 -95 240 -95 264 -65 c 128,-1,15
 288 -35 288 -35 329 -8 c 1,16,17
 301 -10 301 -10 286 -10 c 0,18,19
 160 -10 160 -10 106.5 60.5 c 128,-1,20
 53 131 53 131 75 270 c 2,21,-1
 148 730 l 1,22,-1
 168 730 l 1,23,-1
 95 270 l 2,24,25
 54 10 54 10 289 10 c 256,26,27
 524 10 524 10 565 270 c 2,28,-1
 638 730 l 1,29,-1
 658 730 l 1,30,-1
 585 270 l 2,31,32
 568 160 568 160 515.5 92 c 128,-1,33
 463 24 463 24 380 2 c 1,34,0
 324 -29 324 -29 292 -61.5 c 128,-1,1
EndSplineSet
EndChar

StartChar: V
Encoding: 86 86 181
Width: 632
Flags: W
LayerCount: 2
Fore
SplineSet
88 730 m 1,0,-1
 109 730 l 1,1,-1
 273 20 l 1,2,-1
 275 20 l 1,3,-1
 664 730 l 1,4,-1
 686 730 l 1,5,-1
 286 0 l 1,6,-1
 256 0 l 1,7,-1
 88 730 l 1,0,-1
EndSplineSet
EndChar

StartChar: W
Encoding: 87 87 182
Width: 867
GlyphClass: 2
Flags: W
AnchorPoint: "Anchor-6" 400 730 basechar 0
AnchorPoint: "Anchor-4" 400 0 basechar 0
LayerCount: 2
Fore
SplineSet
503 713 m 1,0,-1
 501 713 l 1,1,-1
 199 0 l 1,2,-1
 168 0 l 1,3,-1
 98 730 l 1,4,-1
 119 730 l 1,5,-1
 185 17 l 1,6,-1
 187 17 l 1,7,-1
 489 730 l 1,8,-1
 520 730 l 1,9,-1
 597 17 l 1,10,-1
 598 17 l 1,11,-1
 891 730 l 1,12,-1
 911 730 l 1,13,-1
 610 0 l 1,14,-1
 579 0 l 1,15,-1
 503 713 l 1,0,-1
EndSplineSet
EndChar

StartChar: X
Encoding: 88 88 187
Width: 665
Flags: W
LayerCount: 2
Fore
SplineSet
334 369 m 1,0,-1
 135 730 l 1,1,-1
 159 730 l 1,2,-1
 348 387 l 1,3,-1
 350 387 l 1,4,-1
 647 730 l 1,5,-1
 672 730 l 1,6,-1
 358 369 l 1,7,-1
 562 0 l 1,8,-1
 538 0 l 1,9,-1
 344 352 l 1,10,-1
 342 352 l 1,11,-1
 38 0 l 1,12,-1
 13 0 l 1,13,-1
 334 369 l 1,0,-1
EndSplineSet
EndChar

StartChar: Y
Encoding: 89 89 188
Width: 608
GlyphClass: 2
Flags: W
AnchorPoint: "Anchor-6" 266 730 basechar 0
AnchorPoint: "Anchor-4" 266 0 basechar 0
LayerCount: 2
Fore
SplineSet
299 317 m 1,0,-1
 81 730 l 1,1,-1
 104 730 l 1,2,-1
 312 338 l 1,3,-1
 314 338 l 1,4,-1
 645 730 l 1,5,-1
 669 730 l 1,6,-1
 319 317 l 1,7,-1
 269 0 l 1,8,-1
 249 0 l 1,9,-1
 299 317 l 1,0,-1
EndSplineSet
EndChar

StartChar: Z
Encoding: 90 90 197
Width: 608
GlyphClass: 2
Flags: W
AnchorPoint: "Anchor-6" 271 730 basechar 0
AnchorPoint: "Anchor-4" 271 0 basechar 0
LayerCount: 2
Fore
SplineSet
27 20 m 1,0,-1
 581 708 l 1,1,-1
 582 710 l 1,2,-1
 137 710 l 1,3,-1
 140 730 l 1,4,-1
 610 730 l 1,5,-1
 607 710 l 1,6,-1
 53 22 l 1,7,-1
 53 20 l 1,8,-1
 498 20 l 1,9,-1
 495 0 l 1,10,-1
 24 0 l 1,11,-1
 27 20 l 1,0,-1
EndSplineSet
EndChar

StartChar: a
Encoding: 97 97 201
Width: 480
GlyphClass: 2
Flags: W
AnchorPoint: "Anchor-6" 197 520 basechar 0
AnchorPoint: "Anchor-5" 393 0 basechar 0
AnchorPoint: "Anchor-4" 197 0 basechar 0
LayerCount: 2
Fore
SplineSet
403.5 484 m 128,-1,1
 435 438 435 438 418 330 c 2,2,-1
 366 0 l 1,3,-1
 347 0 l 1,4,-1
 365 116 l 1,5,-1
 363 116 l 1,6,7
 328 58 328 58 270.5 24 c 128,-1,8
 213 -10 213 -10 147 -10 c 0,9,10
 74 -10 74 -10 35.5 31 c 128,-1,11
 -3 72 -3 72 8 140 c 0,12,13
 22 229 22 229 108 277 c 128,-1,14
 194 325 194 325 338 325 c 2,15,-1
 398 325 l 1,16,-1
 399 330 l 2,17,18
 410 397 410 397 401.5 436 c 128,-1,19
 393 475 393 475 363 492.5 c 128,-1,20
 333 510 333 510 277 510 c 0,21,22
 179 510 179 510 86 462 c 1,23,-1
 81 480 l 1,24,25
 179 530 179 530 280 530 c 0,26,0
 372 530 372 530 403.5 484 c 128,-1,1
255.5 36 m 128,-1,28
 305 62 305 62 338 107.5 c 128,-1,29
 371 153 371 153 380 210 c 2,30,-1
 395 305 l 1,31,-1
 335 305 l 2,32,33
 199 305 199 305 119.5 262.5 c 128,-1,34
 40 220 40 220 27 140 c 0,35,36
 18 81 18 81 51 45.5 c 128,-1,37
 84 10 84 10 150 10 c 0,38,27
 206 10 206 10 255.5 36 c 128,-1,28
EndSplineSet
Substitution2: "Single Substitution lookup 21 subtable" ordfeminine
Substitution2: "'aalt' Access All Alternates in Latin lookup 0 subtable" ordfeminine
EndChar

StartChar: aogonek
Encoding: 261 261 222
Width: 483
GlyphClass: 2
Flags: W
AnchorPoint: "Anchor-6" 197 520 basechar 0
AnchorPoint: "Anchor-5" 393 0 basechar 0
AnchorPoint: "Anchor-4" 197 0 basechar 0
LayerCount: 2
Fore
SplineSet
416 -199 m 1,0,1
 370 -220 370 -220 317 -220 c 0,2,3
 247 -220 247 -220 225.5 -194 c 128,-1,4
 204 -168 204 -168 209 -135 c 0,5,6
 215 -96 215 -96 251.5 -58.5 c 128,-1,7
 288 -21 288 -21 348 11 c 1,8,-1
 365 116 l 1,9,-1
 363 116 l 1,10,11
 328 58 328 58 270.5 24 c 128,-1,12
 213 -10 213 -10 147 -10 c 0,13,14
 74 -10 74 -10 35.5 31 c 128,-1,15
 -3 72 -3 72 8 140 c 0,16,17
 22 229 22 229 108 277 c 128,-1,18
 194 325 194 325 338 325 c 2,19,-1
 398 325 l 1,20,-1
 399 330 l 2,21,22
 410 397 410 397 401 436 c 128,-1,23
 392 475 392 475 362.5 492.5 c 128,-1,24
 333 510 333 510 277 510 c 0,25,26
 179 510 179 510 86 462 c 1,27,-1
 81 480 l 1,28,29
 179 530 179 530 280 530 c 0,30,31
 371 530 371 530 403 484 c 128,-1,32
 435 438 435 438 418 330 c 2,33,-1
 365 0 l 1,34,35
 304 -32 304 -32 269 -66.5 c 128,-1,36
 234 -101 234 -101 228 -135 c 0,37,38
 222 -172 222 -172 250 -186 c 128,-1,39
 278 -200 278 -200 320 -200 c 0,40,41
 369 -200 369 -200 412 -181 c 1,42,-1
 416 -199 l 1,0,1
255.5 36 m 128,-1,44
 305 62 305 62 338 107.5 c 128,-1,45
 371 153 371 153 380 210 c 2,46,-1
 395 305 l 1,47,-1
 335 305 l 2,48,49
 199 305 199 305 119.5 262.5 c 128,-1,50
 40 220 40 220 27 140 c 0,51,52
 18 81 18 81 51 45.5 c 128,-1,53
 84 10 84 10 150 10 c 0,54,43
 206 10 206 10 255.5 36 c 128,-1,44
EndSplineSet
EndChar

StartChar: aring
Encoding: 229 229 223
Width: 480
GlyphClass: 2
Flags: W
AnchorPoint: "Anchor-6" 197 710 basechar 0
AnchorPoint: "Anchor-5" 393 0 basechar 0
AnchorPoint: "Anchor-4" 197 0 basechar 0
LayerCount: 2
Fore
SplineSet
406 479.5 m 128,-1,1
 434 433 434 433 417 330 c 2,2,-1
 365 0 l 1,3,-1
 346 0 l 1,4,-1
 365 116 l 1,5,-1
 363 116 l 1,6,7
 328 58 328 58 270.5 24 c 128,-1,8
 213 -10 213 -10 147 -10 c 0,9,10
 74 -10 74 -10 35.5 31 c 128,-1,11
 -3 72 -3 72 8 140 c 0,12,13
 22 229 22 229 108 277 c 128,-1,14
 194 325 194 325 338 325 c 2,15,-1
 398 325 l 1,16,-1
 399 330 l 2,17,18
 410 397 410 397 401 436 c 128,-1,19
 392 475 392 475 362.5 492.5 c 128,-1,20
 333 510 333 510 277 510 c 0,21,22
 179 510 179 510 86 462 c 1,23,-1
 81 480 l 1,24,25
 158 519 158 519 239 528 c 1,26,27
 201 537 201 537 180 571 c 128,-1,28
 159 605 159 605 166 650 c 0,29,30
 174 702 174 702 214.5 738.5 c 128,-1,31
 255 775 255 775 304 775 c 256,32,33
 353 775 353 775 382 738.5 c 128,-1,34
 411 702 411 702 403 650 c 0,35,36
 396 607 396 607 366.5 574 c 128,-1,37
 337 541 337 541 297 530 c 1,38,0
 378 526 378 526 406 479.5 c 128,-1,1
202.5 576 m 128,-1,40
 227 545 227 545 268 545 c 0,41,42
 310 545 310 545 343.5 576 c 128,-1,43
 377 607 377 607 384 650 c 0,44,45
 391 694 391 694 367 724.5 c 128,-1,46
 343 755 343 755 301 755 c 0,47,48
 260 755 260 755 225.5 724.5 c 128,-1,49
 191 694 191 694 184 650 c 0,50,39
 178 607 178 607 202.5 576 c 128,-1,40
255.5 36 m 128,-1,52
 305 62 305 62 338 107.5 c 128,-1,53
 371 153 371 153 380 210 c 2,54,-1
 395 305 l 1,55,-1
 335 305 l 2,56,57
 199 305 199 305 119.5 262.5 c 128,-1,58
 40 220 40 220 27 140 c 0,59,60
 18 81 18 81 51 45.5 c 128,-1,61
 84 10 84 10 150 10 c 0,62,51
 206 10 206 10 255.5 36 c 128,-1,52
EndSplineSet
EndChar

StartChar: aringacute
Encoding: 507 507 224
Width: 480
GlyphClass: 2
Flags: W
AnchorPoint: "Anchor-6" 197 710 basechar 0
AnchorPoint: "Anchor-5" 393 0 basechar 0
AnchorPoint: "Anchor-4" 197 0 basechar 0
LayerCount: 2
Fore
SplineSet
406 479.5 m 128,-1,1
 434 433 434 433 417 330 c 2,2,-1
 365 0 l 1,3,-1
 346 0 l 1,4,-1
 365 116 l 1,5,-1
 363 116 l 1,6,7
 328 58 328 58 270.5 24 c 128,-1,8
 213 -10 213 -10 147 -10 c 0,9,10
 74 -10 74 -10 35.5 31 c 128,-1,11
 -3 72 -3 72 8 140 c 0,12,13
 22 229 22 229 108 277 c 128,-1,14
 194 325 194 325 338 325 c 2,15,-1
 398 325 l 1,16,-1
 399 330 l 2,17,18
 410 397 410 397 401 436 c 128,-1,19
 392 475 392 475 362.5 492.5 c 128,-1,20
 333 510 333 510 277 510 c 0,21,22
 179 510 179 510 86 462 c 1,23,-1
 81 480 l 1,24,25
 158 519 158 519 239 528 c 1,26,27
 201 537 201 537 180 571 c 128,-1,28
 159 605 159 605 166 650 c 0,29,30
 171 682 171 682 189.5 709 c 128,-1,31
 208 736 208 736 234 754 c 1,32,-1
 380 960 l 1,33,-1
 402 960 l 1,34,-1
 267 769 l 1,35,36
 285 775 285 775 304 775 c 0,37,38
 353 775 353 775 382 738.5 c 128,-1,39
 411 702 411 702 403 650 c 0,40,41
 396 607 396 607 366.5 574 c 128,-1,42
 337 541 337 541 297 530 c 1,43,0
 378 526 378 526 406 479.5 c 128,-1,1
202.5 576 m 128,-1,45
 227 545 227 545 268 545 c 0,46,47
 310 545 310 545 343.5 576 c 128,-1,48
 377 607 377 607 384 650 c 0,49,50
 391 694 391 694 367 724.5 c 128,-1,51
 343 755 343 755 301 755 c 0,52,53
 260 755 260 755 225.5 724.5 c 128,-1,54
 191 694 191 694 184 650 c 0,55,44
 178 607 178 607 202.5 576 c 128,-1,45
255.5 36 m 128,-1,57
 305 62 305 62 338 107.5 c 128,-1,58
 371 153 371 153 380 210 c 2,59,-1
 395 305 l 1,60,-1
 335 305 l 2,61,62
 199 305 199 305 119.5 262.5 c 128,-1,63
 40 220 40 220 27 140 c 0,64,65
 18 81 18 81 51 45.5 c 128,-1,66
 84 10 84 10 150 10 c 0,67,56
 206 10 206 10 255.5 36 c 128,-1,57
EndSplineSet
EndChar

StartChar: ae
Encoding: 230 230 226
Width: 846
GlyphClass: 2
Flags: W
AnchorPoint: "Anchor-6" 407 520 basechar 0
AnchorPoint: "Anchor-4" 407 0 basechar 0
LayerCount: 2
Fore
SplineSet
805 258 m 1,0,-1
 406 258 l 1,1,2
 388 138 388 138 432 74 c 128,-1,3
 476 10 476 10 576 10 c 0,4,5
 619 10 619 10 662.5 21.5 c 128,-1,6
 706 33 706 33 744 53 c 1,7,-1
 751 36 l 1,8,9
 711 14 711 14 665 2 c 128,-1,10
 619 -10 619 -10 573 -10 c 0,11,12
 489 -10 489 -10 441 32 c 128,-1,13
 393 74 393 74 383 154 c 1,14,15
 354 81 354 81 289.5 35.5 c 128,-1,16
 225 -10 225 -10 147 -10 c 0,17,18
 74 -10 74 -10 35.5 31 c 128,-1,19
 -3 72 -3 72 8 140 c 0,20,21
 22 229 22 229 108 277 c 128,-1,22
 194 325 194 325 338 325 c 2,23,-1
 398 325 l 1,24,-1
 399 330 l 2,25,26
 410 397 410 397 401.5 436 c 128,-1,27
 393 475 393 475 363 492.5 c 128,-1,28
 333 510 333 510 277 510 c 0,29,30
 179 510 179 510 86 462 c 1,31,-1
 81 480 l 1,32,33
 179 530 179 530 280 530 c 0,34,35
 360 530 360 530 393.5 495.5 c 128,-1,36
 427 461 427 461 423 383 c 1,37,38
 456 455 456 455 511.5 492.5 c 128,-1,39
 567 530 567 530 639 530 c 0,40,41
 739 530 739 530 782.5 459.5 c 128,-1,42
 826 389 826 389 806 260 c 2,43,-1
 805 258 l 1,0,-1
490 450.5 m 128,-1,45
 431 391 431 391 410 278 c 1,46,-1
 790 278 l 1,47,48
 804 391 804 391 764 450.5 c 128,-1,49
 724 510 724 510 636 510 c 256,50,44
 549 510 549 510 490 450.5 c 128,-1,45
395 305 m 1,51,-1
 335 305 l 2,52,53
 199 305 199 305 119.5 262.5 c 128,-1,54
 40 220 40 220 27 140 c 0,55,56
 18 81 18 81 51 45.5 c 128,-1,57
 84 10 84 10 150 10 c 0,58,59
 206 10 206 10 255.5 36 c 128,-1,60
 305 62 305 62 338 107.5 c 128,-1,61
 371 153 371 153 380 210 c 2,62,-1
 395 305 l 1,51,-1
EndSplineSet
EndChar

StartChar: b
Encoding: 98 98 228
Width: 518
Flags: W
LayerCount: 2
Fore
SplineSet
450.5 458 m 128,-1,1
 492 386 492 386 472 260 c 256,2,3
 452 134 452 134 387.5 62 c 128,-1,4
 323 -10 323 -10 230 -10 c 0,5,6
 167 -10 167 -10 126 24.5 c 128,-1,7
 85 59 85 59 72 120 c 1,8,-1
 70 120 l 1,9,-1
 51 0 l 1,10,-1
 32 0 l 1,11,-1
 151 750 l 1,12,-1
 170 750 l 1,13,-1
 115 400 l 1,14,-1
 116 400 l 1,15,16
 148 461 148 461 200.5 495.5 c 128,-1,17
 253 530 253 530 315 530 c 0,18,0
 409 530 409 530 450.5 458 c 128,-1,1
376.5 76.5 m 128,-1,20
 435 143 435 143 453 260 c 256,21,22
 472 377 472 377 434.5 443.5 c 128,-1,23
 397 510 397 510 312 510 c 0,24,25
 230 510 230 510 171.5 449 c 128,-1,26
 113 388 113 388 96 285 c 2,27,-1
 88 235 l 2,28,29
 72 132 72 132 112 71 c 128,-1,30
 152 10 152 10 233 10 c 0,31,19
 318 10 318 10 376.5 76.5 c 128,-1,20
EndSplineSet
EndChar

StartChar: c
Encoding: 99 99 229
Width: 479
GlyphClass: 2
Flags: W
AnchorPoint: "Anchor-6" 223 520 basechar 0
AnchorPoint: "Anchor-4" 223 0 basechar 0
LayerCount: 2
Fore
SplineSet
109.5 23 m 128,-1,1
 61 56 61 56 41.5 117 c 128,-1,2
 22 178 22 178 35 260 c 256,3,4
 48 342 48 342 87 403 c 128,-1,5
 126 464 126 464 184.5 497 c 128,-1,6
 243 530 243 530 315 530 c 0,7,8
 384 530 384 530 443 495 c 1,9,-1
 431 477 l 1,10,11
 376 510 376 510 312 510 c 0,12,13
 210 510 210 510 141 443 c 128,-1,14
 72 376 72 376 54 260 c 256,15,16
 36 144 36 144 83.5 77 c 128,-1,17
 131 10 131 10 233 10 c 0,18,19
 298 10 298 10 363 43 c 1,20,-1
 368 25 l 1,21,22
 299 -10 299 -10 230 -10 c 0,23,0
 158 -10 158 -10 109.5 23 c 128,-1,1
EndSplineSet
EndChar

StartChar: ccedilla
Encoding: 231 231 232
Width: 479
GlyphClass: 2
Flags: W
AnchorPoint: "Anchor-6" 223 520 basechar 0
AnchorPoint: "Anchor-4" 223 0 basechar 0
LayerCount: 2
Fore
SplineSet
368 25 m 1,0,1
 300 -10 300 -10 232 -10 c 1,2,3
 307 -70 307 -70 296 -136 c 0,4,5
 291 -169 291 -169 261 -195 c 128,-1,6
 231 -221 231 -221 161 -221 c 0,7,8
 108 -221 108 -221 69 -200 c 1,9,-1
 79 -182 l 1,10,11
 115 -201 115 -201 164 -201 c 0,12,13
 207 -201 207 -201 239 -187 c 128,-1,14
 271 -173 271 -173 277 -136 c 0,15,16
 287 -72 287 -72 193 -8 c 1,17,18
 101 5 101 5 59 76 c 128,-1,19
 17 147 17 147 35 260 c 0,20,21
 48 342 48 342 87 403 c 128,-1,22
 126 464 126 464 184.5 497 c 128,-1,23
 243 530 243 530 315 530 c 0,24,25
 384 530 384 530 443 495 c 1,26,-1
 431 477 l 1,27,28
 376 510 376 510 312 510 c 0,29,30
 210 510 210 510 141 443 c 128,-1,31
 72 376 72 376 54 260 c 256,32,33
 36 144 36 144 83.5 77 c 128,-1,34
 131 10 131 10 233 10 c 0,35,36
 298 10 298 10 362 43 c 1,37,-1
 368 25 l 1,0,1
EndSplineSet
EndChar

StartChar: d
Encoding: 100 100 235
Width: 518
Flags: W
LayerCount: 2
Fore
SplineSet
515 750 m 1,0,-1
 396 0 l 1,1,-1
 378 0 l 1,2,-1
 397 120 l 1,3,-1
 395 120 l 1,4,5
 363 59 363 59 310.5 24.5 c 128,-1,6
 258 -10 258 -10 196 -10 c 0,7,8
 103 -10 103 -10 61 62 c 128,-1,9
 19 134 19 134 39 260 c 256,10,11
 59 386 59 386 123.5 458 c 128,-1,12
 188 530 188 530 281 530 c 0,13,14
 344 530 344 530 385 495.5 c 128,-1,15
 426 461 426 461 439 400 c 1,16,-1
 441 400 l 1,17,-1
 496 750 l 1,18,-1
 515 750 l 1,0,-1
339 71 m 128,-1,20
 398 132 398 132 415 235 c 2,21,-1
 423 285 l 2,22,23
 439 388 439 388 399.5 449 c 128,-1,24
 360 510 360 510 278 510 c 0,25,26
 193 510 193 510 134.5 443.5 c 128,-1,27
 76 377 76 377 58 260 c 256,28,29
 39 143 39 143 76.5 76.5 c 128,-1,30
 114 10 114 10 199 10 c 0,31,19
 280 10 280 10 339 71 c 128,-1,20
EndSplineSet
EndChar

StartChar: eth
Encoding: 240 240 236
Width: 538
Flags: W
LayerCount: 2
Fore
SplineSet
400 626 m 1,0,1
 449 537 449 537 470.5 431.5 c 128,-1,2
 492 326 492 326 477 235 c 0,3,4
 459 122 459 122 389 56 c 128,-1,5
 319 -10 319 -10 216 -10 c 256,6,7
 113 -10 113 -10 63 56 c 128,-1,8
 13 122 13 122 31 235 c 256,9,10
 49 348 49 348 119.5 414 c 128,-1,11
 190 480 190 480 293 480 c 0,12,13
 350 480 350 480 391 459 c 128,-1,14
 432 438 432 438 455 398 c 1,15,-1
 457 399 l 1,16,17
 438 516 438 516 381 619 c 1,18,-1
 135 522 l 1,19,-1
 130 540 l 1,20,-1
 372 635 l 1,21,22
 306 745 306 745 230 772 c 1,23,-1
 240 790 l 1,24,25
 281 775 281 775 319.5 736 c 128,-1,26
 358 697 358 697 390 642 c 1,27,-1
 575 715 l 1,28,-1
 580 697 l 1,29,-1
 400 626 l 1,0,1
378 70 m 128,-1,31
 442 130 442 130 459 235 c 256,32,33
 476 340 476 340 430.5 400 c 128,-1,34
 385 460 385 460 290 460 c 256,35,36
 195 460 195 460 131 400 c 128,-1,37
 67 340 67 340 50 235 c 256,38,39
 33 130 33 130 78.5 70 c 128,-1,40
 124 10 124 10 219 10 c 256,41,30
 314 10 314 10 378 70 c 128,-1,31
EndSplineSet
EndChar

StartChar: dcroat
Encoding: 273 273 238
Width: 582
Flags: W
LayerCount: 2
Fore
SplineSet
608 615 m 1,0,-1
 494 615 l 1,1,-1
 396 0 l 1,2,-1
 378 0 l 1,3,-1
 397 120 l 1,4,-1
 395 120 l 1,5,6
 363 59 363 59 310.5 24.5 c 128,-1,7
 258 -10 258 -10 196 -10 c 0,8,9
 103 -10 103 -10 61 62 c 128,-1,10
 19 134 19 134 39 260 c 256,11,12
 59 386 59 386 123.5 458 c 128,-1,13
 188 530 188 530 281 530 c 0,14,15
 344 530 344 530 385 495.5 c 128,-1,16
 426 461 426 461 439 400 c 1,17,-1
 441 400 l 1,18,-1
 475 615 l 1,19,-1
 209 615 l 1,20,-1
 212 635 l 1,21,-1
 478 635 l 1,22,-1
 496 750 l 1,23,-1
 515 750 l 1,24,-1
 497 635 l 1,25,-1
 611 635 l 1,26,-1
 608 615 l 1,0,-1
339 71 m 128,-1,28
 398 132 398 132 415 235 c 2,29,-1
 423 285 l 2,30,31
 439 388 439 388 399.5 449 c 128,-1,32
 360 510 360 510 278 510 c 0,33,34
 193 510 193 510 134.5 443.5 c 128,-1,35
 76 377 76 377 58 260 c 256,36,37
 39 143 39 143 76.5 76.5 c 128,-1,38
 114 10 114 10 199 10 c 0,39,27
 280 10 280 10 339 71 c 128,-1,28
EndSplineSet
EndChar

StartChar: e
Encoding: 101 101 240
Width: 494
GlyphClass: 2
Flags: W
AnchorPoint: "Anchor-6" 222 520 basechar 0
AnchorPoint: "Anchor-5" 422 36 basechar 0
AnchorPoint: "Anchor-4" 222 0 basechar 0
LayerCount: 2
Fore
SplineSet
453 258 m 1,0,-1
 54 258 l 1,1,2
 36 137 36 137 81 73.5 c 128,-1,3
 126 10 126 10 228 10 c 0,4,5
 312 10 312 10 392 48 c 1,6,-1
 398 30 l 1,7,8
 313 -10 313 -10 225 -10 c 0,9,10
 113 -10 113 -10 64 60 c 128,-1,11
 15 130 15 130 35 260 c 0,12,13
 55 389 55 389 121 459.5 c 128,-1,14
 187 530 187 530 287 530 c 256,15,16
 387 530 387 530 430 459.5 c 128,-1,17
 473 389 473 389 453 260 c 2,18,-1
 453 258 l 1,0,-1
137.5 450.5 m 128,-1,20
 79 391 79 391 57 278 c 1,21,-1
 437 278 l 1,22,23
 451 391 451 391 411 450.5 c 128,-1,24
 371 510 371 510 284 510 c 256,25,19
 196 510 196 510 137.5 450.5 c 128,-1,20
EndSplineSet
EndChar

StartChar: eogonek
Encoding: 281 281 258
Width: 496
GlyphClass: 2
Flags: W
AnchorPoint: "Anchor-6" 222 520 basechar 0
AnchorPoint: "Anchor-5" 422 36 basechar 0
AnchorPoint: "Anchor-4" 222 0 basechar 0
LayerCount: 2
Fore
SplineSet
449 -163 m 1,0,1
 403 -184 403 -184 350 -184 c 0,2,3
 280 -184 280 -184 258.5 -158 c 128,-1,4
 237 -132 237 -132 242 -99 c 0,5,6
 250 -48 250 -48 308 0 c 1,7,8
 268 -10 268 -10 225 -10 c 0,9,10
 113 -10 113 -10 64 60 c 128,-1,11
 15 130 15 130 35 260 c 0,12,13
 55 389 55 389 121 459.5 c 128,-1,14
 187 530 187 530 287 530 c 256,15,16
 387 530 387 530 430 459.5 c 128,-1,17
 473 389 473 389 453 260 c 2,18,-1
 452 258 l 1,19,-1
 54 258 l 1,20,21
 36 137 36 137 81 73.5 c 128,-1,22
 126 10 126 10 228 10 c 0,23,24
 294 10 294 10 357 34 c 1,25,-1
 381 47 l 1,26,-1
 385 45 l 1,27,-1
 392 48 l 1,28,-1
 395 38 l 1,29,-1
 398 36 l 1,30,-1
 396 35 l 1,31,-1
 397 30 l 1,32,-1
 362 15 l 1,33,34
 270 -41 270 -41 261 -99 c 0,35,36
 255 -136 255 -136 283 -150 c 128,-1,37
 311 -164 311 -164 353 -164 c 0,38,39
 402 -164 402 -164 445 -145 c 1,40,-1
 449 -163 l 1,0,1
137.5 450.5 m 128,-1,42
 79 391 79 391 57 278 c 1,43,-1
 437 278 l 1,44,45
 451 391 451 391 411 450.5 c 128,-1,46
 371 510 371 510 284 510 c 256,47,41
 196 510 196 510 137.5 450.5 c 128,-1,42
EndSplineSet
EndChar

StartChar: uni0259
Encoding: 601 601 260
Width: 494
GlyphClass: 2
Flags: W
AnchorPoint: "Anchor-6" 218 520 basechar 0
AnchorPoint: "Anchor-5" 16 484 basechar 0
AnchorPoint: "Anchor-4" 218 0 basechar 0
LayerCount: 2
Fore
SplineSet
422.5 460 m 128,-1,1
 472 390 472 390 451 260 c 0,2,3
 431 131 431 131 365 60.5 c 128,-1,4
 299 -10 299 -10 200 -10 c 256,5,6
 100 -10 100 -10 56.5 60.5 c 128,-1,7
 13 131 13 131 33 260 c 2,8,-1
 34 262 l 1,9,-1
 433 262 l 1,10,11
 451 383 451 383 406 446.5 c 128,-1,12
 361 510 361 510 258 510 c 0,13,14
 174 510 174 510 94 472 c 1,15,-1
 89 490 l 1,16,17
 174 530 174 530 261 530 c 0,18,0
 373 530 373 530 422.5 460 c 128,-1,1
349 69.5 m 128,-1,20
 408 129 408 129 429 242 c 1,21,-1
 49 242 l 1,22,23
 35 129 35 129 75 69.5 c 128,-1,24
 115 10 115 10 203 10 c 256,25,19
 290 10 290 10 349 69.5 c 128,-1,20
EndSplineSet
EndChar

StartChar: f
Encoding: 102 102 261
Width: 386
Flags: W
LayerCount: 2
Fore
SplineSet
58 500 m 1,0,-1
 61 520 l 1,1,-1
 208 520 l 1,2,-1
 223 610 l 2,3,4
 235 686 235 686 270.5 723 c 128,-1,5
 306 760 306 760 368 760 c 0,6,7
 403 760 403 760 436 745 c 1,8,-1
 425 726 l 1,9,10
 397 740 397 740 365 740 c 0,11,12
 312 740 312 740 282 709 c 128,-1,13
 252 678 252 678 241 610 c 2,14,-1
 227 520 l 1,15,-1
 398 520 l 1,16,-1
 395 500 l 1,17,-1
 224 500 l 1,18,-1
 145 0 l 1,19,-1
 126 0 l 1,20,-1
 205 500 l 1,21,-1
 58 500 l 1,0,-1
EndSplineSet
EndChar

StartChar: g
Encoding: 103 103 262
Width: 518
GlyphClass: 2
Flags: W
AnchorPoint: "Anchor-6" 228 520 basechar 0
AnchorPoint: "Anchor-4" 228 -140 basechar 0
LayerCount: 2
Fore
SplineSet
479 520 m 1,0,-1
 401 30 l 2,1,2
 380 -103 380 -103 317 -166.5 c 128,-1,3
 254 -230 254 -230 143 -230 c 0,4,5
 52 -230 52 -230 -19 -188 c 1,6,-1
 -8 -170 l 1,7,8
 58 -210 58 -210 146 -210 c 0,9,10
 249 -210 249 -210 306 -152 c 128,-1,11
 363 -94 363 -94 382 30 c 2,12,-1
 397 120 l 1,13,-1
 395 120 l 1,14,15
 363 59 363 59 310.5 24.5 c 128,-1,16
 258 -10 258 -10 196 -10 c 0,17,18
 103 -10 103 -10 61 62 c 128,-1,19
 19 134 19 134 39 260 c 256,20,21
 59 386 59 386 123.5 458 c 128,-1,22
 188 530 188 530 281 530 c 0,23,24
 344 530 344 530 385 495.5 c 128,-1,25
 426 461 426 461 439 400 c 1,26,-1
 441 400 l 1,27,-1
 460 520 l 1,28,-1
 479 520 l 1,0,-1
339 71 m 128,-1,30
 398 132 398 132 415 235 c 2,31,-1
 423 285 l 2,32,33
 439 388 439 388 399.5 449 c 128,-1,34
 360 510 360 510 278 510 c 0,35,36
 193 510 193 510 134.5 443.5 c 128,-1,37
 76 377 76 377 58 260 c 256,38,39
 39 143 39 143 76.5 76.5 c 128,-1,40
 114 10 114 10 199 10 c 0,41,29
 280 10 280 10 339 71 c 128,-1,30
EndSplineSet
EndChar

StartChar: h
Encoding: 104 104 268
Width: 527
GlyphClass: 2
Flags: W
AnchorPoint: "Anchor-6" 228 750 basechar 0
AnchorPoint: "Anchor-4" 228 0 basechar 0
LayerCount: 2
Fore
SplineSet
447 476 m 128,-1,1
 479 422 479 422 463 320 c 2,2,-1
 412 0 l 1,3,-1
 393 0 l 1,4,-1
 444 320 l 2,5,6
 459 414 459 414 431.5 462 c 128,-1,7
 404 510 404 510 335 510 c 0,8,9
 280 510 280 510 229 480.5 c 128,-1,10
 178 451 178 451 142.5 400.5 c 128,-1,11
 107 350 107 350 97 290 c 2,12,-1
 51 0 l 1,13,-1
 32 0 l 1,14,-1
 151 750 l 1,15,-1
 170 750 l 1,16,-1
 113 388 l 1,17,-1
 115 388 l 1,18,19
 152 452 152 452 212 491 c 128,-1,20
 272 530 272 530 338 530 c 0,21,0
 415 530 415 530 447 476 c 128,-1,1
EndSplineSet
EndChar

StartChar: hbar
Encoding: 295 295 269
Width: 590
GlyphClass: 2
Flags: W
AnchorPoint: "Anchor-6" 293 750 basechar 0
AnchorPoint: "Anchor-4" 293 0 basechar 0
LayerCount: 2
Fore
SplineSet
511 476 m 128,-1,1
 543 422 543 422 527 320 c 2,2,-1
 476 0 l 1,3,-1
 457 0 l 1,4,-1
 508 320 l 2,5,6
 523 414 523 414 495.5 462 c 128,-1,7
 468 510 468 510 399 510 c 0,8,9
 344 510 344 510 293 480.5 c 128,-1,10
 242 451 242 451 206.5 400.5 c 128,-1,11
 171 350 171 350 161 290 c 2,12,-1
 115 0 l 1,13,-1
 96 0 l 1,14,-1
 194 615 l 1,15,-1
 80 615 l 1,16,-1
 83 635 l 1,17,-1
 197 635 l 1,18,-1
 215 750 l 1,19,-1
 234 750 l 1,20,-1
 216 635 l 1,21,-1
 482 635 l 1,22,-1
 479 615 l 1,23,-1
 213 615 l 1,24,-1
 177 388 l 1,25,-1
 178 388 l 1,26,27
 215 452 215 452 275.5 491 c 128,-1,28
 336 530 336 530 402 530 c 0,29,0
 479 530 479 530 511 476 c 128,-1,1
EndSplineSet
EndChar

StartChar: i
Encoding: 105 105 271
Width: 227
GlyphClass: 2
Flags: W
AnchorPoint: "Anchor-6" 79 520 basechar 0
AnchorPoint: "Anchor-5" 89 0 basechar 0
AnchorPoint: "Anchor-4" 79 0 basechar 0
LayerCount: 2
Fore
SplineSet
156 730 m 1,0,-1
 213 730 l 1,1,-1
 203 670 l 1,2,-1
 147 670 l 1,3,-1
 156 730 l 1,0,-1
142 520 m 1,4,-1
 161 520 l 1,5,-1
 78 0 l 1,6,-1
 59 0 l 1,7,-1
 142 520 l 1,4,-1
EndSplineSet
Substitution2: "Single Substitution lookup 19 subtable" dotlessi
Substitution2: "'locl' Localized Forms in Latin lookup 3 subtable" i.loclTRK
Substitution2: "'aalt' Access All Alternates in Latin lookup 0 subtable" i.loclTRK
EndChar

StartChar: dotlessi
Encoding: 305 305 272
Width: 189
GlyphClass: 2
Flags: W
AnchorPoint: "Anchor-6" 59 520 basechar 0
AnchorPoint: "Anchor-5" 69 0 basechar 0
AnchorPoint: "Anchor-4" 59 0 basechar 0
LayerCount: 2
Fore
SplineSet
123 520 m 1,0,-1
 142 520 l 1,1,-1
 59 0 l 1,2,-1
 41 0 l 1,3,-1
 123 520 l 1,0,-1
EndSplineSet
EndChar

StartChar: iogonek
Encoding: 303 303 284
Width: 197
GlyphClass: 2
Flags: W
AnchorPoint: "Anchor-6" 60 695 basechar 0
AnchorPoint: "Anchor-5" 70 0 basechar 0
AnchorPoint: "Anchor-4" 60 0 basechar 0
LayerCount: 2
Fore
SplineSet
193 695 m 1,0,-1
 183 635 l 1,1,-1
 127 635 l 1,2,-1
 136 695 l 1,3,-1
 193 695 l 1,0,-1
115 -199 m 1,4,5
 69 -220 69 -220 16 -220 c 0,6,7
 -54 -220 -54 -220 -75.5 -194 c 128,-1,8
 -97 -168 -97 -168 -92 -135 c 0,9,10
 -86 -96 -86 -96 -49.5 -58.5 c 128,-1,11
 -13 -21 -13 -21 47 11 c 1,12,-1
 127 520 l 1,13,-1
 146 520 l 1,14,-1
 64 0 l 1,15,16
 3 -32 3 -32 -32.5 -66.5 c 128,-1,17
 -68 -101 -68 -101 -73 -135 c 0,18,19
 -79 -172 -79 -172 -51.5 -186 c 128,-1,20
 -24 -200 -24 -200 19 -200 c 0,21,22
 68 -200 68 -200 110 -181 c 1,23,-1
 115 -199 l 1,4,5
EndSplineSet
EndChar

StartChar: j
Encoding: 106 106 286
Width: 281
GlyphClass: 2
Flags: W
AnchorPoint: "Anchor-6" 95 520 basechar 0
AnchorPoint: "Anchor-4" 95 -140 basechar 0
LayerCount: 2
Fore
SplineSet
210 730 m 1,0,-1
 267 730 l 1,1,-1
 257 670 l 1,2,-1
 201 670 l 1,3,-1
 210 730 l 1,0,-1
0 -192.5 m 128,-1,5
 50 -175 50 -175 75 -131.5 c 128,-1,6
 100 -88 100 -88 113 0 c 2,7,-1
 196 520 l 1,8,-1
 215 520 l 1,9,-1
 132 0 l 2,10,11
 117 -93 117 -93 88.5 -141.5 c 128,-1,12
 60 -190 60 -190 6 -210 c 128,-1,13
 -48 -230 -48 -230 -146 -230 c 1,14,-1
 -143 -210 l 1,15,4
 -50 -210 -50 -210 0 -192.5 c 128,-1,5
EndSplineSet
Substitution2: "Single Substitution lookup 19 subtable" uni0237
EndChar

StartChar: uni0237
Encoding: 567 567 287
Width: 262
GlyphClass: 2
Flags: W
AnchorPoint: "Anchor-6" 95 520 basechar 0
AnchorPoint: "Anchor-4" 95 -140 basechar 0
LayerCount: 2
Fore
SplineSet
0 -192.5 m 128,-1,1
 50 -175 50 -175 75 -131.5 c 128,-1,2
 100 -88 100 -88 114 0 c 2,3,-1
 196 520 l 1,4,-1
 215 520 l 1,5,-1
 132 0 l 2,6,7
 117 -93 117 -93 89 -141.5 c 128,-1,8
 61 -190 61 -190 6.5 -210 c 128,-1,9
 -48 -230 -48 -230 -146 -230 c 1,10,-1
 -143 -210 l 1,11,0
 -50 -210 -50 -210 0 -192.5 c 128,-1,1
EndSplineSet
EndChar

StartChar: k
Encoding: 107 107 289
Width: 486
GlyphClass: 2
Flags: W
AnchorPoint: "Anchor-6" 177 750 basechar 0
AnchorPoint: "Anchor-4" 177 0 basechar 0
LayerCount: 2
Fore
SplineSet
151 750 m 1,0,-1
 170 750 l 1,1,-1
 95 277 l 1,2,-1
 97 277 l 1,3,-1
 438 520 l 1,4,-1
 470 520 l 1,5,-1
 117 270 l 1,6,-1
 403 0 l 1,7,-1
 371 0 l 1,8,-1
 95 263 l 1,9,-1
 93 263 l 1,10,-1
 51 0 l 1,11,-1
 32 0 l 1,12,-1
 151 750 l 1,0,-1
EndSplineSet
EndChar

StartChar: kgreenlandic
Encoding: 312 312 291
Width: 486
GlyphClass: 2
Flags: W
AnchorPoint: "Anchor-6" 177 520 basechar 0
AnchorPoint: "Anchor-4" 177 0 basechar 0
LayerCount: 2
Fore
SplineSet
115 520 m 1,0,-1
 134 520 l 1,1,-1
 95 277 l 1,2,-1
 97 277 l 1,3,-1
 438 520 l 1,4,-1
 470 520 l 1,5,-1
 117 270 l 1,6,-1
 403 0 l 1,7,-1
 371 0 l 1,8,-1
 95 263 l 1,9,-1
 93 263 l 1,10,-1
 51 0 l 1,11,-1
 32 0 l 1,12,-1
 115 520 l 1,0,-1
EndSplineSet
EndChar

StartChar: l
Encoding: 108 108 292
Width: 189
GlyphClass: 2
Flags: W
AnchorPoint: "Anchor-7" 143 750 basechar 0
AnchorPoint: "Anchor-6" 59 750 basechar 0
AnchorPoint: "Anchor-4" 59 0 basechar 0
LayerCount: 2
Fore
SplineSet
159 750 m 1,0,-1
 178 750 l 1,1,-1
 59 0 l 1,2,-1
 41 0 l 1,3,-1
 159 750 l 1,0,-1
EndSplineSet
EndChar

StartChar: lslash
Encoding: 322 322 298
Width: 353
GlyphClass: 2
Flags: W
AnchorPoint: "Anchor-7" 229 750 basechar 0
AnchorPoint: "Anchor-6" 144 750 basechar 0
AnchorPoint: "Anchor-4" 144 0 basechar 0
LayerCount: 2
Fore
SplineSet
361 431 m 1,0,-1
 198 359 l 1,1,-1
 141 0 l 1,2,-1
 122 0 l 1,3,-1
 178 350 l 1,4,-1
 23 281 l 1,5,-1
 19 299 l 1,6,-1
 181 371 l 1,7,-1
 241 750 l 1,8,-1
 260 750 l 1,9,-1
 201 380 l 1,10,-1
 356 449 l 1,11,-1
 361 431 l 1,0,-1
EndSplineSet
EndChar

StartChar: m
Encoding: 109 109 299
Width: 735
Flags: W
CounterMasks: 1 1c
LayerCount: 2
Fore
SplineSet
664.5 476.5 m 128,-1,1
 688 423 688 423 671 320 c 2,2,-1
 621 0 l 1,3,-1
 602 0 l 1,4,-1
 653 320 l 2,5,6
 683 510 683 510 575 510 c 0,7,8
 533 510 533 510 492.5 483.5 c 128,-1,9
 452 457 452 457 423 412.5 c 128,-1,10
 394 368 394 368 386 318 c 2,11,-1
 336 0 l 1,12,-1
 317 0 l 1,13,-1
 368 320 l 2,14,15
 398 510 398 510 291 510 c 0,16,17
 247 510 247 510 206 480.5 c 128,-1,18
 165 451 165 451 136 400.5 c 128,-1,19
 107 350 107 350 97 290 c 2,20,-1
 51 0 l 1,21,-1
 32 0 l 1,22,-1
 115 520 l 1,23,-1
 134 520 l 1,24,-1
 114 399 l 1,25,-1
 116 399 l 1,26,27
 148 459 148 459 195 494.5 c 128,-1,28
 242 530 242 530 293 530 c 0,29,30
 343 530 343 530 368 497 c 128,-1,31
 393 464 393 464 394 399 c 1,32,-1
 395 399 l 1,33,34
 426 456 426 456 476.5 493 c 128,-1,35
 527 530 527 530 578 530 c 0,36,0
 641 530 641 530 664.5 476.5 c 128,-1,1
EndSplineSet
EndChar

StartChar: n
Encoding: 110 110 300
Width: 527
GlyphClass: 2
Flags: W
AnchorPoint: "Anchor-6" 239 520 basechar 0
AnchorPoint: "Anchor-4" 239 0 basechar 0
LayerCount: 2
Fore
SplineSet
447 476 m 128,-1,1
 479 422 479 422 463 320 c 2,2,-1
 412 0 l 1,3,-1
 393 0 l 1,4,-1
 444 320 l 2,5,6
 474 510 474 510 335 510 c 0,7,8
 279 510 279 510 228 480.5 c 128,-1,9
 177 451 177 451 142 400.5 c 128,-1,10
 107 350 107 350 97 290 c 2,11,-1
 51 0 l 1,12,-1
 32 0 l 1,13,-1
 115 520 l 1,14,-1
 134 520 l 1,15,-1
 113 388 l 1,16,-1
 115 388 l 1,17,18
 151 452 151 452 211.5 491 c 128,-1,19
 272 530 272 530 338 530 c 0,20,0
 415 530 415 530 447 476 c 128,-1,1
EndSplineSet
EndChar

StartChar: eng
Encoding: 331 331 304
Width: 527
GlyphClass: 2
Flags: W
AnchorPoint: "Anchor-6" 239 520 basechar 0
AnchorPoint: "Anchor-4" 239 0 basechar 0
LayerCount: 2
Fore
SplineSet
447 476 m 128,-1,1
 479 422 479 422 463 320 c 2,2,-1
 402 -61 l 2,3,4
 390 -138 390 -138 352.5 -174.5 c 128,-1,5
 315 -211 315 -211 246 -211 c 0,6,7
 208 -211 208 -211 172 -196 c 1,8,-1
 182 -177 l 1,9,10
 212 -191 212 -191 249 -191 c 0,11,12
 310 -191 310 -191 341.5 -160.5 c 128,-1,13
 373 -130 373 -130 383 -61 c 2,14,-1
 444 320 l 2,15,16
 474 510 474 510 335 510 c 0,17,18
 279 510 279 510 228 480.5 c 128,-1,19
 177 451 177 451 142 400.5 c 128,-1,20
 107 350 107 350 97 290 c 2,21,-1
 51 0 l 1,22,-1
 32 0 l 1,23,-1
 115 520 l 1,24,-1
 134 520 l 1,25,-1
 113 388 l 1,26,-1
 115 388 l 1,27,28
 151 452 151 452 211.5 491 c 128,-1,29
 272 530 272 530 338 530 c 0,30,0
 415 530 415 530 447 476 c 128,-1,1
EndSplineSet
EndChar

StartChar: o
Encoding: 111 111 307
Width: 514
GlyphClass: 2
Flags: W
AnchorPoint: "Anchor-7" 377 480 basechar 0
AnchorPoint: "Anchor-6" 231 520 basechar 0
AnchorPoint: "Anchor-5" 278 0 basechar 0
AnchorPoint: "Anchor-4" 231 0 basechar 0
LayerCount: 2
Fore
SplineSet
62 62 m 128,-1,1
 15 134 15 134 35 260 c 256,2,3
 55 386 55 386 125 458 c 128,-1,4
 195 530 195 530 296 530 c 256,5,6
 398 530 398 530 445 458 c 128,-1,7
 492 386 492 386 472 260 c 256,8,9
 452 134 452 134 382 62 c 128,-1,10
 312 -10 312 -10 211 -10 c 256,11,0
 109 -10 109 -10 62 62 c 128,-1,1
371 76 m 128,-1,13
 434 142 434 142 453 260 c 256,14,15
 472 378 472 378 429.5 444 c 128,-1,16
 387 510 387 510 293 510 c 256,17,18
 199 510 199 510 136 444 c 128,-1,19
 73 378 73 378 54 260 c 256,20,21
 35 142 35 142 77.5 76 c 128,-1,22
 120 10 120 10 214 10 c 256,23,12
 308 10 308 10 371 76 c 128,-1,13
EndSplineSet
Substitution2: "Single Substitution lookup 21 subtable" ordmasculine
Substitution2: "'aalt' Access All Alternates in Latin lookup 0 subtable" ordmasculine
EndChar

StartChar: ohorn
Encoding: 417 417 323
Width: 526
GlyphClass: 2
Flags: W
AnchorPoint: "Anchor-7" 543 635 basechar 0
AnchorPoint: "Anchor-6" 231 520 basechar 0
AnchorPoint: "Anchor-5" 278 0 basechar 0
AnchorPoint: "Anchor-4" 231 0 basechar 0
LayerCount: 2
Fore
SplineSet
541 470.5 m 128,-1,1
 516 445 516 445 478 445 c 0,2,3
 465 445 465 445 452 448 c 1,4,5
 491 376 491 376 472 260 c 0,6,7
 452 134 452 134 382 62 c 128,-1,8
 312 -10 312 -10 211 -10 c 256,9,10
 109 -10 109 -10 62 62 c 128,-1,11
 15 134 15 134 35 260 c 256,12,13
 55 386 55 386 125 458 c 128,-1,14
 195 530 195 530 296 530 c 0,15,16
 382 530 382 530 430 478 c 1,17,18
 455 465 455 465 481 465 c 0,19,20
 543 465 543 465 555 543 c 0,21,22
 559 566 559 566 558 591.5 c 128,-1,23
 557 617 557 617 553 635 c 1,24,-1
 573 635 l 1,25,26
 580 587 580 587 574 543 c 0,27,0
 566 496 566 496 541 470.5 c 128,-1,1
371 76 m 128,-1,29
 434 142 434 142 453 260 c 256,30,31
 472 378 472 378 429.5 444 c 128,-1,32
 387 510 387 510 293 510 c 256,33,34
 199 510 199 510 136 444 c 128,-1,35
 73 378 73 378 54 260 c 256,36,37
 35 142 35 142 77.5 76 c 128,-1,38
 120 10 120 10 214 10 c 256,39,28
 308 10 308 10 371 76 c 128,-1,29
EndSplineSet
EndChar

StartChar: uni01EB
Encoding: 491 491 332
Width: 514
GlyphClass: 2
Flags: W
AnchorPoint: "Anchor-7" 377 480 basechar 0
AnchorPoint: "Anchor-6" 231 520 basechar 0
AnchorPoint: "Anchor-5" 278 0 basechar 0
AnchorPoint: "Anchor-4" 231 0 basechar 0
LayerCount: 2
Fore
SplineSet
156 -71.5 m 128,-1,1
 125 -104 125 -104 120 -135 c 0,2,3
 114 -172 114 -172 141.5 -186 c 128,-1,4
 169 -200 169 -200 212 -200 c 0,5,6
 261 -200 261 -200 303 -181 c 1,7,-1
 308 -199 l 1,8,9
 262 -220 262 -220 209 -220 c 0,10,11
 139 -220 139 -220 117.5 -194 c 128,-1,12
 96 -168 96 -168 101 -135 c 256,13,14
 106 -102 106 -102 133 -70 c 128,-1,15
 160 -38 160 -38 204 -10 c 1,16,17
 106 -8 106 -8 61 64 c 128,-1,18
 16 136 16 136 35 260 c 0,19,20
 55 386 55 386 125 458 c 128,-1,21
 195 530 195 530 296 530 c 256,22,23
 398 530 398 530 445 458 c 128,-1,24
 492 386 492 386 472 260 c 0,25,26
 454 144 454 144 392.5 73.5 c 128,-1,27
 331 3 331 3 242 -8 c 1,28,0
 187 -39 187 -39 156 -71.5 c 128,-1,1
77.5 76 m 128,-1,30
 120 10 120 10 214 10 c 256,31,32
 308 10 308 10 371 76 c 128,-1,33
 434 142 434 142 453 260 c 256,34,35
 472 378 472 378 429.5 444 c 128,-1,36
 387 510 387 510 293 510 c 256,37,38
 199 510 199 510 136 444 c 128,-1,39
 73 378 73 378 54 260 c 256,40,29
 35 142 35 142 77.5 76 c 128,-1,30
EndSplineSet
EndChar

StartChar: oslash
Encoding: 248 248 333
Width: 514
GlyphClass: 2
Flags: W
AnchorPoint: "Anchor-7" 377 480 basechar 0
AnchorPoint: "Anchor-6" 231 520 basechar 0
AnchorPoint: "Anchor-5" 278 0 basechar 0
AnchorPoint: "Anchor-4" 231 0 basechar 0
LayerCount: 2
Fore
SplineSet
472 260 m 0,1,2
 452 134 452 134 382 62 c 128,-1,3
 312 -10 312 -10 211 -10 c 0,4,5
 125 -10 125 -10 78 42 c 1,6,-1
 27 -16 l 1,7,-1
 14 -4 l 1,8,-1
 66 56 l 1,9,10
 14 129 14 129 35 260 c 0,11,12
 55 386 55 386 125 458 c 128,-1,13
 195 530 195 530 296 530 c 0,14,15
 382 530 382 530 430 478 c 1,16,-1
 480 536 l 1,17,-1
 493 524 l 1,18,-1
 441 464 l 1,19,0
 493 391 493 391 472 260 c 0,1,2
81 73 m 1,21,-1
 416 462 l 1,22,23
 372 510 372 510 293 510 c 0,24,25
 199 510 199 510 136 444 c 128,-1,26
 73 378 73 378 54 260 c 0,27,20
 35 138 35 138 81 73 c 1,21,-1
371 76 m 128,-1,29
 434 142 434 142 453 260 c 0,30,31
 472 382 472 382 427 447 c 1,32,-1
 91 58 l 1,33,34
 135 10 135 10 214 10 c 0,35,28
 308 10 308 10 371 76 c 128,-1,29
EndSplineSet
EndChar

StartChar: oe
Encoding: 339 339 337
Width: 911
Flags: W
LayerCount: 2
Fore
SplineSet
870 258 m 1,0,-1
 472 258 l 1,1,2
 454 138 454 138 498 74 c 128,-1,3
 542 10 542 10 641 10 c 0,4,5
 684 10 684 10 727.5 21.5 c 128,-1,6
 771 33 771 33 810 53 c 1,7,-1
 816 36 l 1,8,9
 776 14 776 14 730 2 c 128,-1,10
 684 -10 684 -10 638 -10 c 0,11,12
 551 -10 551 -10 502 36 c 128,-1,13
 453 82 453 82 448 168 c 1,14,15
 416 83 416 83 354 36.5 c 128,-1,16
 292 -10 292 -10 211 -10 c 0,17,18
 109 -10 109 -10 62 62 c 128,-1,19
 15 134 15 134 35 260 c 256,20,21
 55 386 55 386 125 458 c 128,-1,22
 195 530 195 530 296 530 c 0,23,24
 377 530 377 530 424 484 c 128,-1,25
 471 438 471 438 476 354 c 1,26,27
 507 439 507 439 566 484.5 c 128,-1,28
 625 530 625 530 705 530 c 0,29,30
 805 530 805 530 848 459.5 c 128,-1,31
 891 389 891 389 871 260 c 2,32,-1
 870 258 l 1,0,-1
371 76 m 128,-1,34
 434 142 434 142 453 260 c 256,35,36
 472 378 472 378 429.5 444 c 128,-1,37
 387 510 387 510 293 510 c 256,38,39
 199 510 199 510 136 444 c 128,-1,40
 73 378 73 378 54 260 c 256,41,42
 35 142 35 142 77.5 76 c 128,-1,43
 120 10 120 10 214 10 c 256,44,33
 308 10 308 10 371 76 c 128,-1,34
555 450.5 m 128,-1,46
 496 391 496 391 475 278 c 1,47,-1
 855 278 l 1,48,49
 869 391 869 391 829 450.5 c 128,-1,50
 789 510 789 510 702 510 c 256,51,45
 614 510 614 510 555 450.5 c 128,-1,46
EndSplineSet
EndChar

StartChar: p
Encoding: 112 112 338
Width: 515
Flags: W
LayerCount: 2
Fore
SplineSet
450.5 458 m 128,-1,1
 492 386 492 386 472 260 c 256,2,3
 452 134 452 134 387.5 62 c 128,-1,4
 323 -10 323 -10 230 -10 c 0,5,6
 167 -10 167 -10 126 24.5 c 128,-1,7
 85 59 85 59 72 120 c 1,8,-1
 70 120 l 1,9,-1
 16 -220 l 1,10,-1
 -2 -220 l 1,11,-1
 115 520 l 1,12,-1
 134 520 l 1,13,-1
 115 400 l 1,14,-1
 116 400 l 1,15,16
 148 461 148 461 200.5 495.5 c 128,-1,17
 253 530 253 530 315 530 c 0,18,0
 409 530 409 530 450.5 458 c 128,-1,1
376.5 76.5 m 128,-1,20
 435 143 435 143 453 260 c 256,21,22
 472 377 472 377 434.5 443.5 c 128,-1,23
 397 510 397 510 312 510 c 0,24,25
 230 510 230 510 171.5 449 c 128,-1,26
 113 388 113 388 96 285 c 2,27,-1
 88 235 l 2,28,29
 72 132 72 132 112 71 c 128,-1,30
 152 10 152 10 233 10 c 0,31,19
 318 10 318 10 376.5 76.5 c 128,-1,20
EndSplineSet
EndChar

StartChar: thorn
Encoding: 254 254 339
Width: 518
Flags: W
LayerCount: 2
Fore
SplineSet
450.5 458 m 128,-1,1
 492 386 492 386 472 260 c 256,2,3
 452 134 452 134 387.5 62 c 128,-1,4
 323 -10 323 -10 230 -10 c 0,5,6
 167 -10 167 -10 126 24.5 c 128,-1,7
 85 59 85 59 72 120 c 1,8,-1
 70 120 l 1,9,-1
 16 -220 l 1,10,-1
 -2 -220 l 1,11,-1
 151 750 l 1,12,-1
 170 750 l 1,13,-1
 115 400 l 1,14,-1
 116 400 l 1,15,16
 148 461 148 461 200.5 495.5 c 128,-1,17
 253 530 253 530 315 530 c 0,18,0
 409 530 409 530 450.5 458 c 128,-1,1
376.5 76.5 m 128,-1,20
 435 143 435 143 453 260 c 256,21,22
 472 377 472 377 434.5 443.5 c 128,-1,23
 397 510 397 510 312 510 c 0,24,25
 230 510 230 510 171.5 449 c 128,-1,26
 113 388 113 388 96 285 c 2,27,-1
 88 235 l 2,28,29
 72 132 72 132 112 71 c 128,-1,30
 152 10 152 10 233 10 c 0,31,19
 318 10 318 10 376.5 76.5 c 128,-1,20
EndSplineSet
EndChar

StartChar: q
Encoding: 113 113 340
Width: 515
Flags: W
LayerCount: 2
Fore
SplineSet
475 520 m 1,0,-1
 358 -220 l 1,1,-1
 339 -220 l 1,2,-1
 393 120 l 1,3,-1
 391 120 l 1,4,5
 359 59 359 59 307 24.5 c 128,-1,6
 255 -10 255 -10 192 -10 c 0,7,8
 99 -10 99 -10 57 62 c 128,-1,9
 15 134 15 134 35 260 c 256,10,11
 55 386 55 386 119.5 458 c 128,-1,12
 184 530 184 530 277 530 c 0,13,14
 340 530 340 530 381 495.5 c 128,-1,15
 422 461 422 461 435 400 c 1,16,-1
 437 400 l 1,17,-1
 456 520 l 1,18,-1
 475 520 l 1,0,-1
336 71 m 128,-1,20
 395 132 395 132 411 235 c 2,21,-1
 419 285 l 2,22,23
 435 388 435 388 395.5 449 c 128,-1,24
 356 510 356 510 274 510 c 0,25,26
 189 510 189 510 131 443.5 c 128,-1,27
 73 377 73 377 54 260 c 256,28,29
 35 143 35 143 72.5 76.5 c 128,-1,30
 110 10 110 10 195 10 c 0,31,19
 277 10 277 10 336 71 c 128,-1,20
EndSplineSet
EndChar

StartChar: r
Encoding: 114 114 341
Width: 349
GlyphClass: 2
Flags: W
AnchorPoint: "Anchor-6" 157 520 basechar 0
AnchorPoint: "Anchor-4" 157 0 basechar 0
LayerCount: 2
Fore
SplineSet
223 487.5 m 128,-1,1
 294 530 294 530 373 530 c 1,2,-1
 369 510 l 1,3,4
 304 510 304 510 245 479.5 c 128,-1,5
 186 449 186 449 145.5 396 c 128,-1,6
 105 343 105 343 95 280 c 2,7,-1
 51 0 l 1,8,-1
 32 0 l 1,9,-1
 115 520 l 1,10,-1
 134 520 l 1,11,-1
 111 376 l 1,12,-1
 113 376 l 1,13,0
 152 445 152 445 223 487.5 c 128,-1,1
EndSplineSet
EndChar

StartChar: s
Encoding: 115 115 347
Width: 427
GlyphClass: 2
Flags: W
AnchorPoint: "Anchor-6" 184 520 basechar 0
AnchorPoint: "Anchor-4" 184 0 basechar 0
LayerCount: 2
Fore
SplineSet
-1 31 m 1,1,-1
 11 49 l 1,2,3
 76 10 76 10 166 10 c 0,4,5
 243 10 243 10 290 41.5 c 128,-1,6
 337 73 337 73 346 130 c 0,7,8
 352 170 352 170 334.5 194.5 c 128,-1,9
 317 219 317 219 287.5 232 c 128,-1,10
 258 245 258 245 204 260 c 256,11,12
 150 275 150 275 119.5 288.5 c 128,-1,13
 89 302 89 302 69.5 329 c 128,-1,14
 50 356 50 356 57 400 c 0,15,16
 67 461 67 461 118 495.5 c 128,-1,17
 169 530 169 530 248 530 c 0,18,19
 293 530 293 530 338 520 c 128,-1,20
 383 510 383 510 408 494 c 1,21,-1
 396 476 l 1,22,23
 373 491 373 491 330.5 500.5 c 128,-1,24
 288 510 288 510 245 510 c 0,25,26
 173 510 173 510 128.5 481 c 128,-1,27
 84 452 84 452 75 400 c 0,28,29
 69 363 69 363 86 340.5 c 128,-1,30
 103 318 103 318 132 305.5 c 128,-1,31
 161 293 161 293 212 279 c 0,32,33
 266 263 266 263 299 248.5 c 128,-1,34
 332 234 332 234 352 205.5 c 128,-1,35
 372 177 372 177 365 130 c 0,36,37
 355 64 355 64 301 27 c 128,-1,38
 247 -10 247 -10 162 -10 c 0,39,0
 67 -10 67 -10 -1 31 c 1,1,-1
EndSplineSet
EndChar

StartChar: scedilla
Encoding: 351 351 350
Width: 427
GlyphClass: 2
Flags: W
AnchorPoint: "Anchor-6" 184 520 basechar 0
AnchorPoint: "Anchor-4" 184 0 basechar 0
LayerCount: 2
Fore
SplineSet
309 33.5 m 128,-1,1
 263 -3 263 -3 189 -9 c 1,2,3
 226 -38 226 -38 243.5 -70.5 c 128,-1,4
 261 -103 261 -103 255 -136 c 256,5,6
 250 -169 250 -169 220.5 -195 c 128,-1,7
 191 -221 191 -221 120 -221 c 0,8,9
 67 -221 67 -221 28 -200 c 1,10,-1
 38 -182 l 1,11,12
 74 -201 74 -201 124 -201 c 0,13,14
 167 -201 167 -201 199 -187 c 128,-1,15
 231 -173 231 -173 237 -136 c 0,16,17
 242 -104 242 -104 221 -72 c 128,-1,18
 200 -40 200 -40 156 -10 c 1,19,20
 65 -8 65 -8 -1 31 c 1,21,-1
 11 49 l 1,22,23
 76 10 76 10 166 10 c 0,24,25
 243 10 243 10 290 41.5 c 128,-1,26
 337 73 337 73 346 130 c 0,27,28
 352 170 352 170 334.5 194.5 c 128,-1,29
 317 219 317 219 287.5 232 c 128,-1,30
 258 245 258 245 204 260 c 256,31,32
 150 275 150 275 119 288.5 c 128,-1,33
 88 302 88 302 69 329 c 128,-1,34
 50 356 50 356 57 400 c 0,35,36
 67 461 67 461 118 495.5 c 128,-1,37
 169 530 169 530 248 530 c 0,38,39
 293 530 293 530 337.5 520 c 128,-1,40
 382 510 382 510 408 494 c 1,41,-1
 396 476 l 1,42,43
 373 491 373 491 330 500.5 c 128,-1,44
 287 510 287 510 245 510 c 0,45,46
 173 510 173 510 128.5 481 c 128,-1,47
 84 452 84 452 75 400 c 0,48,49
 69 363 69 363 86 340.5 c 128,-1,50
 103 318 103 318 132 305.5 c 128,-1,51
 161 293 161 293 212 279 c 0,52,53
 266 263 266 263 299 248.5 c 128,-1,54
 332 234 332 234 352 205.5 c 128,-1,55
 372 177 372 177 365 130 c 0,56,0
 355 70 355 70 309 33.5 c 128,-1,1
EndSplineSet
Substitution2: "'locl' Localized Forms in Latin lookup 4 subtable" uni0219
Substitution2: "'aalt' Access All Alternates in Latin lookup 0 subtable" uni0219
EndChar

StartChar: germandbls
Encoding: 223 223 353
Width: 535
Flags: W
LayerCount: 2
Fore
SplineSet
200.5 -3 m 128,-1,1
 160 4 160 4 122 15 c 1,2,-1
 131 35 l 1,3,4
 165 24 165 24 205 17 c 128,-1,5
 245 10 245 10 276 10 c 0,6,7
 348 10 348 10 396.5 51 c 128,-1,8
 445 92 445 92 456 160 c 0,9,10
 461 190 461 190 455 214 c 128,-1,11
 449 238 449 238 429.5 267 c 128,-1,12
 410 296 410 296 370 345 c 0,13,14
 343 377 343 377 334 392 c 128,-1,15
 325 407 325 407 327 420 c 0,16,17
 329 431 329 431 340 445 c 128,-1,18
 351 459 351 459 379 486 c 0,19,20
 435 540 435 540 457 572.5 c 128,-1,21
 479 605 479 605 485 640 c 0,22,23
 501 740 501 740 339 740 c 0,24,25
 273 740 273 740 233.5 723 c 128,-1,26
 194 706 194 706 172 666.5 c 128,-1,27
 150 627 150 627 139 555 c 2,28,-1
 51 0 l 1,29,-1
 32 0 l 1,30,-1
 120 555 l 2,31,32
 132 632 132 632 157.5 676 c 128,-1,33
 183 720 183 720 227 740 c 128,-1,34
 271 760 271 760 342 760 c 0,35,36
 430 760 430 760 471.5 729.5 c 128,-1,37
 513 699 513 699 504 640 c 0,38,39
 498 601 498 601 473.5 565 c 128,-1,40
 449 529 449 529 391 473 c 0,41,42
 364 446 364 446 355 435.5 c 128,-1,43
 346 425 346 425 345 420 c 0,44,45
 344 413 344 413 352 402 c 128,-1,46
 360 391 360 391 385 360 c 0,47,48
 427 311 427 311 448 279 c 128,-1,49
 469 247 469 247 474.5 220 c 128,-1,50
 480 193 480 193 475 160 c 0,51,52
 463 83 463 83 407 36.5 c 128,-1,53
 351 -10 351 -10 273 -10 c 0,54,0
 241 -10 241 -10 200.5 -3 c 128,-1,1
EndSplineSet
EndChar

StartChar: t
Encoding: 116 116 354
Width: 414
GlyphClass: 2
Flags: W
AnchorPoint: "Anchor-8" 206 0 basechar 0
AnchorPoint: "Anchor-7" 376 520 basechar 0
AnchorPoint: "Anchor-6" 187 520 basechar 0
AnchorPoint: "Anchor-4" 187 0 basechar 0
LayerCount: 2
Fore
SplineSet
148 23.5 m 128,-1,1
 126 57 126 57 139 140 c 2,2,-1
 196 500 l 1,3,-1
 67 500 l 1,4,-1
 70 520 l 1,5,-1
 199 520 l 1,6,-1
 229 710 l 1,7,-1
 248 710 l 1,8,-1
 218 520 l 1,9,-1
 407 520 l 1,10,-1
 404 500 l 1,11,-1
 215 500 l 1,12,-1
 158 140 l 2,13,14
 150 90 150 90 155 62 c 128,-1,15
 160 34 160 34 180 22 c 128,-1,16
 200 10 200 10 240 10 c 0,17,18
 279 10 279 10 326 24 c 1,19,-1
 328 5 l 1,20,21
 282 -10 282 -10 237 -10 c 0,22,0
 170 -10 170 -10 148 23.5 c 128,-1,1
EndSplineSet
EndChar

StartChar: tbar
Encoding: 359 359 355
Width: 397
GlyphClass: 2
Flags: W
AnchorPoint: "Anchor-8" 206 0 basechar 0
AnchorPoint: "Anchor-7" 376 520 basechar 0
AnchorPoint: "Anchor-6" 187 520 basechar 0
AnchorPoint: "Anchor-4" 187 0 basechar 0
LayerCount: 2
Fore
SplineSet
328 5 m 1,0,1
 282 -10 282 -10 237 -10 c 0,2,3
 171 -10 171 -10 148.5 23.5 c 128,-1,4
 126 57 126 57 139 140 c 2,5,-1
 155 240 l 1,6,-1
 25 240 l 1,7,-1
 28 260 l 1,8,-1
 158 260 l 1,9,-1
 196 500 l 1,10,-1
 67 500 l 1,11,-1
 70 520 l 1,12,-1
 199 520 l 1,13,-1
 229 710 l 1,14,-1
 248 710 l 1,15,-1
 218 520 l 1,16,-1
 407 520 l 1,17,-1
 404 500 l 1,18,-1
 215 500 l 1,19,-1
 177 260 l 1,20,-1
 351 260 l 1,21,-1
 348 240 l 1,22,-1
 174 240 l 1,23,-1
 158 140 l 2,24,25
 150 90 150 90 155 62 c 128,-1,26
 160 34 160 34 180 22 c 128,-1,27
 200 10 200 10 240 10 c 0,28,29
 279 10 279 10 326 24 c 1,30,-1
 328 5 l 1,0,1
EndSplineSet
EndChar

StartChar: uni0163
Encoding: 355 355 357
Width: 414
GlyphClass: 2
Flags: W
AnchorPoint: "Anchor-8" 206 0 basechar 0
AnchorPoint: "Anchor-7" 376 520 basechar 0
AnchorPoint: "Anchor-6" 187 520 basechar 0
AnchorPoint: "Anchor-4" 187 0 basechar 0
LayerCount: 2
Fore
SplineSet
291.5 -70 m 128,-1,1
 308 -102 308 -102 303 -135 c 256,2,3
 298 -168 298 -168 268.5 -194 c 128,-1,4
 239 -220 239 -220 168 -220 c 0,5,6
 115 -220 115 -220 76 -199 c 1,7,-1
 86 -181 l 1,8,9
 122 -200 122 -200 172 -200 c 0,10,11
 215 -200 215 -200 247 -186 c 128,-1,12
 279 -172 279 -172 284 -135 c 0,13,14
 289 -103 289 -103 268 -70.5 c 128,-1,15
 247 -38 247 -38 201 -7 c 1,16,17
 157 0 157 0 142.5 34.5 c 128,-1,18
 128 69 128 69 139 140 c 2,19,-1
 196 500 l 1,20,-1
 67 500 l 1,21,-1
 70 520 l 1,22,-1
 199 520 l 1,23,-1
 229 710 l 1,24,-1
 248 710 l 1,25,-1
 218 520 l 1,26,-1
 407 520 l 1,27,-1
 404 500 l 1,28,-1
 215 500 l 1,29,-1
 158 140 l 2,30,31
 150 90 150 90 155 62 c 128,-1,32
 160 34 160 34 180 22 c 128,-1,33
 200 10 200 10 240 10 c 0,34,35
 279 10 279 10 326 24 c 1,36,-1
 328 5 l 1,37,38
 283 -10 283 -10 240 -10 c 1,39,0
 275 -38 275 -38 291.5 -70 c 128,-1,1
EndSplineSet
Substitution2: "'locl' Localized Forms in Latin lookup 4 subtable" uni021B
Substitution2: "'aalt' Access All Alternates in Latin lookup 0 subtable" uni021B
EndChar

StartChar: u
Encoding: 117 117 359
Width: 517
GlyphClass: 2
Flags: W
AnchorPoint: "Anchor-7" 426 480 basechar 0
AnchorPoint: "Anchor-6" 234 520 basechar 0
AnchorPoint: "Anchor-5" 426 0 basechar 0
AnchorPoint: "Anchor-4" 234 0 basechar 0
LayerCount: 2
Fore
SplineSet
478 520 m 1,0,-1
 395 0 l 1,1,-1
 376 0 l 1,2,-1
 397 128 l 1,3,-1
 395 128 l 1,4,5
 359 65 359 65 303.5 27.5 c 128,-1,6
 248 -10 248 -10 186 -10 c 0,7,8
 110 -10 110 -10 75.5 46 c 128,-1,9
 41 102 41 102 57 200 c 2,10,-1
 107 520 l 1,11,-1
 126 520 l 1,12,-1
 76 200 l 2,13,14
 62 110 62 110 91.5 60 c 128,-1,15
 121 10 121 10 189 10 c 0,16,17
 241 10 241 10 289 39.5 c 128,-1,18
 337 69 337 69 370 119 c 128,-1,19
 403 169 403 169 413 230 c 2,20,-1
 459 520 l 1,21,-1
 478 520 l 1,0,-1
EndSplineSet
EndChar

StartChar: uhorn
Encoding: 432 432 368
Width: 541
GlyphClass: 2
Flags: W
AnchorPoint: "Anchor-7" 593 635 basechar 0
AnchorPoint: "Anchor-6" 234 520 basechar 0
AnchorPoint: "Anchor-5" 427 0 basechar 0
AnchorPoint: "Anchor-4" 234 0 basechar 0
LayerCount: 2
Fore
SplineSet
619 543 m 0,1,2
 612 496 612 496 586.5 470.5 c 128,-1,3
 561 445 561 445 523 445 c 0,4,5
 495 445 495 445 468 458 c 1,6,-1
 395 0 l 1,7,-1
 376 0 l 1,8,-1
 397 128 l 1,9,-1
 395 128 l 1,10,11
 359 65 359 65 303.5 27.5 c 128,-1,12
 248 -10 248 -10 186 -10 c 0,13,14
 110 -10 110 -10 75.5 46 c 128,-1,15
 41 102 41 102 57 200 c 2,16,-1
 107 520 l 1,17,-1
 126 520 l 1,18,-1
 76 200 l 2,19,20
 62 110 62 110 91.5 60 c 128,-1,21
 121 10 121 10 189 10 c 0,22,23
 241 10 241 10 289 39.5 c 128,-1,24
 337 69 337 69 370 119 c 128,-1,25
 403 169 403 169 413 230 c 2,26,-1
 459 520 l 1,27,-1
 478 520 l 1,28,-1
 471 480 l 1,29,30
 497 465 497 465 526 465 c 0,31,32
 588 465 588 465 600 543 c 0,33,34
 604 566 604 566 603 591.5 c 128,-1,35
 602 617 602 617 598 635 c 1,36,-1
 618 635 l 1,37,0
 626 587 626 587 619 543 c 0,1,2
EndSplineSet
EndChar

StartChar: uogonek
Encoding: 371 371 377
Width: 520
GlyphClass: 2
Flags: W
AnchorPoint: "Anchor-7" 426 480 basechar 0
AnchorPoint: "Anchor-6" 234 520 basechar 0
AnchorPoint: "Anchor-5" 426 0 basechar 0
AnchorPoint: "Anchor-4" 234 0 basechar 0
LayerCount: 2
Fore
SplineSet
446 -199 m 1,0,1
 400 -220 400 -220 347 -220 c 0,2,3
 277 -220 277 -220 255.5 -194 c 128,-1,4
 234 -168 234 -168 239 -135 c 0,5,6
 245 -96 245 -96 281.5 -58.5 c 128,-1,7
 318 -21 318 -21 378 11 c 1,8,-1
 396 128 l 1,9,-1
 395 128 l 1,10,11
 359 65 359 65 303 27.5 c 128,-1,12
 247 -10 247 -10 186 -10 c 0,13,14
 110 -10 110 -10 75.5 46 c 128,-1,15
 41 102 41 102 57 200 c 2,16,-1
 107 520 l 1,17,-1
 126 520 l 1,18,-1
 76 200 l 2,19,20
 62 110 62 110 91.5 60 c 128,-1,21
 121 10 121 10 189 10 c 0,22,23
 241 10 241 10 289 39.5 c 128,-1,24
 337 69 337 69 370 119 c 128,-1,25
 403 169 403 169 413 230 c 2,26,-1
 459 520 l 1,27,-1
 477 520 l 1,28,-1
 395 0 l 1,29,30
 334 -32 334 -32 298.5 -66.5 c 128,-1,31
 263 -101 263 -101 258 -135 c 0,32,33
 252 -172 252 -172 279.5 -186 c 128,-1,34
 307 -200 307 -200 350 -200 c 0,35,36
 399 -200 399 -200 441 -181 c 1,37,-1
 446 -199 l 1,0,1
EndSplineSet
EndChar

StartChar: v
Encoding: 118 118 380
Width: 458
Flags: W
LayerCount: 2
Fore
SplineSet
53 520 m 1,0,-1
 74 520 l 1,1,-1
 186 17 l 1,2,-1
 188 17 l 1,3,-1
 459 520 l 1,4,-1
 480 520 l 1,5,-1
 198 0 l 1,6,-1
 170 0 l 1,7,-1
 53 520 l 1,0,-1
EndSplineSet
EndChar

StartChar: w
Encoding: 119 119 381
Width: 707
GlyphClass: 2
Flags: W
AnchorPoint: "Anchor-6" 333 520 basechar 0
AnchorPoint: "Anchor-4" 333 0 basechar 0
LayerCount: 2
Fore
SplineSet
68 520 m 1,0,-1
 88 520 l 1,1,-1
 155 21 l 1,2,-1
 156 21 l 1,3,-1
 377 520 l 1,4,-1
 406 520 l 1,5,-1
 468 21 l 1,6,-1
 470 21 l 1,7,-1
 694 520 l 1,8,-1
 714 520 l 1,9,-1
 480 0 l 1,10,-1
 451 0 l 1,11,-1
 389 499 l 1,12,-1
 387 499 l 1,13,-1
 166 0 l 1,14,-1
 138 0 l 1,15,-1
 68 520 l 1,0,-1
EndSplineSet
EndChar

StartChar: x
Encoding: 120 120 386
Width: 477
Flags: W
LayerCount: 2
Fore
SplineSet
223 263 m 1,0,-1
 81 520 l 1,1,-1
 105 520 l 1,2,-1
 237 280 l 1,3,-1
 239 280 l 1,4,-1
 447 520 l 1,5,-1
 471 520 l 1,6,-1
 248 263 l 1,7,-1
 393 0 l 1,8,-1
 369 0 l 1,9,-1
 234 247 l 1,10,-1
 232 247 l 1,11,-1
 18 0 l 1,12,-1
 -6 0 l 1,13,-1
 223 263 l 1,0,-1
EndSplineSet
EndChar

StartChar: y
Encoding: 121 121 387
Width: 467
GlyphClass: 2
Flags: W
AnchorPoint: "Anchor-6" 205 520 basechar 0
AnchorPoint: "Anchor-4" 205 0 basechar 0
LayerCount: 2
Fore
SplineSet
469 520 m 1,0,-1
 489 520 l 1,1,-1
 64 -220 l 1,2,-1
 44 -220 l 1,3,-1
 176 9 l 1,4,-1
 62 520 l 1,5,-1
 83 520 l 1,6,-1
 190 37 l 1,7,-1
 192 37 l 1,8,-1
 469 520 l 1,0,-1
EndSplineSet
EndChar

StartChar: z
Encoding: 122 122 396
Width: 444
GlyphClass: 2
Flags: W
AnchorPoint: "Anchor-6" 194 520 basechar 0
AnchorPoint: "Anchor-4" 194 0 basechar 0
LayerCount: 2
Fore
SplineSet
5 20 m 1,0,-1
 407 498 l 1,1,-1
 407 500 l 1,2,-1
 81 500 l 1,3,-1
 84 520 l 1,4,-1
 435 520 l 1,5,-1
 432 500 l 1,6,-1
 30 22 l 1,7,-1
 29 20 l 1,8,-1
 356 20 l 1,9,-1
 353 0 l 1,10,-1
 1 0 l 1,11,-1
 5 20 l 1,0,-1
EndSplineSet
EndChar

StartChar: f_f
Encoding: 1114114 -1 400
Width: 689
GlyphClass: 3
Flags: W
LayerCount: 2
Fore
SplineSet
530 520 m 1,0,-1
 701 520 l 1,1,-1
 698 500 l 1,2,-1
 527 500 l 1,3,-1
 448 0 l 1,4,-1
 429 0 l 1,5,-1
 508 500 l 1,6,-1
 224 500 l 1,7,-1
 145 0 l 1,8,-1
 126 0 l 1,9,-1
 205 500 l 1,10,-1
 58 500 l 1,11,-1
 61 520 l 1,12,-1
 208 520 l 1,13,-1
 223 610 l 2,14,15
 235 686 235 686 270.5 723 c 128,-1,16
 306 760 306 760 368 760 c 0,17,18
 403 760 403 760 436 745 c 1,19,-1
 425 726 l 1,20,21
 397 740 397 740 365 740 c 0,22,23
 312 740 312 740 282 709 c 128,-1,24
 252 678 252 678 241 610 c 2,25,-1
 227 520 l 1,26,-1
 511 520 l 1,27,-1
 525 610 l 2,28,29
 537 686 537 686 573 723 c 128,-1,30
 609 760 609 760 671 760 c 0,31,32
 706 760 706 760 738 745 c 1,33,-1
 728 726 l 1,34,35
 700 740 700 740 667 740 c 0,36,37
 614 740 614 740 584.5 709 c 128,-1,38
 555 678 555 678 544 610 c 2,39,-1
 530 520 l 1,0,-1
EndSplineSet
Ligature2: "'liga' Standard Ligatures in Latin lookup 14 subtable" f f
EndChar

StartChar: ordfeminine
Encoding: 170 170 403
Width: 404
Flags: W
LayerCount: 2
Fore
SplineSet
376 701 m 128,-1,1
 402 664 402 664 388 578 c 2,2,-1
 347 314 l 1,3,-1
 327 314 l 1,4,-1
 340 397 l 1,5,-1
 338 397 l 1,6,7
 309 355 309 355 263.5 330.5 c 128,-1,8
 218 306 218 306 167 306 c 0,9,10
 106 306 106 306 74 339 c 128,-1,11
 42 372 42 372 51 426 c 0,12,13
 62 497 62 497 132.5 535.5 c 128,-1,14
 203 574 203 574 320 574 c 2,15,-1
 368 574 l 1,16,-1
 369 578 l 2,17,18
 381 656 381 656 359.5 687 c 128,-1,19
 338 718 338 718 271 718 c 0,20,21
 194 718 194 718 115 680 c 1,22,-1
 109 698 l 1,23,24
 192 738 192 738 275 738 c 0,25,0
 350 738 350 738 376 701 c 128,-1,1
254.5 346 m 128,-1,27
 294 366 294 366 320 401.5 c 128,-1,28
 346 437 346 437 353 481 c 2,29,-1
 365 554 l 1,30,-1
 317 554 l 2,31,32
 208 554 208 554 144 521 c 128,-1,33
 80 488 80 488 70 426 c 0,34,35
 63 380 63 380 90 353 c 128,-1,36
 117 326 117 326 170 326 c 0,37,26
 215 326 215 326 254.5 346 c 128,-1,27
EndSplineSet
EndChar

StartChar: ordmasculine
Encoding: 186 186 404
Width: 431
Flags: W
LayerCount: 2
Fore
SplineSet
96 364 m 128,-1,1
 57 422 57 422 73 522 c 256,2,3
 89 622 89 622 146 680 c 128,-1,4
 203 738 203 738 288 738 c 256,5,6
 372 738 372 738 411 680.5 c 128,-1,7
 450 623 450 623 434 522 c 256,8,9
 418 421 418 421 361 363.5 c 128,-1,10
 304 306 304 306 219 306 c 256,11,0
 135 306 135 306 96 364 c 128,-1,1
348.5 377.5 m 128,-1,13
 399 429 399 429 414 522 c 256,14,15
 429 615 429 615 394.5 666.5 c 128,-1,16
 360 718 360 718 285 718 c 256,17,18
 210 718 210 718 158.5 666.5 c 128,-1,19
 107 615 107 615 93 522 c 256,20,21
 78 429 78 429 112.5 377.5 c 128,-1,22
 147 326 147 326 222 326 c 256,23,12
 298 326 298 326 348.5 377.5 c 128,-1,13
EndSplineSet
EndChar

StartChar: zero.lf
Encoding: 1114117 -1 415
Width: 581
Flags: W
LayerCount: 2
Fore
SplineSet
76 85.5 m 128,-1,1
 29 181 29 181 58 365 c 256,2,3
 87 549 87 549 164.5 644.5 c 128,-1,4
 242 740 242 740 363 740 c 256,5,6
 484 740 484 740 530.5 644.5 c 128,-1,7
 577 549 577 549 548 365 c 256,8,9
 519 181 519 181 441.5 85.5 c 128,-1,10
 364 -10 364 -10 244 -10 c 256,11,0
 123 -10 123 -10 76 85.5 c 128,-1,1
430 99.5 m 128,-1,13
 501 189 501 189 529 365 c 256,14,15
 557 541 557 541 514 630.5 c 128,-1,16
 471 720 471 720 360 720 c 256,17,18
 248 720 248 720 177 630.5 c 128,-1,19
 106 541 106 541 78 365 c 256,20,21
 50 189 50 189 92.5 99.5 c 128,-1,22
 135 10 135 10 247 10 c 256,23,12
 359 10 359 10 430 99.5 c 128,-1,13
EndSplineSet
Substitution2: "'tnum' Tabular Numbers in Latin lookup 11 subtable" zero
AlternateSubs2: "'aalt' Access All Alternates in Latin lookup 1 subtable" zero
EndChar

StartChar: one.lf
Encoding: 1114118 -1 416
Width: 566
Flags: W
LayerCount: 2
Fore
SplineSet
390 702 m 1,0,-1
 388 702 l 1,1,-1
 102 465 l 1,2,-1
 90 480 l 1,3,-1
 394 730 l 1,4,-1
 414 730 l 1,5,-1
 298 0 l 1,6,-1
 279 0 l 1,7,-1
 390 702 l 1,0,-1
EndSplineSet
Substitution2: "'tnum' Tabular Numbers in Latin lookup 11 subtable" one
AlternateSubs2: "'aalt' Access All Alternates in Latin lookup 1 subtable" one
EndChar

StartChar: two.lf
Encoding: 1114119 -1 417
Width: 576
Flags: W
LayerCount: 2
Fore
SplineSet
298 246.5 m 128,-1,1
 397 338 397 338 444.5 407 c 128,-1,2
 492 476 492 476 502 540 c 0,3,4
 515 622 515 622 473.5 671 c 128,-1,5
 432 720 432 720 349 720 c 0,6,7
 295 720 295 720 235.5 699.5 c 128,-1,8
 176 679 176 679 128 644 c 1,9,-1
 119 660 l 1,10,11
 170 696 170 696 233 718 c 128,-1,12
 296 740 296 740 352 740 c 0,13,14
 412 740 412 740 454 715 c 128,-1,15
 496 690 496 690 513.5 644.5 c 128,-1,16
 531 599 531 599 522 540 c 0,17,18
 512 474 512 474 464.5 404 c 128,-1,19
 417 334 417 334 320.5 244 c 128,-1,20
 224 154 224 154 57 22 c 1,21,-1
 57 20 l 1,22,-1
 449 20 l 1,23,-1
 445 0 l 1,24,-1
 24 0 l 1,25,-1
 27 20 l 1,26,0
 199 155 199 155 298 246.5 c 128,-1,1
EndSplineSet
Substitution2: "'tnum' Tabular Numbers in Latin lookup 11 subtable" two
AlternateSubs2: "'aalt' Access All Alternates in Latin lookup 1 subtable" two
EndChar

StartChar: three.lf
Encoding: 1114120 -1 418
Width: 576
Flags: W
LayerCount: 2
Fore
SplineSet
34 44 m 1,1,-1
 47 61 l 1,2,3
 117 10 117 10 216 10 c 0,4,5
 321 10 321 10 384.5 62.5 c 128,-1,6
 448 115 448 115 464 215 c 0,7,8
 479 310 479 310 432 355 c 128,-1,9
 385 400 385 400 271 400 c 2,10,-1
 192 400 l 1,11,-1
 195 420 l 1,12,-1
 523 708 l 1,13,-1
 524 710 l 1,14,-1
 145 710 l 1,15,-1
 148 730 l 1,16,-1
 555 730 l 1,17,-1
 552 710 l 1,18,-1
 223 422 l 1,19,-1
 223 420 l 1,20,-1
 274 420 l 2,21,22
 396 420 396 420 448 369.5 c 128,-1,23
 500 319 500 319 483 215 c 0,24,25
 466 107 466 107 395.5 48.5 c 128,-1,26
 325 -10 325 -10 212 -10 c 0,27,0
 110 -10 110 -10 34 44 c 1,1,-1
EndSplineSet
Substitution2: "'tnum' Tabular Numbers in Latin lookup 11 subtable" three
AlternateSubs2: "'aalt' Access All Alternates in Latin lookup 1 subtable" three
EndChar

StartChar: four.lf
Encoding: 1114121 -1 419
Width: 583
Flags: W
LayerCount: 2
Fore
SplineSet
371 190 m 1,0,-1
 -1 190 l 1,1,-1
 2 210 l 1,2,-1
 457 730 l 1,3,-1
 476 730 l 1,4,-1
 394 210 l 1,5,-1
 531 210 l 1,6,-1
 528 190 l 1,7,-1
 391 190 l 1,8,-1
 361 0 l 1,9,-1
 341 0 l 1,10,-1
 371 190 l 1,0,-1
374 210 m 1,11,-1
 451 696 l 1,12,-1
 449 696 l 1,13,-1
 27 212 l 1,14,-1
 26 210 l 1,15,-1
 374 210 l 1,11,-1
EndSplineSet
Substitution2: "'tnum' Tabular Numbers in Latin lookup 11 subtable" four
AlternateSubs2: "'aalt' Access All Alternates in Latin lookup 1 subtable" four
EndChar

StartChar: five.lf
Encoding: 1114122 -1 420
Width: 576
Flags: W
LayerCount: 2
Fore
SplineSet
118 4.5 m 128,-1,1
 73 19 73 19 39 45 c 1,2,-1
 53 62 l 1,3,4
 118 10 118 10 215 10 c 0,5,6
 317 10 317 10 385.5 69 c 128,-1,7
 454 128 454 128 471 230 c 0,8,9
 486 325 486 325 439.5 375 c 128,-1,10
 393 425 393 425 291 425 c 0,11,12
 245 425 245 425 208 413.5 c 128,-1,13
 171 402 171 402 132 375 c 1,14,-1
 111 375 l 1,15,-1
 193 730 l 1,16,-1
 540 730 l 1,17,-1
 537 710 l 1,18,-1
 209 710 l 1,19,-1
 137 400 l 1,20,-1
 139 400 l 1,21,22
 176 424 176 424 212.5 434.5 c 128,-1,23
 249 445 249 445 294 445 c 0,24,25
 405 445 405 445 455.5 389 c 128,-1,26
 506 333 506 333 490 230 c 0,27,28
 478 157 478 157 440.5 103 c 128,-1,29
 403 49 403 49 344 19.5 c 128,-1,30
 285 -10 285 -10 212 -10 c 0,31,0
 163 -10 163 -10 118 4.5 c 128,-1,1
EndSplineSet
Substitution2: "'tnum' Tabular Numbers in Latin lookup 11 subtable" five
AlternateSubs2: "'aalt' Access All Alternates in Latin lookup 1 subtable" five
EndChar

StartChar: six.lf
Encoding: 1114123 -1 421
Width: 580
Flags: W
LayerCount: 2
Fore
SplineSet
123.5 21 m 128,-1,1
 74 52 74 52 52.5 107.5 c 128,-1,2
 31 163 31 163 42 235 c 0,3,4
 64 376 64 376 121.5 484.5 c 128,-1,5
 179 593 179 593 265 658.5 c 128,-1,6
 351 724 351 724 458 740 c 1,7,-1
 459 720 l 1,8,9
 331 700 331 700 235.5 608.5 c 128,-1,10
 140 517 140 517 91 366 c 1,11,-1
 93 366 l 1,12,13
 132 422 132 422 191 451 c 128,-1,14
 250 480 250 480 321 480 c 0,15,16
 432 480 432 480 486 414 c 128,-1,17
 540 348 540 348 522 235 c 256,18,19
 504 122 504 122 429 56 c 128,-1,20
 354 -10 354 -10 244 -10 c 0,21,0
 173 -10 173 -10 123.5 21 c 128,-1,1
418.5 69.5 m 128,-1,23
 486 129 486 129 503 235 c 256,24,25
 520 341 520 341 471 400.5 c 128,-1,26
 422 460 422 460 318 460 c 256,27,28
 214 460 214 460 146.5 400.5 c 128,-1,29
 79 341 79 341 62 235 c 0,30,31
 51 168 51 168 70.5 117 c 128,-1,32
 90 66 90 66 135.5 38 c 128,-1,33
 181 10 181 10 247 10 c 0,34,22
 351 10 351 10 418.5 69.5 c 128,-1,23
EndSplineSet
Substitution2: "'tnum' Tabular Numbers in Latin lookup 11 subtable" six
AlternateSubs2: "'aalt' Access All Alternates in Latin lookup 1 subtable" six
EndChar

StartChar: seven.lf
Encoding: 1114124 -1 422
Width: 577
Flags: W
LayerCount: 2
Fore
SplineSet
554 708 m 1,1,-1
 554 710 l 1,2,-1
 136 710 l 1,3,-1
 139 730 l 1,4,-1
 580 730 l 1,5,-1
 577 710 l 1,6,7
 357 417 357 417 161 0 c 1,8,-1
 141 0 l 1,9,0
 334 411 334 411 554 708 c 1,1,-1
EndSplineSet
Substitution2: "'tnum' Tabular Numbers in Latin lookup 11 subtable" seven
AlternateSubs2: "'aalt' Access All Alternates in Latin lookup 1 subtable" seven
EndChar

StartChar: eight.lf
Encoding: 1114125 -1 423
Width: 581
Flags: W
LayerCount: 2
Fore
SplineSet
73.5 44 m 128,-1,1
 16 98 16 98 31 190 c 0,2,3
 55 343 55 343 257 390 c 1,4,-1
 258 392 l 1,5,6
 184 414 184 414 147 462.5 c 128,-1,7
 110 511 110 511 120 575 c 0,8,9
 132 651 132 651 198 695.5 c 128,-1,10
 264 740 264 740 363 740 c 256,11,12
 462 740 462 740 513.5 695.5 c 128,-1,13
 565 651 565 651 553 575 c 0,14,15
 543 510 543 510 491 462 c 128,-1,16
 439 414 439 414 359 392 c 1,17,-1
 358 390 l 1,18,19
 545 343 545 343 521 190 c 0,20,21
 511 129 511 129 474 84 c 128,-1,22
 437 39 437 39 377.5 14.5 c 128,-1,23
 318 -10 318 -10 244 -10 c 0,24,0
 131 -10 131 -10 73.5 44 c 128,-1,1
461.5 460.5 m 128,-1,26
 523 508 523 508 534 575 c 256,27,28
 545 642 545 642 498 681 c 128,-1,29
 451 720 451 720 360 720 c 256,30,31
 269 720 269 720 209.5 681 c 128,-1,32
 150 642 150 642 140 575 c 256,33,34
 129 508 129 508 175 460.5 c 128,-1,35
 221 413 221 413 309 400 c 1,36,25
 400 413 400 413 461.5 460.5 c 128,-1,26
419.5 58.5 m 128,-1,38
 488 107 488 107 501 190 c 0,39,40
 526 347 526 347 306 380 c 1,41,42
 75 345 75 345 50 190 c 0,43,44
 37 107 37 107 89.5 58.5 c 128,-1,45
 142 10 142 10 247 10 c 0,46,37
 351 10 351 10 419.5 58.5 c 128,-1,38
EndSplineSet
Substitution2: "'tnum' Tabular Numbers in Latin lookup 11 subtable" eight
AlternateSubs2: "'aalt' Access All Alternates in Latin lookup 1 subtable" eight
EndChar

StartChar: nine.lf
Encoding: 1114126 -1 424
Width: 580
Flags: W
LayerCount: 2
Fore
SplineSet
482.5 709 m 128,-1,1
 532 678 532 678 553.5 622.5 c 128,-1,2
 575 567 575 567 564 495 c 0,3,4
 542 354 542 354 484.5 245.5 c 128,-1,5
 427 137 427 137 341 71.5 c 128,-1,6
 255 6 255 6 148 -10 c 1,7,-1
 147 10 l 1,8,9
 275 30 275 30 370.5 121.5 c 128,-1,10
 466 213 466 213 514 364 c 1,11,-1
 513 364 l 1,12,13
 474 308 474 308 415 279 c 128,-1,14
 356 250 356 250 285 250 c 0,15,16
 174 250 174 250 120 316 c 128,-1,17
 66 382 66 382 83 495 c 256,18,19
 101 608 101 608 176.5 674 c 128,-1,20
 252 740 252 740 362 740 c 0,21,0
 433 740 433 740 482.5 709 c 128,-1,1
187.5 660.5 m 128,-1,23
 120 601 120 601 103 495 c 256,24,25
 86 389 86 389 135 329.5 c 128,-1,26
 184 270 184 270 288 270 c 256,27,28
 392 270 392 270 459.5 329.5 c 128,-1,29
 527 389 527 389 544 495 c 0,30,31
 555 562 555 562 535.5 613 c 128,-1,32
 516 664 516 664 470.5 692 c 128,-1,33
 425 720 425 720 359 720 c 0,34,22
 255 720 255 720 187.5 660.5 c 128,-1,23
EndSplineSet
Substitution2: "'tnum' Tabular Numbers in Latin lookup 11 subtable" nine
AlternateSubs2: "'aalt' Access All Alternates in Latin lookup 1 subtable" nine
EndChar

StartChar: uni2070
Encoding: 8304 8304 425
Width: 348
Flags: W
LayerCount: 2
Fore
SplineSet
74.5 343.5 m 128,-1,1
 46 401 46 401 63 511 c 256,2,3
 80 621 80 621 127 678.5 c 128,-1,4
 174 736 174 736 246 736 c 0,5,6
 319 736 319 736 347 678.5 c 128,-1,7
 375 621 375 621 357 511 c 256,8,9
 340 401 340 401 293.5 343.5 c 128,-1,10
 247 286 247 286 175 286 c 256,11,0
 103 286 103 286 74.5 343.5 c 128,-1,1
338 511 m 256,13,14
 370 716 370 716 243 716 c 256,15,16
 116 716 116 716 83 511 c 256,17,18
 51 306 51 306 178 306 c 256,19,12
 306 306 306 306 338 511 c 256,13,14
EndSplineSet
EndChar

StartChar: uni00B9
Encoding: 185 185 426
Width: 340
Flags: W
LayerCount: 2
Fore
SplineSet
247 702 m 1,0,-1
 245 702 l 1,1,-1
 80 565 l 1,2,-1
 69 580 l 1,3,-1
 251 730 l 1,4,-1
 271 730 l 1,5,-1
 201 292 l 1,6,-1
 182 292 l 1,7,-1
 247 702 l 1,0,-1
EndSplineSet
EndChar

StartChar: uni00B2
Encoding: 178 178 427
Width: 346
Flags: W
LayerCount: 2
Fore
SplineSet
209.5 450 m 128,-1,1
 266 502 266 502 290.5 538 c 128,-1,2
 315 574 315 574 321 610 c 0,3,4
 329 659 329 659 305 687.5 c 128,-1,5
 281 716 281 716 232 716 c 0,6,7
 201 716 201 716 166 704 c 128,-1,8
 131 692 131 692 103 671 c 1,9,-1
 93 686 l 1,10,11
 124 709 124 709 162.5 722.5 c 128,-1,12
 201 736 201 736 235 736 c 0,13,14
 292 736 292 736 320.5 701.5 c 128,-1,15
 349 667 349 667 340 610 c 0,16,17
 334 572 334 572 309 534.5 c 128,-1,18
 284 497 284 497 230 446 c 128,-1,19
 176 395 176 395 75 314 c 1,20,-1
 75 312 l 1,21,-1
 298 312 l 1,22,-1
 295 292 l 1,23,-1
 42 292 l 1,24,-1
 45 312 l 1,25,0
 153 398 153 398 209.5 450 c 128,-1,1
EndSplineSet
EndChar

StartChar: uni00B3
Encoding: 179 179 428
Width: 345
Flags: W
LayerCount: 2
Fore
SplineSet
43 318 m 1,1,-1
 55 335 l 1,2,3
 97 306 97 306 153 306 c 0,4,5
 213 306 213 306 248.5 335.5 c 128,-1,6
 284 365 284 365 293 421 c 0,7,8
 301 474 301 474 275.5 499 c 128,-1,9
 250 524 250 524 184 524 c 2,10,-1
 137 524 l 1,11,-1
 141 548 l 1,12,-1
 323 708 l 1,13,-1
 323 710 l 1,14,-1
 109 710 l 1,15,-1
 112 730 l 1,16,-1
 356 730 l 1,17,-1
 353 710 l 1,18,-1
 166 546 l 1,19,-1
 166 544 l 1,20,-1
 187 544 l 2,21,22
 261 544 261 544 292 513.5 c 128,-1,23
 323 483 323 483 313 421 c 0,24,25
 303 356 303 356 260.5 321 c 128,-1,26
 218 286 218 286 150 286 c 0,27,0
 89 286 89 286 43 318 c 1,1,-1
EndSplineSet
EndChar

StartChar: uni2074
Encoding: 8308 8308 429
Width: 350
Flags: W
LayerCount: 2
Fore
SplineSet
240 402 m 1,0,-1
 20 402 l 1,1,-1
 24 422 l 1,2,-1
 292 730 l 1,3,-1
 312 730 l 1,4,-1
 263 422 l 1,5,-1
 341 422 l 1,6,-1
 338 402 l 1,7,-1
 260 402 l 1,8,-1
 242 292 l 1,9,-1
 223 292 l 1,10,-1
 240 402 l 1,0,-1
243 422 m 1,11,-1
 286 694 l 1,12,-1
 284 694 l 1,13,-1
 49 424 l 1,14,-1
 49 422 l 1,15,-1
 243 422 l 1,11,-1
EndSplineSet
EndChar

StartChar: fraction
Encoding: 8260 8260 430
Width: 469
Flags: W
LayerCount: 2
Fore
SplineSet
500 730 m 1,0,-1
 523 730 l 1,1,-1
 -5 0 l 1,2,-1
 -28 0 l 1,3,-1
 500 730 l 1,0,-1
EndSplineSet
EndChar

StartChar: onehalf
Encoding: 189 189 431
Width: 787
Flags: W
LayerCount: 2
Fore
SplineSet
258 702 m 1,0,-1
 93 565 l 1,1,-1
 81 580 l 1,2,-1
 264 730 l 1,3,-1
 284 730 l 1,4,-1
 214 292 l 1,5,-1
 195 292 l 1,6,-1
 260 702 l 1,7,-1
 258 702 l 1,0,-1
654 730 m 1,8,-1
 677 730 l 1,9,-1
 148 0 l 1,10,-1
 126 0 l 1,11,-1
 654 730 l 1,8,-1
595.5 158 m 128,-1,13
 652 210 652 210 677 246 c 128,-1,14
 702 282 702 282 707 318 c 0,15,16
 715 367 715 367 691 395.5 c 128,-1,17
 667 424 667 424 618 424 c 0,18,19
 587 424 587 424 552 412 c 128,-1,20
 517 400 517 400 490 379 c 1,21,-1
 479 394 l 1,22,23
 510 417 510 417 548.5 430.5 c 128,-1,24
 587 444 587 444 621 444 c 0,25,26
 678 444 678 444 707 409.5 c 128,-1,27
 736 375 736 375 727 318 c 0,28,29
 721 280 721 280 696 242.5 c 128,-1,30
 671 205 671 205 617 154 c 128,-1,31
 563 103 563 103 462 22 c 1,32,-1
 461 20 l 1,33,-1
 685 20 l 1,34,-1
 681 0 l 1,35,-1
 429 0 l 1,36,-1
 432 20 l 1,37,12
 539 106 539 106 595.5 158 c 128,-1,13
EndSplineSet
Ligature2: "'frac' Diagonal Fractions in Latin lookup 7 subtable" one slash two
EndChar

StartChar: onequarter
Encoding: 188 188 432
Width: 750
Flags: W
LayerCount: 2
Fore
SplineSet
258 702 m 1,0,-1
 93 565 l 1,1,-1
 81 580 l 1,2,-1
 264 730 l 1,3,-1
 284 730 l 1,4,-1
 214 292 l 1,5,-1
 195 292 l 1,6,-1
 260 702 l 1,7,-1
 258 702 l 1,0,-1
654 730 m 1,8,-1
 677 730 l 1,9,-1
 148 0 l 1,10,-1
 126 0 l 1,11,-1
 654 730 l 1,8,-1
362 110 m 1,12,-1
 365 130 l 1,13,-1
 633 438 l 1,14,-1
 653 438 l 1,15,-1
 604 130 l 1,16,-1
 682 130 l 1,17,-1
 679 110 l 1,18,-1
 601 110 l 1,19,-1
 583 0 l 1,20,-1
 564 0 l 1,21,-1
 581 110 l 1,22,-1
 362 110 l 1,12,-1
628 402 m 1,23,-1
 626 402 l 1,24,-1
 391 132 l 1,25,-1
 390 130 l 1,26,-1
 584 130 l 1,27,-1
 628 402 l 1,23,-1
EndSplineSet
Ligature2: "'frac' Diagonal Fractions in Latin lookup 7 subtable" one slash four
EndChar

StartChar: threequarters
Encoding: 190 190 433
Width: 737
Flags: W
LayerCount: 2
Fore
SplineSet
49 318 m 1,1,-1
 62 335 l 1,2,3
 104 306 104 306 160 306 c 0,4,5
 220 306 220 306 255.5 335.5 c 128,-1,6
 291 365 291 365 300 421 c 0,7,8
 308 474 308 474 282 499 c 128,-1,9
 256 524 256 524 190 524 c 2,10,-1
 143 524 l 1,11,-1
 147 548 l 1,12,-1
 329 708 l 1,13,-1
 330 710 l 1,14,-1
 115 710 l 1,15,-1
 118 730 l 1,16,-1
 362 730 l 1,17,-1
 359 710 l 1,18,-1
 172 546 l 1,19,-1
 172 544 l 1,20,-1
 194 544 l 2,21,22
 268 544 268 544 298.5 513.5 c 128,-1,23
 329 483 329 483 319 421 c 0,24,25
 309 356 309 356 266.5 321 c 128,-1,26
 224 286 224 286 157 286 c 0,27,0
 95 286 95 286 49 318 c 1,1,-1
641 730 m 1,28,-1
 663 730 l 1,29,-1
 135 0 l 1,30,-1
 112 0 l 1,31,-1
 641 730 l 1,28,-1
348 110 m 1,32,-1
 351 130 l 1,33,-1
 620 438 l 1,34,-1
 639 438 l 1,35,-1
 591 130 l 1,36,-1
 669 130 l 1,37,-1
 666 110 l 1,38,-1
 587 110 l 1,39,-1
 570 0 l 1,40,-1
 550 0 l 1,41,-1
 568 110 l 1,42,-1
 348 110 l 1,32,-1
614 402 m 1,43,-1
 612 402 l 1,44,-1
 377 132 l 1,45,-1
 377 130 l 1,46,-1
 571 130 l 1,47,-1
 614 402 l 1,43,-1
EndSplineSet
Ligature2: "'frac' Diagonal Fractions in Latin lookup 7 subtable" three slash four
EndChar

StartChar: period
Encoding: 46 46 434
Width: 317
Flags: W
LayerCount: 2
Fore
SplineSet
60 60 m 1,0,-1
 119 60 l 1,1,-1
 109 0 l 1,2,-1
 51 0 l 1,3,-1
 60 60 l 1,0,-1
EndSplineSet
EndChar

StartChar: comma
Encoding: 44 44 435
Width: 317
Flags: W
LayerCount: 2
Fore
SplineSet
112 130 m 1,0,-1
 133 130 l 1,1,-1
 -21 -170 l 1,2,-1
 -43 -170 l 1,3,-1
 112 130 l 1,0,-1
EndSplineSet
EndChar

StartChar: colon
Encoding: 58 58 436
Width: 317
Flags: W
LayerCount: 2
Fore
SplineSet
133 520 m 1,0,-1
 192 520 l 1,1,-1
 182 460 l 1,2,-1
 123 460 l 1,3,-1
 133 520 l 1,0,-1
60 60 m 1,4,-1
 119 60 l 1,5,-1
 109 0 l 1,6,-1
 51 0 l 1,7,-1
 60 60 l 1,4,-1
EndSplineSet
Substitution2: "'aalt' Access All Alternates in Latin lookup 0 subtable" uniFF1A
EndChar

StartChar: semicolon
Encoding: 59 59 437
Width: 317
Flags: W
LayerCount: 2
Fore
SplineSet
151 520 m 1,0,-1
 209 520 l 1,1,-1
 200 460 l 1,2,-1
 141 460 l 1,3,-1
 151 520 l 1,0,-1
114 130 m 1,4,-1
 136 130 l 1,5,-1
 -19 -170 l 1,6,-1
 -40 -170 l 1,7,-1
 114 130 l 1,4,-1
EndSplineSet
EndChar

StartChar: exclam
Encoding: 33 33 439
Width: 249
Flags: W
LayerCount: 2
Fore
SplineSet
186 730 m 1,0,-1
 205 730 l 1,1,-1
 120 190 l 1,2,-1
 100 190 l 1,3,-1
 186 730 l 1,0,-1
60 60 m 1,4,-1
 119 60 l 1,5,-1
 109 0 l 1,6,-1
 51 0 l 1,7,-1
 60 60 l 1,4,-1
EndSplineSet
Substitution2: "'aalt' Access All Alternates in Latin lookup 0 subtable" uniFF01
EndChar

StartChar: exclamdown
Encoding: 161 161 440
Width: 249
Flags: W
LayerCount: 2
Fore
SplineSet
133 520 m 1,0,-1
 192 520 l 1,1,-1
 182 460 l 1,2,-1
 123 460 l 1,3,-1
 133 520 l 1,0,-1
122 330 m 1,4,-1
 142 330 l 1,5,-1
 56 -210 l 1,6,-1
 37 -210 l 1,7,-1
 122 330 l 1,4,-1
EndSplineSet
EndChar

StartChar: question
Encoding: 63 63 441
Width: 516
Flags: W
LayerCount: 2
Fore
SplineSet
203.5 276 m 128,-1,1
 223 313 223 313 260 346 c 128,-1,2
 297 379 297 379 360 417 c 0,3,4
 436 463 436 463 471 502.5 c 128,-1,5
 506 542 506 542 514 590 c 0,6,7
 524 656 524 656 476.5 688 c 128,-1,8
 429 720 429 720 319 720 c 256,9,10
 209 720 209 720 100 686 c 1,11,-1
 97 704 l 1,12,13
 205 740 205 740 322 740 c 0,14,15
 441 740 441 740 493 703 c 128,-1,16
 545 666 545 666 533 590 c 0,17,18
 524 536 524 536 486 492.5 c 128,-1,19
 448 449 448 449 368 401 c 0,20,21
 307 364 307 364 272.5 333.5 c 128,-1,22
 238 303 238 303 220.5 269.5 c 128,-1,23
 203 236 203 236 195 190 c 1,24,-1
 176 190 l 1,25,0
 184 239 184 239 203.5 276 c 128,-1,1
136 60 m 1,26,-1
 194 60 l 1,27,-1
 185 0 l 1,28,-1
 126 0 l 1,29,-1
 136 60 l 1,26,-1
EndSplineSet
Substitution2: "'aalt' Access All Alternates in Latin lookup 0 subtable" uniFF1F
EndChar

StartChar: questiondown
Encoding: 191 191 442
Width: 516
Flags: W
LayerCount: 2
Fore
SplineSet
315 460 m 1,0,-1
 324 520 l 1,1,-1
 383 520 l 1,2,-1
 373 460 l 1,3,-1
 315 460 l 1,0,-1
305.5 244 m 128,-1,5
 286 207 286 207 249 174 c 128,-1,6
 212 141 212 141 149 103 c 0,7,8
 73 57 73 57 38 17.5 c 128,-1,9
 3 -22 3 -22 -5 -70 c 0,10,11
 -15 -136 -15 -136 32.5 -168 c 128,-1,12
 80 -200 80 -200 190 -200 c 256,13,14
 300 -200 300 -200 408 -166 c 1,15,-1
 411 -184 l 1,16,17
 304 -220 304 -220 187 -220 c 0,18,19
 68 -220 68 -220 16 -183 c 128,-1,20
 -36 -146 -36 -146 -24 -70 c 0,21,22
 -15 -16 -15 -16 23 27.5 c 128,-1,23
 61 71 61 71 141 119 c 0,24,25
 202 156 202 156 236.5 186.5 c 128,-1,26
 271 217 271 217 288.5 250.5 c 128,-1,27
 306 284 306 284 314 330 c 1,28,-1
 333 330 l 1,29,4
 325 281 325 281 305.5 244 c 128,-1,5
EndSplineSet
EndChar

StartChar: bullet
Encoding: 8226 8226 444
Width: 221
Flags: W
LayerCount: 2
Fore
SplineSet
83.5 265.5 m 128,-1,1
 75 276 75 276 77 290 c 256,2,3
 79 304 79 304 91 314.5 c 128,-1,4
 103 325 103 325 117 325 c 256,5,6
 131 325 131 325 139.5 314.5 c 128,-1,7
 148 304 148 304 146 290 c 256,8,9
 144 276 144 276 132 265.5 c 128,-1,10
 120 255 120 255 106 255 c 256,11,0
 92 255 92 255 83.5 265.5 c 128,-1,1
EndSplineSet
EndChar

StartChar: asterisk
Encoding: 42 42 445
Width: 467
Flags: W
LayerCount: 2
Fore
SplineSet
119 376 m 1,0,-1
 258 535 l 1,1,-1
 84 595 l 1,2,-1
 93 614 l 1,3,-1
 266 554 l 1,4,-1
 298 750 l 1,5,-1
 317 750 l 1,6,-1
 286 554 l 1,7,-1
 479 614 l 1,8,-1
 482 595 l 1,9,-1
 289 535 l 1,10,-1
 377 376 l 1,11,-1
 359 364 l 1,12,-1
 271 523 l 1,13,-1
 133 364 l 1,14,-1
 119 376 l 1,0,-1
EndSplineSet
EndChar

StartChar: numbersign
Encoding: 35 35 446
Width: 629
Flags: W
LayerCount: 2
Fore
SplineSet
622 515 m 1,0,-1
 494 515 l 1,1,-1
 401 235 l 1,2,-1
 526 235 l 1,3,-1
 523 215 l 1,4,-1
 394 215 l 1,5,-1
 323 0 l 1,6,-1
 302 0 l 1,7,-1
 374 215 l 1,8,-1
 179 215 l 1,9,-1
 107 0 l 1,10,-1
 87 0 l 1,11,-1
 158 215 l 1,12,-1
 33 215 l 1,13,-1
 36 235 l 1,14,-1
 165 235 l 1,15,-1
 258 515 l 1,16,-1
 132 515 l 1,17,-1
 135 535 l 1,18,-1
 265 535 l 1,19,-1
 329 730 l 1,20,-1
 350 730 l 1,21,-1
 285 535 l 1,22,-1
 480 535 l 1,23,-1
 545 730 l 1,24,-1
 565 730 l 1,25,-1
 501 535 l 1,26,-1
 625 535 l 1,27,-1
 622 515 l 1,0,-1
381 235 m 1,28,-1
 473 515 l 1,29,-1
 278 515 l 1,30,-1
 186 235 l 1,31,-1
 381 235 l 1,28,-1
EndSplineSet
EndChar

StartChar: slash
Encoding: 47 47 447
Width: 391
Flags: W
LayerCount: 2
Fore
SplineSet
426 750 m 1,0,-1
 448 750 l 1,1,-1
 -12 -40 l 1,2,-1
 -34 -40 l 1,3,-1
 426 750 l 1,0,-1
EndSplineSet
EndChar

StartChar: backslash
Encoding: 92 92 448
Width: 391
Flags: W
LayerCount: 2
Fore
SplineSet
323 -40 m 1,0,-1
 301 -40 l 1,1,-1
 91 750 l 1,2,-1
 113 750 l 1,3,-1
 323 -40 l 1,0,-1
EndSplineSet
EndChar

StartChar: parenleft
Encoding: 40 40 449
Width: 302
Flags: W
LayerCount: 2
Fore
SplineSet
89 97 m 128,-1,1
 74 205 74 205 94 330 c 256,2,3
 114 455 114 455 163 563 c 128,-1,4
 212 671 212 671 295 770 c 1,5,-1
 318 770 l 1,6,7
 233 671 233 671 183 563.5 c 128,-1,8
 133 456 133 456 113 330 c 256,9,10
 93 204 93 204 109 96.5 c 128,-1,11
 125 -11 125 -11 179 -110 c 1,12,-1
 155 -110 l 1,13,0
 104 -11 104 -11 89 97 c 128,-1,1
EndSplineSet
Substitution2: "'aalt' Access All Alternates in Latin lookup 0 subtable" uniFF08
EndChar

StartChar: parenright
Encoding: 41 41 450
Width: 302
Flags: W
LayerCount: 2
Fore
SplineSet
-1 -110 m 1,0,1
 84 -11 84 -11 134 96.5 c 128,-1,2
 184 204 184 204 203 330 c 256,3,4
 223 456 223 456 207.5 563.5 c 128,-1,5
 192 671 192 671 138 770 c 1,6,-1
 161 770 l 1,7,8
 212 671 212 671 227.5 563 c 128,-1,9
 243 455 243 455 223 330 c 256,10,11
 203 205 203 205 153.5 97 c 128,-1,12
 104 -11 104 -11 22 -110 c 1,13,-1
 -1 -110 l 1,0,1
EndSplineSet
Substitution2: "'aalt' Access All Alternates in Latin lookup 0 subtable" uniFF09
EndChar

StartChar: braceleft
Encoding: 123 123 451
Width: 433
Flags: W
CounterMasks: 1 e0
LayerCount: 2
Fore
SplineSet
150 -76.5 m 128,-1,1
 127 -43 127 -43 139 30 c 2,2,-1
 164 190 l 2,3,4
 173 249 173 249 157.5 284.5 c 128,-1,5
 142 320 142 320 107 320 c 2,6,-1
 58 320 l 1,7,-1
 61 340 l 1,8,-1
 110 340 l 2,9,10
 145 340 145 340 172 375.5 c 128,-1,11
 199 411 199 411 209 470 c 2,12,-1
 234 630 l 2,13,14
 246 703 246 703 279 736.5 c 128,-1,15
 312 770 312 770 374 770 c 2,16,-1
 452 770 l 1,17,-1
 449 750 l 1,18,-1
 371 750 l 2,19,20
 318 750 318 750 291 722.5 c 128,-1,21
 264 695 264 695 254 630 c 2,22,-1
 228 470 l 2,23,24
 220 419 220 419 198.5 383 c 128,-1,25
 177 347 177 347 147 331 c 1,26,-1
 146 329 l 1,27,28
 172 313 172 313 182 277 c 128,-1,29
 192 241 192 241 184 190 c 2,30,-1
 159 30 l 2,31,32
 149 -35 149 -35 167 -62.5 c 128,-1,33
 185 -90 185 -90 238 -90 c 2,34,-1
 316 -90 l 1,35,-1
 313 -110 l 1,36,-1
 234 -110 l 2,37,0
 173 -110 173 -110 150 -76.5 c 128,-1,1
EndSplineSet
EndChar

StartChar: braceright
Encoding: 125 125 452
Width: 433
Flags: W
CounterMasks: 1 e0
LayerCount: 2
Fore
SplineSet
-4 -110 m 1,0,-1
 -1 -90 l 1,1,-1
 77 -90 l 2,2,3
 130 -90 130 -90 157 -62.5 c 128,-1,4
 184 -35 184 -35 194 30 c 2,5,-1
 220 190 l 2,6,7
 228 241 228 241 249.5 277 c 128,-1,8
 271 313 271 313 302 329 c 1,9,-1
 302 331 l 1,10,11
 276 347 276 347 266 383 c 128,-1,12
 256 419 256 419 264 470 c 2,13,-1
 289 630 l 2,14,15
 299 695 299 695 281 722.5 c 128,-1,16
 263 750 263 750 210 750 c 2,17,-1
 132 750 l 1,18,-1
 135 770 l 1,19,-1
 214 770 l 2,20,21
 276 770 276 770 298.5 736.5 c 128,-1,22
 321 703 321 703 309 630 c 2,23,-1
 284 470 l 2,24,25
 275 411 275 411 290.5 375.5 c 128,-1,26
 306 340 306 340 341 340 c 2,27,-1
 390 340 l 1,28,-1
 387 320 l 1,29,-1
 338 320 l 2,30,31
 303 320 303 320 276 284.5 c 128,-1,32
 249 249 249 249 239 190 c 2,33,-1
 214 30 l 2,34,35
 202 -43 202 -43 169 -76.5 c 128,-1,36
 136 -110 136 -110 74 -110 c 2,37,-1
 -4 -110 l 1,0,-1
EndSplineSet
EndChar

StartChar: bracketleft
Encoding: 91 91 453
Width: 369
Flags: W
LayerCount: 2
Fore
SplineSet
173 770 m 1,0,-1
 398 770 l 1,1,-1
 395 750 l 1,2,-1
 189 750 l 1,3,-1
 56 -90 l 1,4,-1
 262 -90 l 1,5,-1
 259 -110 l 1,6,-1
 33 -110 l 1,7,-1
 173 770 l 1,0,-1
EndSplineSet
EndChar

StartChar: bracketright
Encoding: 93 93 454
Width: 369
Flags: W
LayerCount: 2
Fore
SplineSet
211 -110 m 1,0,-1
 -14 -110 l 1,1,-1
 -11 -90 l 1,2,-1
 195 -90 l 1,3,-1
 328 750 l 1,4,-1
 122 750 l 1,5,-1
 125 770 l 1,6,-1
 351 770 l 1,7,-1
 211 -110 l 1,0,-1
EndSplineSet
EndChar

StartChar: hyphen
Encoding: 45 45 455
Width: 368
Flags: W
LayerCount: 2
Fore
SplineSet
54 300 m 1,0,-1
 319 300 l 1,1,-1
 316 280 l 1,2,-1
 51 280 l 1,3,-1
 54 300 l 1,0,-1
EndSplineSet
EndChar

StartChar: endash
Encoding: 8211 8211 457
Width: 490
Flags: W
LayerCount: 2
Fore
SplineSet
3 300 m 1,0,-1
 493 300 l 1,1,-1
 489 280 l 1,2,-1
 -1 280 l 1,3,-1
 3 300 l 1,0,-1
EndSplineSet
EndChar

StartChar: emdash
Encoding: 8212 8212 458
Width: 980
Flags: W
LayerCount: 2
Fore
SplineSet
3 300 m 1,0,-1
 983 300 l 1,1,-1
 979 280 l 1,2,-1
 -1 280 l 1,3,-1
 3 300 l 1,0,-1
EndSplineSet
EndChar

StartChar: uni2015
Encoding: 8213 8213 459
Width: 973
Flags: W
LayerCount: 2
Fore
SplineSet
59 370 m 1,0,-1
 941 370 l 1,1,-1
 938 350 l 1,2,-1
 56 350 l 1,3,-1
 59 370 l 1,0,-1
EndSplineSet
EndChar

StartChar: underscore
Encoding: 95 95 460
Width: 548
Flags: W
LayerCount: 2
Fore
SplineSet
-59 -90 m 1,0,-1
 490 -90 l 1,1,-1
 486 -110 l 1,2,-1
 -62 -110 l 1,3,-1
 -59 -90 l 1,0,-1
EndSplineSet
EndChar

StartChar: quoteleft
Encoding: 8216 8216 465
Width: 198
Flags: W
LayerCount: 2
Fore
SplineSet
95 470 m 1,0,-1
 73 470 l 1,1,-1
 227 770 l 1,2,-1
 249 770 l 1,3,-1
 95 470 l 1,0,-1
EndSplineSet
EndChar

StartChar: quoteright
Encoding: 8217 8217 466
Width: 198
Flags: W
LayerCount: 2
Fore
SplineSet
227 770 m 1,0,-1
 249 770 l 1,1,-1
 95 470 l 1,2,-1
 73 470 l 1,3,-1
 227 770 l 1,0,-1
EndSplineSet
EndChar

StartChar: guillemotright
Encoding: 187 187 468
Width: 376
Flags: W
LayerCount: 2
Fore
SplineSet
4 60 m 1,0,-1
 191 290 l 1,1,-1
 76 520 l 1,2,-1
 100 520 l 1,3,-1
 215 290 l 1,4,-1
 27 60 l 1,5,-1
 4 60 l 1,0,-1
151 60 m 1,6,-1
 338 290 l 1,7,-1
 223 520 l 1,8,-1
 247 520 l 1,9,-1
 362 290 l 1,10,-1
 174 60 l 1,11,-1
 151 60 l 1,6,-1
EndSplineSet
EndChar

StartChar: guilsinglleft
Encoding: 8249 8249 469
Width: 229
Flags: W
LayerCount: 2
Fore
SplineSet
16 290 m 1,0,-1
 204 520 l 1,1,-1
 227 520 l 1,2,-1
 40 290 l 1,3,-1
 154 60 l 1,4,-1
 131 60 l 1,5,-1
 16 290 l 1,0,-1
EndSplineSet
EndChar

StartChar: guilsinglright
Encoding: 8250 8250 470
Width: 229
Flags: W
LayerCount: 2
Fore
SplineSet
27 60 m 1,0,-1
 4 60 l 1,1,-1
 191 290 l 1,2,-1
 76 520 l 1,3,-1
 100 520 l 1,4,-1
 215 290 l 1,5,-1
 27 60 l 1,0,-1
EndSplineSet
EndChar

StartChar: quotesingle
Encoding: 39 39 472
Width: 192
Flags: W
LayerCount: 2
Fore
SplineSet
163 770 m 1,0,-1
 183 770 l 1,1,-1
 135 470 l 1,2,-1
 116 470 l 1,3,-1
 163 770 l 1,0,-1
EndSplineSet
EndChar

StartChar: uni20B5
Encoding: 8373 8373 474
Width: 672
Flags: W
LayerCount: 2
Fore
SplineSet
585 55 m 1,0,1
 483 -7 483 -7 361 -10 c 1,2,-1
 346 -105 l 1,3,-1
 326 -105 l 1,4,-1
 341 -10 l 1,5,6
 237 -8 237 -8 167 39 c 128,-1,7
 97 86 97 86 67.5 170 c 128,-1,8
 38 254 38 254 56 365 c 256,9,10
 74 476 74 476 129.5 560 c 128,-1,11
 185 644 185 644 270.5 691 c 128,-1,12
 356 738 356 738 460 740 c 1,13,-1
 475 835 l 1,14,-1
 495 835 l 1,15,-1
 480 740 l 1,16,17
 601 737 601 737 683 675 c 1,18,-1
 669 658 l 1,19,20
 591 717 591 717 476 720 c 1,21,-1
 364 10 l 1,22,23
 480 13 480 13 577 72 c 1,24,-1
 585 55 l 1,0,1
85.5 179.5 m 128,-1,26
 113 100 113 100 179.5 56 c 128,-1,27
 246 12 246 12 344 10 c 1,28,-1
 457 720 l 1,29,30
 359 718 359 718 278 673.5 c 128,-1,31
 197 629 197 629 144.5 549.5 c 128,-1,32
 92 470 92 470 75 365 c 0,33,25
 58 259 58 259 85.5 179.5 c 128,-1,26
EndSplineSet
EndChar

StartChar: cent
Encoding: 162 162 475
Width: 501
Flags: W
LayerCount: 2
Fore
SplineSet
390 25 m 1,0,1
 319 -9 319 -9 253 -10 c 1,2,-1
 238 -105 l 1,3,-1
 219 -105 l 1,4,-1
 234 -10 l 1,5,6
 123 -7 123 -7 69.5 65.5 c 128,-1,7
 16 138 16 138 35 260 c 256,8,9
 54 382 54 382 130.5 454.5 c 128,-1,10
 207 527 207 527 319 530 c 1,11,-1
 334 625 l 1,12,-1
 354 625 l 1,13,-1
 339 530 l 1,14,15
 405 529 405 529 465 495 c 1,16,-1
 453 477 l 1,17,18
 396 509 396 509 336 510 c 1,19,-1
 256 10 l 1,20,21
 317 11 317 11 384 43 c 1,22,-1
 390 25 l 1,0,1
85 80 m 128,-1,24
 133 13 133 13 237 10 c 1,25,-1
 316 510 l 1,26,27
 212 507 212 507 142.5 440 c 128,-1,28
 73 373 73 373 55 260 c 256,29,23
 37 147 37 147 85 80 c 128,-1,24
EndSplineSet
EndChar

StartChar: colonmonetary
Encoding: 8353 8353 476
Width: 672
Flags: W
LayerCount: 2
Fore
SplineSet
585 55 m 1,0,1
 493 -1 493 -1 389 -8 c 1,2,-1
 366 -105 l 1,3,-1
 347 -105 l 1,4,-1
 370 -10 l 1,5,-1
 351 -10 l 2,6,7
 285 -10 285 -10 228 9 c 1,8,-1
 200 -105 l 1,9,-1
 180 -105 l 1,10,-1
 209 16 l 1,11,12
 116 55 116 55 75.5 146.5 c 128,-1,13
 35 238 35 238 56 365 c 0,14,15
 71 461 71 461 116 538 c 128,-1,16
 161 615 161 615 229 664.5 c 128,-1,17
 297 714 297 714 382 731 c 1,18,-1
 407 835 l 1,19,-1
 427 835 l 1,20,-1
 402 735 l 1,21,22
 439 740 439 740 470 740 c 0,23,24
 515 740 515 740 549 733 c 1,25,-1
 574 835 l 1,26,-1
 594 835 l 1,27,-1
 568 729 l 1,28,29
 633 713 633 713 683 675 c 1,30,-1
 669 658 l 1,31,32
 623 692 623 692 563 709 c 1,33,-1
 395 12 l 1,34,35
 494 21 494 21 577 72 c 1,36,-1
 585 55 l 1,0,1
375 10 m 1,37,-1
 545 713 l 1,38,39
 511 720 511 720 467 720 c 0,40,41
 432 720 432 720 398 714 c 1,42,-1
 232 30 l 1,43,44
 288 10 288 10 354 10 c 2,45,-1
 375 10 l 1,37,-1
93 160.5 m 128,-1,47
 130 75 130 75 214 37 c 1,48,-1
 377 711 l 1,49,50
 257 685 257 685 177 593.5 c 128,-1,51
 97 502 97 502 75 365 c 0,52,46
 56 246 56 246 93 160.5 c 128,-1,47
EndSplineSet
EndChar

StartChar: currency
Encoding: 164 164 477
Width: 653
Flags: W
LayerCount: 2
Fore
SplineSet
528 285 m 128,-1,1
 507 247 507 247 476 217 c 1,2,-1
 557 118 l 1,3,-1
 540 103 l 1,4,-1
 459 202 l 1,5,6
 425 175 425 175 385.5 160 c 128,-1,7
 346 145 346 145 305 145 c 256,8,9
 264 145 264 145 229 160 c 128,-1,10
 194 175 194 175 169 202 c 1,11,-1
 56 103 l 1,12,-1
 44 118 l 1,13,-1
 156 217 l 1,14,15
 134 247 134 247 125.5 285 c 128,-1,16
 117 323 117 323 124 365 c 256,17,18
 131 407 131 407 151.5 445 c 128,-1,19
 172 483 172 483 203 513 c 1,20,-1
 122 613 l 1,21,-1
 139 627 l 1,22,-1
 220 528 l 1,23,24
 254 555 254 555 293.5 570 c 128,-1,25
 333 585 333 585 374 585 c 256,26,27
 415 585 415 585 450 570 c 128,-1,28
 485 555 485 555 510 528 c 1,29,-1
 623 627 l 1,30,-1
 636 612 l 1,31,-1
 523 513 l 1,32,33
 545 483 545 483 553.5 445 c 128,-1,34
 562 407 562 407 555 365 c 256,35,0
 549 323 549 323 528 285 c 128,-1,1
154 265 m 128,-1,37
 173 219 173 219 214 192 c 128,-1,38
 255 165 255 165 308 165 c 256,39,40
 361 165 361 165 410.5 192 c 128,-1,41
 460 219 460 219 493.5 265 c 128,-1,42
 527 311 527 311 536 365 c 256,43,44
 545 419 545 419 525.5 465 c 128,-1,45
 506 511 506 511 465 538 c 128,-1,46
 424 565 424 565 371 565 c 256,47,48
 318 565 318 565 269 538 c 128,-1,49
 220 511 220 511 186 465 c 128,-1,50
 152 419 152 419 144 365 c 256,51,36
 135 311 135 311 154 265 c 128,-1,37
EndSplineSet
EndChar

StartChar: dollar
Encoding: 36 36 478
Width: 592
Flags: W
LayerCount: 2
Fore
SplineSet
434 42 m 128,-1,1
 367 -8 367 -8 259 -10 c 1,2,-1
 244 -105 l 1,3,-1
 225 -105 l 1,4,-1
 240 -10 l 1,5,6
 177 -9 177 -9 121.5 9.5 c 128,-1,7
 66 28 66 28 25 60 c 1,8,-1
 40 76 l 1,9,10
 78 46 78 46 130.5 28.5 c 128,-1,11
 183 11 183 11 243 10 c 1,12,-1
 302 383 l 1,13,14
 191 425 191 425 149.5 469.5 c 128,-1,15
 108 514 108 514 119 580 c 0,16,17
 131 655 131 655 193 696.5 c 128,-1,18
 255 738 255 738 359 740 c 1,19,-1
 374 835 l 1,20,-1
 393 835 l 1,21,-1
 378 740 l 1,22,23
 497 737 497 737 583 680 c 1,24,-1
 571 663 l 1,25,26
 488 717 488 717 375 720 c 1,27,-1
 324 397 l 1,28,29
 404 366 404 366 448 336 c 128,-1,30
 492 306 492 306 507.5 269 c 128,-1,31
 523 232 523 232 515 180 c 0,32,0
 501 92 501 92 434 42 c 128,-1,1
167 482.5 m 128,-1,34
 205 443 205 443 305 404 c 1,35,-1
 355 720 l 1,36,37
 260 718 260 718 204.5 682 c 128,-1,38
 149 646 149 646 138 580 c 0,39,33
 129 522 129 522 167 482.5 c 128,-1,34
422.5 56.5 m 128,-1,41
 483 101 483 101 495 180 c 0,42,43
 502 226 502 226 488 259.5 c 128,-1,44
 474 293 474 293 434 320.5 c 128,-1,45
 394 348 394 348 321 376 c 1,46,-1
 263 10 l 1,47,40
 362 12 362 12 422.5 56.5 c 128,-1,41
EndSplineSet
EndChar

StartChar: dong
Encoding: 8363 8363 479
Width: 652
Flags: W
LayerCount: 2
Fore
SplineSet
653 660 m 1,0,-1
 650 640 l 1,1,-1
 533 640 l 1,2,-1
 455 150 l 1,3,-1
 435 150 l 1,4,-1
 451 246 l 1,5,-1
 449 246 l 1,6,7
 418 197 418 197 365.5 169.5 c 128,-1,8
 313 142 313 142 248 142 c 0,9,10
 152 142 152 142 106 199.5 c 128,-1,11
 60 257 60 257 76 358 c 256,12,13
 92 459 92 459 156 516.5 c 128,-1,14
 220 574 220 574 316 574 c 0,15,16
 381 574 381 574 424.5 546.5 c 128,-1,17
 468 519 468 519 484 470 c 1,18,-1
 486 470 l 1,19,-1
 513 640 l 1,20,-1
 239 640 l 1,21,-1
 242 660 l 1,22,-1
 516 660 l 1,23,-1
 530 750 l 1,24,-1
 550 750 l 1,25,-1
 536 660 l 1,26,-1
 653 660 l 1,0,-1
393.5 210 m 128,-1,28
 452 258 452 258 465 338 c 2,29,-1
 471 378 l 2,30,31
 484 458 484 458 440.5 506 c 128,-1,32
 397 554 397 554 313 554 c 0,33,34
 226 554 226 554 168 502 c 128,-1,35
 110 450 110 450 96 358 c 256,36,37
 81 266 81 266 122.5 214 c 128,-1,38
 164 162 164 162 251 162 c 0,39,27
 335 162 335 162 393.5 210 c 128,-1,28
25 0 m 1,40,-1
 28 20 l 1,41,-1
 552 20 l 1,42,-1
 549 0 l 1,43,-1
 25 0 l 1,40,-1
EndSplineSet
EndChar

StartChar: Euro
Encoding: 8364 8364 480
Width: 750
GlyphClass: 2
Flags: W
AnchorPoint: "Anchor-1" 424 730 basechar 0
AnchorPoint: "Anchor-0" 424 0 basechar 0
LayerCount: 2
Fore
SplineSet
655 72 m 1,1,-1
 663 55 l 1,2,3
 558 -10 558 -10 433 -10 c 0,4,5
 299 -10 299 -10 220.5 65 c 128,-1,6
 142 140 142 140 137 270 c 1,7,-1
 32 270 l 1,8,-1
 36 290 l 1,9,-1
 136 290 l 1,10,11
 137 330 137 330 143 365 c 256,12,13
 149 400 149 400 160 440 c 1,14,-1
 59 440 l 1,15,-1
 62 460 l 1,16,-1
 167 460 l 1,17,18
 213 590 213 590 315 665 c 128,-1,19
 417 740 417 740 552 740 c 0,20,21
 676 740 676 740 761 675 c 1,22,-1
 747 658 l 1,23,24
 667 720 667 720 549 720 c 0,25,26
 424 720 424 720 328 650.5 c 128,-1,27
 232 581 232 581 187 460 c 1,28,-1
 650 460 l 1,29,-1
 647 440 l 1,30,-1
 181 440 l 1,31,32
 169 404 169 404 163 365 c 256,33,34
 157 326 157 326 157 290 c 1,35,-1
 624 290 l 1,36,-1
 620 270 l 1,37,-1
 157 270 l 1,38,39
 163 148 163 148 236.5 79 c 128,-1,40
 310 10 310 10 436 10 c 0,41,0
 555 10 555 10 655 72 c 1,1,-1
EndSplineSet
EndChar

StartChar: florin
Encoding: 402 402 481
Width: 411
Flags: W
LayerCount: 2
Fore
SplineSet
-39 -105 m 1,1,-1
 -28 -86 l 1,2,3
 0 -100 0 -100 32 -100 c 0,4,5
 85 -100 85 -100 115 -69 c 128,-1,6
 145 -38 145 -38 155 30 c 2,7,-1
 211 380 l 1,8,-1
 61 380 l 1,9,-1
 64 400 l 1,10,-1
 214 400 l 1,11,-1
 244 590 l 2,12,13
 256 666 256 666 292 703 c 128,-1,14
 328 740 328 740 389 740 c 0,15,16
 424 740 424 740 457 725 c 1,17,-1
 447 706 l 1,18,19
 419 720 419 720 386 720 c 0,20,21
 333 720 333 720 303.5 689 c 128,-1,22
 274 658 274 658 263 590 c 2,23,-1
 233 400 l 1,24,-1
 406 400 l 1,25,-1
 403 380 l 1,26,-1
 230 380 l 1,27,-1
 174 30 l 2,28,29
 162 -46 162 -46 126.5 -83 c 128,-1,30
 91 -120 91 -120 29 -120 c 0,31,0
 -6 -120 -6 -120 -39 -105 c 1,1,-1
EndSplineSet
EndChar

StartChar: franc
Encoding: 8355 8355 482
Width: 594
Flags: W
LayerCount: 2
Fore
SplineSet
614 710 m 1,0,-1
 222 710 l 1,1,-1
 176 420 l 1,2,-1
 549 420 l 1,3,-1
 545 400 l 1,4,-1
 173 400 l 1,5,-1
 134 155 l 1,6,-1
 418 155 l 1,7,-1
 415 135 l 1,8,-1
 131 135 l 1,9,-1
 110 0 l 1,10,-1
 90 0 l 1,11,-1
 111 135 l 1,12,-1
 4 135 l 1,13,-1
 7 155 l 1,14,-1
 115 155 l 1,15,-1
 206 730 l 1,16,-1
 617 730 l 1,17,-1
 614 710 l 1,0,-1
EndSplineSet
EndChar

StartChar: uni20B2
Encoding: 8370 8370 483
Width: 763
Flags: W
LayerCount: 2
Fore
SplineSet
708 400 m 1,0,-1
 652 44 l 1,1,2
 596 19 596 19 521.5 4.5 c 128,-1,3
 447 -10 447 -10 378 -10 c 0,4,5
 354 -10 354 -10 342 -9 c 1,6,-1
 327 -105 l 1,7,-1
 307 -105 l 1,8,-1
 323 -7 l 1,9,10
 172 8 172 8 101 106 c 128,-1,11
 30 204 30 204 56 365 c 256,12,13
 82 526 82 526 183.5 624 c 128,-1,14
 285 722 285 722 441 737 c 1,15,-1
 456 835 l 1,16,-1
 476 835 l 1,17,-1
 461 739 l 1,18,19
 473 740 473 740 497 740 c 0,20,21
 633 740 633 740 726 680 c 1,22,-1
 713 663 l 1,23,24
 626 720 626 720 494 720 c 0,25,26
 470 720 470 720 458 719 c 1,27,-1
 407 400 l 1,28,-1
 708 400 l 1,0,-1
117.5 120 m 128,-1,30
 184 28 184 28 326 13 c 1,31,-1
 438 717 l 1,32,33
 291 702 291 702 195 610 c 128,-1,34
 99 518 99 518 75 365 c 256,35,29
 51 212 51 212 117.5 120 c 128,-1,30
382 10 m 0,37,38
 445 10 445 10 512.5 23 c 128,-1,39
 580 36 580 36 634 57 c 1,40,-1
 685 380 l 1,41,-1
 404 380 l 1,42,-1
 345 11 l 1,43,36
 358 10 358 10 382 10 c 0,37,38
EndSplineSet
EndChar

StartChar: uni20AD
Encoding: 8365 8365 484
Width: 674
GlyphClass: 2
Flags: W
AnchorPoint: "Anchor-1" 280 730 basechar 0
AnchorPoint: "Anchor-0" 280 0 basechar 0
LayerCount: 2
Fore
SplineSet
624 400 m 1,0,-1
 621 380 l 1,1,-1
 195 380 l 1,2,-1
 560 0 l 1,3,-1
 531 0 l 1,4,-1
 171 376 l 1,5,-1
 169 376 l 1,6,-1
 110 0 l 1,7,-1
 90 0 l 1,8,-1
 150 380 l 1,9,-1
 42 380 l 1,10,-1
 46 400 l 1,11,-1
 153 400 l 1,12,-1
 206 730 l 1,13,-1
 225 730 l 1,14,-1
 174 404 l 1,15,-1
 176 404 l 1,16,-1
 634 730 l 1,17,-1
 666 730 l 1,18,-1
 200 400 l 1,19,-1
 624 400 l 1,0,-1
EndSplineSet
EndChar

StartChar: lira
Encoding: 8356 8356 485
Width: 630
Flags: W
LayerCount: 2
Fore
SplineSet
524 20 m 1,0,-1
 521 0 l 1,1,-1
 51 0 l 1,2,-1
 54 20 l 1,3,4
 84 22 84 22 114 44.5 c 128,-1,5
 144 67 144 67 167.5 107 c 128,-1,6
 191 147 191 147 200 200 c 2,7,-1
 215 295 l 1,8,-1
 97 295 l 1,9,-1
 100 315 l 1,10,-1
 218 315 l 1,11,-1
 242 465 l 1,12,-1
 124 465 l 1,13,-1
 127 485 l 1,14,-1
 245 485 l 1,15,-1
 255 550 l 2,16,17
 270 642 270 642 329 691 c 128,-1,18
 388 740 388 740 486 740 c 0,19,20
 548 740 548 740 598 714 c 1,21,-1
 587 696 l 1,22,23
 542 720 542 720 483 720 c 0,24,25
 394 720 394 720 341 676.5 c 128,-1,26
 288 633 288 633 275 550 c 2,27,-1
 265 485 l 1,28,-1
 539 485 l 1,29,-1
 536 465 l 1,30,-1
 261 465 l 1,31,-1
 238 315 l 1,32,-1
 512 315 l 1,33,-1
 509 295 l 1,34,-1
 234 295 l 1,35,-1
 219 200 l 2,36,37
 210 141 210 141 181 94.5 c 128,-1,38
 152 48 152 48 111 22 c 1,39,-1
 111 20 l 1,40,-1
 524 20 l 1,0,-1
EndSplineSet
EndChar

StartChar: uni20BA
Encoding: 8378 8378 486
Width: 644
Flags: W
LayerCount: 2
Fore
SplineSet
614 340 m 1,0,1
 595 217 595 217 537.5 140 c 128,-1,2
 480 63 480 63 380 26.5 c 128,-1,3
 280 -10 280 -10 128 -10 c 2,4,-1
 89 -10 l 1,5,-1
 153 396 l 1,6,-1
 42 375 l 1,7,-1
 45 395 l 1,8,-1
 156 416 l 1,9,-1
 180 566 l 1,10,-1
 69 545 l 1,11,-1
 72 565 l 1,12,-1
 183 586 l 1,13,-1
 206 730 l 1,14,-1
 225 730 l 1,15,-1
 203 590 l 1,16,-1
 496 645 l 1,17,-1
 493 625 l 1,18,-1
 200 570 l 1,19,-1
 176 420 l 1,20,-1
 469 475 l 1,21,-1
 466 455 l 1,22,-1
 173 400 l 1,23,-1
 111 10 l 1,24,-1
 131 10 l 2,25,26
 278 10 278 10 373.5 44 c 128,-1,27
 469 78 469 78 522.5 150.5 c 128,-1,28
 576 223 576 223 595 340 c 1,29,-1
 614 340 l 1,0,1
EndSplineSet
EndChar

StartChar: uni20BC
Encoding: 8380 8380 487
Width: 723
Flags: W
CounterMasks: 1 38
LayerCount: 2
Fore
SplineSet
643 669.5 m 128,-1,1
 696 599 696 599 674 460 c 2,2,-1
 601 0 l 1,3,-1
 581 0 l 1,4,-1
 654 460 l 2,5,6
 695 720 695 720 460 720 c 2,7,-1
 440 720 l 1,8,-1
 326 0 l 1,9,-1
 307 0 l 1,10,-1
 421 720 l 1,11,-1
 401 720 l 2,12,13
 166 720 166 720 125 460 c 2,14,-1
 52 0 l 1,15,-1
 32 0 l 1,16,-1
 105 460 l 2,17,18
 127 599 127 599 202.5 669.5 c 128,-1,19
 278 740 278 740 404 740 c 2,20,-1
 424 740 l 1,21,-1
 439 835 l 1,22,-1
 459 835 l 1,23,-1
 444 740 l 1,24,-1
 463 740 l 2,25,0
 590 740 590 740 643 669.5 c 128,-1,1
EndSplineSet
EndChar

StartChar: uni20A6
Encoding: 8358 8358 488
Width: 779
GlyphClass: 2
Flags: W
AnchorPoint: "Anchor-1" 355 730 basechar 0
AnchorPoint: "Anchor-0" 355 0 basechar 0
LayerCount: 2
Fore
SplineSet
777 440 m 1,0,-1
 669 440 l 1,1,-1
 646 290 l 1,2,-1
 753 290 l 1,3,-1
 750 270 l 1,4,-1
 642 270 l 1,5,-1
 600 0 l 1,6,-1
 568 0 l 1,7,-1
 438 270 l 1,8,-1
 152 270 l 1,9,-1
 110 0 l 1,10,-1
 90 0 l 1,11,-1
 133 270 l 1,12,-1
 25 270 l 1,13,-1
 28 290 l 1,14,-1
 136 290 l 1,15,-1
 160 440 l 1,16,-1
 52 440 l 1,17,-1
 55 460 l 1,18,-1
 163 460 l 1,19,-1
 206 730 l 1,20,-1
 237 730 l 1,21,-1
 368 460 l 1,22,-1
 653 460 l 1,23,-1
 696 730 l 1,24,-1
 715 730 l 1,25,-1
 673 460 l 1,26,-1
 780 460 l 1,27,-1
 777 440 l 1,0,-1
222 709 m 1,28,-1
 183 460 l 1,29,-1
 345 460 l 1,30,-1
 224 709 l 1,31,-1
 222 709 l 1,28,-1
427 290 m 1,32,-1
 355 440 l 1,33,-1
 179 440 l 1,34,-1
 156 290 l 1,35,-1
 427 290 l 1,32,-1
626 290 m 1,36,-1
 650 440 l 1,37,-1
 378 440 l 1,38,-1
 451 290 l 1,39,-1
 626 290 l 1,36,-1
583 21 m 1,40,-1
 623 270 l 1,41,-1
 460 270 l 1,42,-1
 581 21 l 1,43,-1
 583 21 l 1,40,-1
EndSplineSet
EndChar

StartChar: peseta
Encoding: 8359 8359 489
Width: 665
Flags: W
LayerCount: 2
Fore
SplineSet
689 505 m 1,0,-1
 601 505 l 1,1,2
 581 398 581 398 505.5 349 c 128,-1,3
 430 300 430 300 285 300 c 2,4,-1
 157 300 l 1,5,-1
 110 0 l 1,6,-1
 90 0 l 1,7,-1
 170 505 l 1,8,-1
 62 505 l 1,9,-1
 65 525 l 1,10,-1
 173 525 l 1,11,-1
 206 730 l 1,12,-1
 353 730 l 2,13,14
 498 730 498 730 558 681 c 128,-1,15
 618 632 618 632 604 525 c 1,16,-1
 693 525 l 1,17,-1
 689 505 l 1,0,-1
193 525 m 1,18,-1
 585 525 l 1,19,20
 598 623 598 623 542 666.5 c 128,-1,21
 486 710 486 710 350 710 c 2,22,-1
 222 710 l 1,23,-1
 193 525 l 1,18,-1
493.5 363.5 m 128,-1,25
 563 407 563 407 582 505 c 1,26,-1
 190 505 l 1,27,-1
 160 320 l 1,28,-1
 288 320 l 2,29,24
 424 320 424 320 493.5 363.5 c 128,-1,25
EndSplineSet
EndChar

StartChar: uni20B1
Encoding: 8369 8369 490
Width: 665
Flags: W
LayerCount: 2
Fore
SplineSet
703 590 m 1,0,-1
 606 590 l 1,1,2
 610 557 610 557 603 515 c 256,3,4
 596 473 596 473 582 440 c 1,5,-1
 679 440 l 1,6,-1
 676 420 l 1,7,-1
 572 420 l 1,8,9
 538 359 538 359 467 329.5 c 128,-1,10
 396 300 396 300 285 300 c 2,11,-1
 157 300 l 1,12,-1
 110 0 l 1,13,-1
 90 0 l 1,14,-1
 157 420 l 1,15,-1
 49 420 l 1,16,-1
 52 440 l 1,17,-1
 160 440 l 1,18,-1
 184 590 l 1,19,-1
 76 590 l 1,20,-1
 79 610 l 1,21,-1
 187 610 l 1,22,-1
 206 730 l 1,23,-1
 353 730 l 2,24,25
 465 730 465 730 526 700.5 c 128,-1,26
 587 671 587 671 602 610 c 1,27,-1
 706 610 l 1,28,-1
 703 590 l 1,0,-1
206 610 m 1,29,-1
 581 610 l 1,30,31
 565 662 565 662 508 686 c 128,-1,32
 451 710 451 710 350 710 c 2,33,-1
 222 710 l 1,34,-1
 206 610 l 1,29,-1
585 590 m 1,36,-1
 203 590 l 1,37,-1
 179 440 l 1,38,-1
 562 440 l 1,39,40
 577 471 577 471 583 515 c 256,41,35
 590 559 590 559 585 590 c 1,36,-1
454 344 m 128,-1,43
 518 368 518 368 551 420 c 1,44,-1
 176 420 l 1,45,-1
 160 320 l 1,46,-1
 288 320 l 2,47,42
 390 320 390 320 454 344 c 128,-1,43
EndSplineSet
EndChar

StartChar: uni20BD
Encoding: 8381 8381 491
Width: 592
Flags: W
LayerCount: 2
Fore
SplineSet
159 310 m 1,0,-1
 135 160 l 1,1,-1
 419 160 l 1,2,-1
 416 140 l 1,3,-1
 132 140 l 1,4,-1
 110 0 l 1,5,-1
 90 0 l 1,6,-1
 112 140 l 1,7,-1
 4 140 l 1,8,-1
 8 160 l 1,9,-1
 115 160 l 1,10,-1
 139 310 l 1,11,-1
 31 310 l 1,12,-1
 35 330 l 1,13,-1
 142 330 l 1,14,-1
 206 730 l 1,15,-1
 353 730 l 2,16,17
 501 730 501 730 561 680 c 128,-1,18
 621 630 621 630 604 520 c 256,19,20
 587 410 587 410 510.5 360 c 128,-1,21
 434 310 434 310 286 310 c 2,22,-1
 159 310 l 1,0,-1
162 330 m 1,23,-1
 289 330 l 2,24,25
 429 330 429 330 498.5 374.5 c 128,-1,26
 568 419 568 419 584 520 c 256,27,28
 600 621 600 621 545 665.5 c 128,-1,29
 490 710 490 710 350 710 c 2,30,-1
 222 710 l 1,31,-1
 162 330 l 1,23,-1
EndSplineSet
EndChar

StartChar: uni20B9
Encoding: 8377 8377 492
Width: 615
Flags: W
LayerCount: 2
Fore
SplineSet
624 710 m 1,0,-1
 415 710 l 1,1,2
 472 691 472 691 495.5 651.5 c 128,-1,3
 519 612 519 612 511 550 c 1,4,-1
 599 550 l 1,5,-1
 596 530 l 1,6,-1
 508 530 l 1,7,8
 489 436 489 436 414.5 393 c 128,-1,9
 340 350 340 350 195 350 c 2,10,-1
 156 350 l 1,11,-1
 443 0 l 1,12,-1
 416 0 l 1,13,-1
 129 350 l 1,14,-1
 58 350 l 1,15,-1
 61 370 l 1,16,-1
 198 370 l 2,17,18
 335 370 335 370 403 408 c 128,-1,19
 471 446 471 446 488 530 c 1,20,-1
 86 530 l 1,21,-1
 89 550 l 1,22,-1
 491 550 l 1,23,24
 500 634 500 634 444.5 672 c 128,-1,25
 389 710 389 710 252 710 c 2,26,-1
 115 710 l 1,27,-1
 118 730 l 1,28,-1
 628 730 l 1,29,-1
 624 710 l 1,0,-1
EndSplineSet
EndChar

StartChar: sterling
Encoding: 163 163 493
Width: 630
Flags: W
LayerCount: 2
Fore
SplineSet
524 20 m 1,0,-1
 521 0 l 1,1,-1
 51 0 l 1,2,-1
 54 20 l 1,3,4
 84 22 84 22 114 44.5 c 128,-1,5
 144 67 144 67 167.5 107 c 128,-1,6
 191 147 191 147 200 200 c 2,7,-1
 228 380 l 1,8,-1
 111 380 l 1,9,-1
 114 400 l 1,10,-1
 232 400 l 1,11,-1
 255 550 l 2,12,13
 270 642 270 642 329 691 c 128,-1,14
 388 740 388 740 486 740 c 0,15,16
 548 740 548 740 598 714 c 1,17,-1
 587 696 l 1,18,19
 542 720 542 720 483 720 c 0,20,21
 394 720 394 720 341 676.5 c 128,-1,22
 288 633 288 633 275 550 c 2,23,-1
 251 400 l 1,24,-1
 526 400 l 1,25,-1
 522 380 l 1,26,-1
 248 380 l 1,27,-1
 219 200 l 2,28,29
 210 141 210 141 181 94.5 c 128,-1,30
 152 48 152 48 111 22 c 1,31,-1
 111 20 l 1,32,-1
 524 20 l 1,0,-1
EndSplineSet
EndChar

StartChar: uni20A9
Encoding: 8361 8361 494
Width: 936
GlyphClass: 2
Flags: W
AnchorPoint: "Anchor-1" 435 730 basechar 0
AnchorPoint: "Anchor-0" 435 0 basechar 0
LayerCount: 2
Fore
SplineSet
934 440 m 1,0,-1
 826 440 l 1,1,-1
 764 290 l 1,2,-1
 910 290 l 1,3,-1
 907 270 l 1,4,-1
 756 270 l 1,5,-1
 645 0 l 1,6,-1
 613 0 l 1,7,-1
 573 270 l 1,8,-1
 359 270 l 1,9,-1
 233 0 l 1,10,-1
 202 0 l 1,11,-1
 176 270 l 1,12,-1
 25 270 l 1,13,-1
 28 290 l 1,14,-1
 174 290 l 1,15,-1
 160 440 l 1,16,-1
 52 440 l 1,17,-1
 55 460 l 1,18,-1
 158 460 l 1,19,-1
 132 730 l 1,20,-1
 153 730 l 1,21,-1
 178 460 l 1,22,-1
 428 460 l 1,23,-1
 507 630 l 1,24,-1
 539 630 l 1,25,-1
 565 460 l 1,26,-1
 815 460 l 1,27,-1
 925 730 l 1,28,-1
 946 730 l 1,29,-1
 834 460 l 1,30,-1
 937 460 l 1,31,-1
 934 440 l 1,0,-1
519 613 m 1,32,-1
 448 460 l 1,33,-1
 544 460 l 1,34,-1
 521 613 l 1,35,-1
 519 613 l 1,32,-1
179 440 m 1,36,-1
 194 290 l 1,37,-1
 349 290 l 1,38,-1
 419 440 l 1,39,-1
 179 440 l 1,36,-1
570 290 m 1,40,-1
 547 440 l 1,41,-1
 439 440 l 1,42,-1
 368 290 l 1,43,-1
 570 290 l 1,40,-1
745 290 m 1,44,-1
 807 440 l 1,45,-1
 567 440 l 1,46,-1
 590 290 l 1,47,-1
 745 290 l 1,44,-1
221 17 m 1,48,-1
 340 270 l 1,49,-1
 196 270 l 1,50,-1
 219 17 l 1,51,-1
 221 17 l 1,48,-1
633 17 m 1,52,-1
 737 270 l 1,53,-1
 592 270 l 1,54,-1
 631 17 l 1,55,-1
 633 17 l 1,52,-1
EndSplineSet
EndChar

StartChar: yen
Encoding: 165 165 495
Width: 608
Flags: W
LayerCount: 2
Fore
SplineSet
669 730 m 1,0,-1
 331 340 l 1,1,-1
 548 340 l 1,2,-1
 545 320 l 1,3,-1
 319 320 l 1,4,-1
 296 170 l 1,5,-1
 521 170 l 1,6,-1
 518 150 l 1,7,-1
 293 150 l 1,8,-1
 269 0 l 1,9,-1
 249 0 l 1,10,-1
 273 150 l 1,11,-1
 48 150 l 1,12,-1
 51 170 l 1,13,-1
 276 170 l 1,14,-1
 300 320 l 1,15,-1
 74 320 l 1,16,-1
 78 340 l 1,17,-1
 294 340 l 1,18,-1
 81 730 l 1,19,-1
 105 730 l 1,20,-1
 313 348 l 1,21,-1
 315 348 l 1,22,-1
 644 730 l 1,23,-1
 669 730 l 1,0,-1
EndSplineSet
EndChar

StartChar: uni2215
Encoding: 8725 8725 497
Width: 365
Flags: W
LayerCount: 2
Fore
SplineSet
398 730 m 1,0,-1
 419 730 l 1,1,-1
 -6 0 l 1,2,-1
 -28 0 l 1,3,-1
 398 730 l 1,0,-1
EndSplineSet
EndChar

StartChar: plus
Encoding: 43 43 498
Width: 672
Flags: W
LayerCount: 2
Fore
SplineSet
326 280 m 1,0,-1
 51 280 l 1,1,-1
 54 300 l 1,2,-1
 329 300 l 1,3,-1
 373 580 l 1,4,-1
 393 580 l 1,5,-1
 348 300 l 1,6,-1
 623 300 l 1,7,-1
 620 280 l 1,8,-1
 345 280 l 1,9,-1
 301 0 l 1,10,-1
 281 0 l 1,11,-1
 326 280 l 1,0,-1
EndSplineSet
EndChar

StartChar: minus
Encoding: 8722 8722 499
Width: 672
Flags: W
LayerCount: 2
Fore
SplineSet
54 300 m 1,0,-1
 623 300 l 1,1,-1
 620 280 l 1,2,-1
 51 280 l 1,3,-1
 54 300 l 1,0,-1
EndSplineSet
EndChar

StartChar: multiply
Encoding: 215 215 500
Width: 563
Flags: W
LayerCount: 2
Fore
SplineSet
3 57 m 1,0,-1
 270 291 l 1,1,-1
 77 524 l 1,2,-1
 93 538 l 1,3,-1
 285 305 l 1,4,-1
 551 538 l 1,5,-1
 562 524 l 1,6,-1
 297 291 l 1,7,-1
 488 57 l 1,8,-1
 472 43 l 1,9,-1
 281 276 l 1,10,-1
 15 43 l 1,11,-1
 3 57 l 1,0,-1
EndSplineSet
EndChar

StartChar: divide
Encoding: 247 247 501
Width: 672
Flags: W
CounterMasks: 1 e0
LayerCount: 2
Fore
SplineSet
346.5 500.5 m 128,-1,1
 338 511 338 511 340 525 c 256,2,3
 342 539 342 539 354 549.5 c 128,-1,4
 366 560 366 560 380 560 c 256,5,6
 394 560 394 560 402.5 549.5 c 128,-1,7
 411 539 411 539 409 525 c 256,8,9
 407 511 407 511 394.5 500.5 c 128,-1,10
 382 490 382 490 369 490 c 256,11,0
 355 490 355 490 346.5 500.5 c 128,-1,1
54 300 m 1,12,-1
 623 300 l 1,13,-1
 620 280 l 1,14,-1
 51 280 l 1,15,-1
 54 300 l 1,12,-1
272 30.5 m 128,-1,17
 263 41 263 41 265 55 c 256,18,19
 267 69 267 69 279.5 79.5 c 128,-1,20
 292 90 292 90 305 90 c 256,21,22
 319 90 319 90 327.5 79.5 c 128,-1,23
 336 69 336 69 334 55 c 256,24,25
 332 41 332 41 320 30.5 c 128,-1,26
 308 20 308 20 294 20 c 256,27,16
 281 20 281 20 272 30.5 c 128,-1,17
EndSplineSet
EndChar

StartChar: equal
Encoding: 61 61 502
Width: 759
Flags: W
LayerCount: 2
Fore
SplineSet
115 410 m 1,0,-1
 684 410 l 1,1,-1
 681 390 l 1,2,-1
 112 390 l 1,3,-1
 115 410 l 1,0,-1
81 190 m 1,4,-1
 649 190 l 1,5,-1
 646 170 l 1,6,-1
 77 170 l 1,7,-1
 81 190 l 1,4,-1
EndSplineSet
EndChar

StartChar: notequal
Encoding: 8800 8800 503
Width: 759
Flags: W
LayerCount: 2
Fore
SplineSet
681 390 m 1,0,-1
 439 390 l 1,1,-1
 342 190 l 1,2,-1
 649 190 l 1,3,-1
 646 170 l 1,4,-1
 332 170 l 1,5,-1
 244 -12 l 1,6,-1
 227 -6 l 1,7,-1
 313 170 l 1,8,-1
 77 170 l 1,9,-1
 81 190 l 1,10,-1
 323 190 l 1,11,-1
 419 390 l 1,12,-1
 112 390 l 1,13,-1
 115 410 l 1,14,-1
 429 410 l 1,15,-1
 518 592 l 1,16,-1
 534 586 l 1,17,-1
 449 410 l 1,18,-1
 684 410 l 1,19,-1
 681 390 l 1,0,-1
EndSplineSet
EndChar

StartChar: greater
Encoding: 62 62 504
Width: 706
Flags: W
LayerCount: 2
Fore
SplineSet
50 52 m 1,0,-1
 634 289 l 1,1,-1
 634 291 l 1,2,-1
 125 528 l 1,3,-1
 129 550 l 1,4,-1
 658 303 l 1,5,-1
 654 277 l 1,6,-1
 46 30 l 1,7,-1
 50 52 l 1,0,-1
EndSplineSet
EndChar

StartChar: less
Encoding: 60 60 505
Width: 706
Flags: W
LayerCount: 2
Fore
SplineSet
51 277 m 1,0,-1
 55 303 l 1,1,-1
 662 550 l 1,2,-1
 659 528 l 1,3,-1
 75 291 l 1,4,-1
 74 289 l 1,5,-1
 584 52 l 1,6,-1
 580 30 l 1,7,-1
 51 277 l 1,0,-1
EndSplineSet
EndChar

StartChar: greaterequal
Encoding: 8805 8805 506
Width: 692
Flags: W
LayerCount: 2
Fore
SplineSet
61 180 m 1,0,-1
 64 202 l 1,1,-1
 649 439 l 1,2,-1
 649 441 l 1,3,-1
 140 678 l 1,4,-1
 143 700 l 1,5,-1
 672 453 l 1,6,-1
 668 427 l 1,7,-1
 61 180 l 1,0,-1
32 0 m 1,8,-1
 36 20 l 1,9,-1
 604 20 l 1,10,-1
 601 0 l 1,11,-1
 32 0 l 1,8,-1
EndSplineSet
EndChar

StartChar: lessequal
Encoding: 8804 8804 507
Width: 692
Flags: W
LayerCount: 2
Fore
SplineSet
73 453 m 1,0,-1
 681 700 l 1,1,-1
 677 678 l 1,2,-1
 93 441 l 1,3,-1
 93 439 l 1,4,-1
 602 202 l 1,5,-1
 598 180 l 1,6,-1
 69 427 l 1,7,-1
 73 453 l 1,0,-1
5 20 m 1,8,-1
 573 20 l 1,9,-1
 570 0 l 1,10,-1
 1 0 l 1,11,-1
 5 20 l 1,8,-1
EndSplineSet
EndChar

StartChar: plusminus
Encoding: 177 177 508
Width: 759
Flags: W
LayerCount: 2
Fore
SplineSet
393 430 m 1,0,-1
 119 430 l 1,1,-1
 122 450 l 1,2,-1
 396 450 l 1,3,-1
 441 730 l 1,4,-1
 460 730 l 1,5,-1
 416 450 l 1,6,-1
 690 450 l 1,7,-1
 687 430 l 1,8,-1
 413 430 l 1,9,-1
 368 150 l 1,10,-1
 349 150 l 1,11,-1
 393 430 l 1,0,-1
54 20 m 1,12,-1
 622 20 l 1,13,-1
 619 0 l 1,14,-1
 51 0 l 1,15,-1
 54 20 l 1,12,-1
EndSplineSet
EndChar

StartChar: asciitilde
Encoding: 126 126 510
Width: 652
Flags: W
LayerCount: 2
Fore
SplineSet
168 365 m 0,1,2
 198 365 198 365 237.5 351.5 c 128,-1,3
 277 338 277 338 334 309 c 0,4,5
 389 281 389 281 427 268 c 128,-1,6
 465 255 465 255 493 255 c 0,7,8
 576 255 576 255 592 355 c 1,9,-1
 612 355 l 1,10,11
 601 288 601 288 567 261.5 c 128,-1,12
 533 235 533 235 490 235 c 0,13,14
 460 235 460 235 420.5 248.5 c 128,-1,15
 381 262 381 262 323 291 c 0,16,17
 268 319 268 319 230.5 332 c 128,-1,18
 193 345 193 345 164 345 c 0,19,20
 121 345 121 345 97 318.5 c 128,-1,21
 73 292 73 292 64 235 c 1,22,-1
 44 235 l 1,23,0
 65 365 65 365 168 365 c 0,1,2
EndSplineSet
EndChar

StartChar: logicalnot
Encoding: 172 172 511
Width: 696
Flags: W
LayerCount: 2
Fore
SplineSet
598 390 m 1,0,-1
 69 390 l 1,1,-1
 72 410 l 1,2,-1
 621 410 l 1,3,-1
 583 170 l 1,4,-1
 563 170 l 1,5,-1
 598 390 l 1,0,-1
EndSplineSet
EndChar

StartChar: asciicircum
Encoding: 94 94 512
Width: 544
Flags: W
LayerCount: 2
Fore
SplineSet
328 730 m 1,0,-1
 357 730 l 1,1,-1
 526 280 l 1,2,-1
 504 280 l 1,3,-1
 341 716 l 1,4,-1
 340 716 l 1,5,-1
 39 280 l 1,6,-1
 17 280 l 1,7,-1
 328 730 l 1,0,-1
EndSplineSet
EndChar

StartChar: uni00B5
Encoding: 181 181 513
Width: 517
GlyphClass: 2
Flags: W
AnchorPoint: "Anchor-3" 426 480 basechar 0
AnchorPoint: "Anchor-2" 426 0 basechar 0
AnchorPoint: "Anchor-1" 234 520 basechar 0
AnchorPoint: "Anchor-0" 234 0 basechar 0
LayerCount: 2
Fore
SplineSet
478 520 m 1,0,-1
 395 0 l 1,1,-1
 376 0 l 1,2,-1
 397 128 l 1,3,-1
 395 128 l 1,4,5
 359 65 359 65 303 27.5 c 128,-1,6
 247 -10 247 -10 186 -10 c 0,7,8
 136 -10 136 -10 102.5 15.5 c 128,-1,9
 69 41 69 41 58 89 c 1,10,-1
 9 -220 l 1,11,-1
 -10 -220 l 1,12,-1
 107 520 l 1,13,-1
 126 520 l 1,14,-1
 76 200 l 2,15,16
 62 110 62 110 91.5 60 c 128,-1,17
 121 10 121 10 189 10 c 0,18,19
 241 10 241 10 289 39.5 c 128,-1,20
 337 69 337 69 370 119 c 128,-1,21
 403 169 403 169 413 230 c 2,22,-1
 459 520 l 1,23,-1
 478 520 l 1,0,-1
EndSplineSet
EndChar

StartChar: percent
Encoding: 37 37 514
Width: 792
Flags: W
LayerCount: 2
Fore
SplineSet
90.5 343.5 m 128,-1,1
 62 401 62 401 80 511 c 256,2,3
 97 621 97 621 144 678.5 c 128,-1,4
 191 736 191 736 262 736 c 0,5,6
 335 736 335 736 363 678.5 c 128,-1,7
 391 621 391 621 374 511 c 256,8,9
 357 401 357 401 310 343.5 c 128,-1,10
 263 286 263 286 191 286 c 256,11,0
 119 286 119 286 90.5 343.5 c 128,-1,1
662 730 m 1,12,-1
 685 730 l 1,13,-1
 156 0 l 1,14,-1
 134 0 l 1,15,-1
 662 730 l 1,12,-1
354 511 m 256,17,18
 386 716 386 716 259 716 c 256,19,20
 132 716 132 716 99 511 c 256,21,22
 67 306 67 306 194 306 c 256,23,16
 322 306 322 306 354 511 c 256,17,18
456.5 51.5 m 128,-1,25
 428 109 428 109 445 219 c 256,26,27
 462 329 462 329 509 386.5 c 128,-1,28
 556 444 556 444 628 444 c 0,29,30
 701 444 701 444 728.5 386.5 c 128,-1,31
 756 329 756 329 739 219 c 256,32,33
 722 109 722 109 675.5 51.5 c 128,-1,34
 629 -6 629 -6 556 -6 c 0,35,24
 485 -6 485 -6 456.5 51.5 c 128,-1,25
719 219 m 256,37,38
 751 424 751 424 624 424 c 256,39,40
 497 424 497 424 465 219 c 256,41,42
 433 14 433 14 559 14 c 256,43,36
 687 14 687 14 719 219 c 256,37,38
EndSplineSet
EndChar

StartChar: at
Encoding: 64 64 516
Width: 800
Flags: W
LayerCount: 2
Fore
SplineSet
499 50 m 1,0,-1
 512 133 l 1,1,-1
 510 133 l 1,2,3
 456 40 456 40 349 40 c 0,4,5
 270 40 270 40 234.5 98 c 128,-1,6
 199 156 199 156 215 260 c 0,7,8
 231 362 231 362 285.5 421 c 128,-1,9
 340 480 340 480 419 480 c 0,10,11
 526 480 526 480 550 387 c 1,12,-1
 552 387 l 1,13,-1
 565 470 l 1,14,-1
 585 470 l 1,15,-1
 521 70 l 1,16,-1
 655 70 l 1,17,18
 718 152 718 152 735 260 c 0,19,20
 751 362 751 362 721 440.5 c 128,-1,21
 691 519 691 519 621 562 c 128,-1,22
 551 605 551 605 451 605 c 0,23,24
 353 605 353 605 269 561 c 128,-1,25
 185 517 185 517 129.5 438.5 c 128,-1,26
 74 360 74 360 59 260 c 256,27,28
 43 160 43 160 73.5 81.5 c 128,-1,29
 104 3 104 3 174 -41 c 128,-1,30
 244 -85 244 -85 342 -85 c 0,31,32
 454 -85 454 -85 548 -27 c 1,33,-1
 556 -43 l 1,34,35
 457 -105 457 -105 339 -105 c 0,36,37
 235 -105 235 -105 161 -58.5 c 128,-1,38
 87 -12 87 -12 54.5 71 c 128,-1,39
 22 154 22 154 39 260 c 256,40,41
 56 366 56 366 114.5 449 c 128,-1,42
 173 532 173 532 262 578.5 c 128,-1,43
 351 625 351 625 454 625 c 0,44,45
 560 625 560 625 634.5 579.5 c 128,-1,46
 709 534 709 534 740 451 c 128,-1,47
 771 368 771 368 754 260 c 0,48,49
 735 140 735 140 663 50 c 1,50,-1
 499 50 l 1,0,-1
469 107 m 128,-1,52
 515 154 515 154 529 240 c 2,53,-1
 535 280 l 2,54,55
 549 366 549 366 517.5 413 c 128,-1,56
 486 460 486 460 416 460 c 0,57,58
 347 460 347 460 298.5 406 c 128,-1,59
 250 352 250 352 235 260 c 0,60,61
 220 166 220 166 251.5 113 c 128,-1,62
 283 60 283 60 352 60 c 0,63,51
 423 60 423 60 469 107 c 128,-1,52
EndSplineSet
EndChar

StartChar: ampersand
Encoding: 38 38 517
Width: 633
Flags: W
LayerCount: 2
Fore
SplineSet
572 -3 m 1,0,-1
 489 111 l 1,1,2
 434 52 434 52 363 21 c 128,-1,3
 292 -10 292 -10 213 -10 c 0,4,5
 113 -10 113 -10 62.5 38.5 c 128,-1,6
 12 87 12 87 26 170 c 0,7,8
 33 212 33 212 56 247.5 c 128,-1,9
 79 283 79 283 125.5 320.5 c 128,-1,10
 172 358 172 358 253 408 c 2,11,-1
 268 417 l 1,12,-1
 255 433 l 2,13,14
 210 495 210 495 194.5 537.5 c 128,-1,15
 179 580 179 580 185 620 c 0,16,17
 194 677 194 677 238.5 708.5 c 128,-1,18
 283 740 283 740 356 740 c 256,19,20
 429 740 429 740 463.5 709 c 128,-1,21
 498 678 498 678 489 620 c 0,22,23
 481 569 481 569 437.5 522.5 c 128,-1,24
 394 476 394 476 297 414 c 1,25,-1
 487 150 l 1,26,-1
 532 430 l 1,27,-1
 552 430 l 1,28,-1
 503 128 l 1,29,-1
 588 10 l 1,30,-1
 572 -3 l 1,0,-1
286 428 m 1,31,32
 380 488 380 488 421 531.5 c 128,-1,33
 462 575 462 575 469 620 c 0,34,35
 477 669 477 669 447 694.5 c 128,-1,36
 417 720 417 720 353 720 c 256,37,38
 289 720 289 720 250.5 694 c 128,-1,39
 212 668 212 668 205 620 c 0,40,41
 199 584 199 584 214.5 544.5 c 128,-1,42
 230 505 230 505 272 447 c 2,43,-1
 286 428 l 1,31,32
358 39.5 m 128,-1,45
 425 69 425 69 478 126 c 1,46,-1
 278 402 l 1,47,-1
 262 392 l 2,48,49
 183 344 183 344 138.5 308.5 c 128,-1,50
 94 273 94 273 72.5 240.5 c 128,-1,51
 51 208 51 208 45 170 c 0,52,53
 33 96 33 96 78.5 53 c 128,-1,54
 124 10 124 10 216 10 c 0,55,44
 291 10 291 10 358 39.5 c 128,-1,45
EndSplineSet
EndChar

StartChar: paragraph
Encoding: 182 182 518
Width: 537
Flags: W
LayerCount: 2
Fore
SplineSet
125 301 m 128,-1,1
 78 332 78 332 56 385 c 128,-1,2
 34 438 34 438 44 500 c 256,3,4
 54 562 54 562 93 615 c 128,-1,5
 132 668 132 668 188.5 699 c 128,-1,6
 245 730 245 730 306 730 c 2,7,-1
 522 730 l 1,8,-1
 389 -110 l 1,9,-1
 369 -110 l 1,10,-1
 499 710 l 1,11,-1
 322 710 l 1,12,-1
 193 -110 l 1,13,-1
 173 -110 l 1,14,-1
 233 270 l 1,15,0
 172 270 172 270 125 301 c 128,-1,1
EndSplineSet
EndChar

StartChar: section
Encoding: 167 167 519
Width: 500
Flags: W
LayerCount: 2
Fore
SplineSet
378 99 m 128,-1,1
 388 70 388 70 382 30 c 0,2,3
 371 -38 371 -38 317.5 -79 c 128,-1,4
 264 -120 264 -120 186 -120 c 0,5,6
 141 -120 141 -120 103 -109 c 128,-1,7
 65 -98 65 -98 27 -74 c 1,8,-1
 40 -56 l 1,9,10
 77 -79 77 -79 112.5 -89.5 c 128,-1,11
 148 -100 148 -100 190 -100 c 0,12,13
 260 -100 260 -100 306.5 -64.5 c 128,-1,14
 353 -29 353 -29 362 30 c 0,15,16
 370 82 370 82 343 116 c 128,-1,17
 316 150 316 150 230 170 c 0,18,19
 139 192 139 192 103 232 c 128,-1,20
 67 272 67 272 78 340 c 0,21,22
 84 381 84 381 108.5 415 c 128,-1,23
 133 449 133 449 170 471 c 1,24,25
 141 492 141 492 131 521 c 128,-1,26
 121 550 121 550 127 590 c 0,27,28
 138 658 138 658 191.5 699 c 128,-1,29
 245 740 245 740 323 740 c 0,30,31
 368 740 368 740 406 729 c 128,-1,32
 444 718 444 718 482 694 c 1,33,-1
 469 676 l 1,34,35
 433 699 433 699 397.5 709.5 c 128,-1,36
 362 720 362 720 319 720 c 0,37,38
 249 720 249 720 202.5 684.5 c 128,-1,39
 156 649 156 649 147 590 c 0,40,41
 139 538 139 538 166 504 c 128,-1,42
 193 470 193 470 279 450 c 0,43,44
 370 428 370 428 406 388 c 128,-1,45
 442 348 442 348 431 280 c 0,46,47
 425 239 425 239 401 205 c 128,-1,48
 377 171 377 171 339 149 c 1,49,0
 368 128 368 128 378 99 c 128,-1,1
120.5 244.5 m 128,-1,51
 153 209 153 209 238 190 c 0,52,53
 289 178 289 178 321 160 c 1,54,55
 358 179 358 179 381.5 210 c 128,-1,56
 405 241 405 241 412 280 c 0,57,58
 422 340 422 340 389 375.5 c 128,-1,59
 356 411 356 411 272 430 c 0,60,61
 221 442 221 442 188 460 c 1,62,63
 151 441 151 441 127.5 410 c 128,-1,64
 104 379 104 379 98 340 c 0,65,50
 88 280 88 280 120.5 244.5 c 128,-1,51
EndSplineSet
EndChar

StartChar: copyright
Encoding: 169 169 520
Width: 800
Flags: W
LayerCount: 2
Fore
SplineSet
183.5 49 m 128,-1,1
 109 98 109 98 74.5 182 c 128,-1,2
 40 266 40 266 56 365 c 256,3,4
 72 464 72 464 133 548 c 128,-1,5
 194 632 194 632 284 681 c 128,-1,6
 374 730 374 730 471 730 c 256,7,8
 568 730 568 730 642.5 681 c 128,-1,9
 717 632 717 632 752 548 c 128,-1,10
 787 464 787 464 771 365 c 256,11,12
 755 266 755 266 694 182 c 128,-1,13
 633 98 633 98 542.5 49 c 128,-1,14
 452 0 452 0 355 0 c 256,15,0
 258 0 258 0 183.5 49 c 128,-1,1
535.5 66.5 m 128,-1,17
 620 113 620 113 678 192 c 128,-1,18
 736 271 736 271 751 365 c 256,19,20
 766 459 766 459 733 538 c 128,-1,21
 700 617 700 617 630 663.5 c 128,-1,22
 560 710 560 710 468 710 c 256,23,24
 376 710 376 710 291 663.5 c 128,-1,25
 206 617 206 617 148 538 c 128,-1,26
 90 459 90 459 75 365 c 256,27,28
 60 271 60 271 93 192 c 128,-1,29
 126 113 126 113 196.5 66.5 c 128,-1,30
 267 20 267 20 359 20 c 256,31,16
 451 20 451 20 535.5 66.5 c 128,-1,17
282 168 m 128,-1,33
 239 196 239 196 221 247 c 128,-1,34
 203 298 203 298 213 365 c 256,35,36
 224 432 224 432 258 483 c 128,-1,37
 292 534 292 534 344 562 c 128,-1,38
 396 590 396 590 459 590 c 0,39,40
 534 590 534 590 584 551 c 1,41,-1
 570 534 l 1,42,43
 525 570 525 570 456 570 c 0,44,45
 369 570 369 570 308.5 514.5 c 128,-1,46
 248 459 248 459 233 365 c 256,47,48
 218 271 218 271 260.5 215.5 c 128,-1,49
 303 160 303 160 391 160 c 0,50,51
 461 160 461 160 517 196 c 1,52,-1
 525 179 l 1,53,54
 463 140 463 140 387 140 c 0,55,32
 325 140 325 140 282 168 c 128,-1,33
EndSplineSet
EndChar

StartChar: registered
Encoding: 174 174 521
Width: 800
Flags: W
LayerCount: 2
Fore
SplineSet
642.5 681 m 128,-1,1
 717 632 717 632 752 548 c 128,-1,2
 787 464 787 464 771 365 c 256,3,4
 755 266 755 266 694 182 c 128,-1,5
 633 98 633 98 542.5 49 c 128,-1,6
 452 0 452 0 355 0 c 256,7,8
 258 0 258 0 183.5 49 c 128,-1,9
 109 98 109 98 74.5 182 c 128,-1,10
 40 266 40 266 56 365 c 256,11,12
 72 464 72 464 133 548 c 128,-1,13
 194 632 194 632 284 681 c 128,-1,14
 374 730 374 730 471 730 c 256,15,0
 568 730 568 730 642.5 681 c 128,-1,1
535.5 66.5 m 128,-1,17
 620 113 620 113 678 192 c 128,-1,18
 736 271 736 271 751 365 c 256,19,20
 766 459 766 459 733 538 c 128,-1,21
 700 617 700 617 630 663.5 c 128,-1,22
 560 710 560 710 468 710 c 256,23,24
 376 710 376 710 291 663.5 c 128,-1,25
 206 617 206 617 148 538 c 128,-1,26
 90 459 90 459 75 365 c 256,27,28
 60 271 60 271 93 192 c 128,-1,29
 126 113 126 113 196.5 66.5 c 128,-1,30
 267 20 267 20 359 20 c 256,31,16
 451 20 451 20 535.5 66.5 c 128,-1,17
343 356 m 1,32,-1
 534 146 l 1,33,-1
 504 146 l 1,34,-1
 314 356 l 1,35,-1
 281 146 l 1,36,-1
 261 146 l 1,37,-1
 330 584 l 1,38,-1
 419 584 l 2,39,40
 508 584 508 584 544.5 557 c 128,-1,41
 581 530 581 530 571 470 c 256,42,43
 561 410 561 410 516.5 383 c 128,-1,44
 472 356 472 356 382 356 c 2,45,-1
 343 356 l 1,32,-1
347 564 m 1,46,-1
 317 376 l 1,47,-1
 386 376 l 2,48,49
 467 376 467 376 505.5 398 c 128,-1,50
 544 420 544 420 551 470 c 256,51,52
 559 520 559 520 528 542 c 128,-1,53
 497 564 497 564 415 564 c 2,54,-1
 347 564 l 1,46,-1
EndSplineSet
EndChar

StartChar: trademark
Encoding: 8482 8482 522
Width: 726
Flags: W
LayerCount: 2
Fore
SplineSet
220 710 m 1,0,-1
 93 710 l 1,1,-1
 96 730 l 1,2,-1
 371 730 l 1,3,-1
 367 710 l 1,4,-1
 240 710 l 1,5,-1
 185 365 l 1,6,-1
 166 365 l 1,7,-1
 220 710 l 1,0,-1
431 730 m 1,8,-1
 460 730 l 1,9,-1
 551 463 l 1,10,-1
 552 463 l 1,11,-1
 727 730 l 1,12,-1
 756 730 l 1,13,-1
 698 365 l 1,14,-1
 678 365 l 1,15,-1
 732 702 l 1,16,-1
 731 702 l 1,17,-1
 560 443 l 1,18,-1
 536 443 l 1,19,-1
 447 702 l 1,20,-1
 446 702 l 1,21,-1
 393 365 l 1,22,-1
 373 365 l 1,23,-1
 431 730 l 1,8,-1
EndSplineSet
EndChar

StartChar: degree
Encoding: 176 176 523
Width: 386
Flags: W
LayerCount: 2
Fore
SplineSet
141.5 441.5 m 128,-1,1
 110 463 110 463 94.5 499 c 128,-1,2
 79 535 79 535 86 578 c 0,3,4
 93 620 93 620 119.5 656 c 128,-1,5
 146 692 146 692 184.5 713.5 c 128,-1,6
 223 735 223 735 265 735 c 0,7,8
 306 735 306 735 338 713.5 c 128,-1,9
 370 692 370 692 385.5 656 c 128,-1,10
 401 620 401 620 394 578 c 0,11,12
 387 535 387 535 360.5 499 c 128,-1,13
 334 463 334 463 295.5 441.5 c 128,-1,14
 257 420 257 420 215 420 c 256,15,0
 173 420 173 420 141.5 441.5 c 128,-1,1
289 458.5 m 128,-1,17
 323 477 323 477 346 509 c 128,-1,18
 369 541 369 541 375 578 c 256,19,20
 381 615 381 615 367.5 646.5 c 128,-1,21
 354 678 354 678 326 696.5 c 128,-1,22
 298 715 298 715 262 715 c 256,23,24
 226 715 226 715 191.5 696.5 c 128,-1,25
 157 678 157 678 134 646.5 c 128,-1,26
 111 615 111 615 105 578 c 256,27,28
 99 541 99 541 112.5 509 c 128,-1,29
 126 477 126 477 154 458.5 c 128,-1,30
 182 440 182 440 219 440 c 256,31,16
 255 440 255 440 289 458.5 c 128,-1,17
EndSplineSet
EndChar

StartChar: bar
Encoding: 124 124 524
Width: 210
Flags: W
LayerCount: 2
Fore
SplineSet
179 810 m 1,0,-1
 198 810 l 1,1,-1
 35 -220 l 1,2,-1
 16 -220 l 1,3,-1
 179 810 l 1,0,-1
EndSplineSet
EndChar

StartChar: brokenbar
Encoding: 166 166 525
Width: 210
Flags: W
LayerCount: 2
Fore
SplineSet
179 810 m 1,0,-1
 198 810 l 1,1,-1
 129 370 l 1,2,-1
 109 370 l 1,3,-1
 179 810 l 1,0,-1
85 220 m 1,4,-1
 105 220 l 1,5,-1
 35 -220 l 1,6,-1
 16 -220 l 1,7,-1
 85 220 l 1,4,-1
EndSplineSet
EndChar

StartChar: dagger
Encoding: 8224 8224 526
Width: 462
Flags: W
LayerCount: 2
Fore
SplineSet
256 500 m 1,0,-1
 60 500 l 1,1,-1
 63 520 l 1,2,-1
 259 520 l 1,3,-1
 292 730 l 1,4,-1
 312 730 l 1,5,-1
 278 520 l 1,6,-1
 474 520 l 1,7,-1
 471 500 l 1,8,-1
 275 500 l 1,9,-1
 179 -110 l 1,10,-1
 159 -110 l 1,11,-1
 256 500 l 1,0,-1
EndSplineSet
EndChar

StartChar: daggerdbl
Encoding: 8225 8225 527
Width: 482
Flags: W
LayerCount: 2
Fore
SplineSet
202 100 m 1,0,-1
 6 100 l 1,1,-1
 9 120 l 1,2,-1
 205 120 l 1,3,-1
 266 500 l 1,4,-1
 70 500 l 1,5,-1
 73 520 l 1,6,-1
 269 520 l 1,7,-1
 302 730 l 1,8,-1
 322 730 l 1,9,-1
 288 520 l 1,10,-1
 484 520 l 1,11,-1
 481 500 l 1,12,-1
 285 500 l 1,13,-1
 225 120 l 1,14,-1
 421 120 l 1,15,-1
 418 100 l 1,16,-1
 222 100 l 1,17,-1
 189 -110 l 1,18,-1
 169 -110 l 1,19,-1
 202 100 l 1,0,-1
EndSplineSet
EndChar

StartChar: uni2116
Encoding: 8470 8470 528
Width: 1124
GlyphClass: 2
Flags: W
AnchorPoint: "Anchor-1" 310 730 basechar 0
AnchorPoint: "Anchor-0" 310 0 basechar 0
LayerCount: 2
Fore
SplineSet
764 366 m 128,-1,1
 725 424 725 424 741 524 c 256,2,3
 757 624 757 624 814 682 c 128,-1,4
 871 740 871 740 955 740 c 256,5,6
 1039 740 1039 740 1078.5 682.5 c 128,-1,7
 1118 625 1118 625 1102 524 c 256,8,9
 1086 423 1086 423 1028.5 365.5 c 128,-1,10
 971 308 971 308 887 308 c 256,11,0
 803 308 803 308 764 366 c 128,-1,1
188 730 m 1,12,-1
 533 21 l 1,13,-1
 535 21 l 1,14,-1
 647 730 l 1,15,-1
 667 730 l 1,16,-1
 551 0 l 1,17,-1
 520 0 l 1,18,-1
 175 709 l 1,19,-1
 173 709 l 1,20,-1
 61 0 l 1,21,-1
 41 0 l 1,22,-1
 157 730 l 1,23,-1
 188 730 l 1,12,-1
1016.5 379.5 m 128,-1,25
 1067 431 1067 431 1082 524 c 256,26,27
 1097 617 1097 617 1062.5 668.5 c 128,-1,28
 1028 720 1028 720 952 720 c 256,29,30
 877 720 877 720 826 668.5 c 128,-1,31
 775 617 775 617 760 524 c 256,32,33
 745 431 745 431 780 379.5 c 128,-1,34
 815 328 815 328 890 328 c 256,35,24
 966 328 966 328 1016.5 379.5 c 128,-1,25
704 230 m 1,36,-1
 1045 230 l 1,37,-1
 1042 210 l 1,38,-1
 701 210 l 1,39,-1
 704 230 l 1,36,-1
EndSplineSet
Ligature2: "'ordn' Ordinals in Latin lookup 9 subtable" N o period
EndChar

StartChar: uni0308
Encoding: 776 776 531
Width: 20
GlyphClass: 4
Flags: W
AnchorPoint: "Anchor-10" -273 695 basemark 0
AnchorPoint: "Anchor-10" -273 520 mark 0
AnchorPoint: "Anchor-6" -273 520 mark 0
AnchorPoint: "Anchor-1" -273 520 mark 0
LayerCount: 2
Fore
SplineSet
-283 695 m 5,0,-1
 -225 695 l 5,1,-1
 -234 635 l 5,2,-1
 -293 635 l 5,3,-1
 -283 695 l 5,0,-1
-48 695 m 5,4,-1
 11 695 l 5,5,-1
 1 635 l 5,6,-1
 -58 635 l 5,7,-1
 -48 695 l 5,4,-1
EndSplineSet
EndChar

StartChar: uni0307
Encoding: 775 775 532
Width: 4
GlyphClass: 4
Flags: W
AnchorPoint: "Anchor-10" -103 695 basemark 0
AnchorPoint: "Anchor-10" -103 520 mark 0
AnchorPoint: "Anchor-6" -103 520 mark 0
AnchorPoint: "Anchor-1" -103 520 mark 0
LayerCount: 2
Fore
SplineSet
-15 695 m 1,0,-1
 44 695 l 1,1,-1
 34 635 l 1,2,-1
 -25 635 l 1,3,-1
 -15 695 l 1,0,-1
EndSplineSet
EndChar

StartChar: gravecomb
Encoding: 768 768 533
Width: 10
GlyphClass: 4
Flags: W
AnchorPoint: "Anchor-10" -215 520 mark 0
AnchorPoint: "Anchor-6" -215 520 mark 0
AnchorPoint: "Anchor-1" -215 520 mark 0
LayerCount: 2
Fore
SplineSet
-148 770 m 5,0,-1
 -125 770 l 5,1,-1
 -40 560 l 5,2,-1
 -62 560 l 5,3,-1
 -148 770 l 5,0,-1
EndSplineSet
EndChar

StartChar: acutecomb
Encoding: 769 769 534
Width: 10
GlyphClass: 4
Flags: W
AnchorPoint: "Anchor-10" -146 520 mark 0
AnchorPoint: "Anchor-6" -146 520 mark 0
AnchorPoint: "Anchor-1" -146 520 mark 0
LayerCount: 2
Fore
SplineSet
-91 560 m 1,0,-1
 -114 560 l 1,1,-1
 38 770 l 1,2,-1
 61 770 l 1,3,-1
 -91 560 l 1,0,-1
EndSplineSet
EndChar

StartChar: uni0302
Encoding: 770 770 536
Width: 24
GlyphClass: 4
Flags: W
AnchorPoint: "Anchor-10" -296 520 mark 0
AnchorPoint: "Anchor-6" -296 520 mark 0
AnchorPoint: "Anchor-1" -296 520 mark 0
LayerCount: 2
Fore
SplineSet
-159 770 m 5,0,-1
 -129 770 l 5,1,-1
 -9 560 l 5,2,-1
 -33 560 l 5,3,-1
 -145 755 l 5,4,-1
 -147 755 l 5,5,-1
 -321 560 l 5,6,-1
 -346 560 l 5,7,-1
 -159 770 l 5,0,-1
EndSplineSet
EndChar

StartChar: uni030C
Encoding: 780 780 537
Width: 24
GlyphClass: 4
Flags: W
AnchorPoint: "Anchor-10" -296 770 basemark 0
AnchorPoint: "Anchor-10" -296 520 mark 0
AnchorPoint: "Anchor-6" -296 520 mark 0
AnchorPoint: "Anchor-1" -296 520 mark 0
LayerCount: 2
Fore
SplineSet
-312 770 m 5,0,-1
 -288 770 l 5,1,-1
 -176 575 l 5,2,-1
 -174 575 l 5,3,-1
 0 770 l 5,4,-1
 25 770 l 5,5,-1
 -162 560 l 5,6,-1
 -192 560 l 5,7,-1
 -312 770 l 5,0,-1
EndSplineSet
EndChar

StartChar: uni0306
Encoding: 774 774 538
Width: 22
GlyphClass: 4
Flags: W
AnchorPoint: "Anchor-10" -271 520 mark 0
AnchorPoint: "Anchor-6" -271 520 mark 0
AnchorPoint: "Anchor-1" -271 520 mark 0
LayerCount: 2
Fore
SplineSet
-249 628 m 132,-1,1
 -286 661 -286 661 -287 715 c 5,2,-1
 -267 715 l 5,3,4
 -265 670 -265 670 -232.5 642.5 c 132,-1,5
 -200 615 -200 615 -147 615 c 260,6,7
 -94 615 -94 615 -52.5 642.5 c 132,-1,8
 -11 670 -11 670 5 715 c 5,9,-1
 25 715 l 5,10,11
 8 661 8 661 -40 628 c 132,-1,12
 -88 595 -88 595 -150 595 c 260,13,0
 -212 595 -212 595 -249 628 c 132,-1,1
EndSplineSet
EndChar

StartChar: uni030A
Encoding: 778 778 539
Width: 17
GlyphClass: 4
Flags: W
AnchorPoint: "Anchor-10" -242 710 basemark 0
AnchorPoint: "Anchor-10" -242 520 mark 0
AnchorPoint: "Anchor-6" -242 520 mark 0
AnchorPoint: "Anchor-1" -242 520 mark 0
LayerCount: 2
Fore
SplineSet
-218 561.5 m 132,-1,1
 -248 598 -248 598 -240 650 c 260,2,3
 -232 702 -232 702 -190 738.5 c 132,-1,4
 -148 775 -148 775 -97 775 c 260,5,6
 -46 775 -46 775 -16 738.5 c 132,-1,7
 14 702 14 702 5 650 c 260,8,9
 -3 598 -3 598 -44.5 561.5 c 132,-1,10
 -86 525 -86 525 -137 525 c 260,11,0
 -188 525 -188 525 -218 561.5 c 132,-1,1
-56.5 576 m 132,-1,13
 -21 607 -21 607 -14 650 c 4,14,15
 -7 694 -7 694 -32.5 724.5 c 132,-1,16
 -58 755 -58 755 -100 755 c 4,17,18
 -143 755 -143 755 -178 724.5 c 132,-1,19
 -213 694 -213 694 -220 650 c 4,20,21
 -227 607 -227 607 -202 576 c 132,-1,22
 -177 545 -177 545 -134 545 c 4,23,12
 -92 545 -92 545 -56.5 576 c 132,-1,13
EndSplineSet
EndChar

StartChar: tildecomb
Encoding: 771 771 540
Width: 22
GlyphClass: 4
Flags: W
AnchorPoint: "Anchor-10" -282 725 basemark 0
AnchorPoint: "Anchor-10" -282 520 mark 0
AnchorPoint: "Anchor-6" -282 520 mark 0
AnchorPoint: "Anchor-1" -282 520 mark 0
LayerCount: 2
Fore
SplineSet
-156 657 m 4,1,2
 -211 705 -211 705 -241 705 c 4,3,4
 -278 705 -278 705 -293 615 c 5,5,-1
 -312 615 l 5,6,7
 -303 670 -303 670 -285.5 697.5 c 132,-1,8
 -268 725 -268 725 -238 725 c 4,9,10
 -201 725 -201 725 -142 673 c 4,11,12
 -86 625 -86 625 -56 625 c 4,13,14
 -19 625 -19 625 -5 715 c 5,15,-1
 15 715 l 5,16,17
 -2 605 -2 605 -59 605 c 4,18,0
 -95 605 -95 605 -156 657 c 4,1,2
EndSplineSet
EndChar

StartChar: uni0304
Encoding: 772 772 541
Width: 23
GlyphClass: 4
Flags: W
AnchorPoint: "Anchor-10" -300 675 basemark 0
AnchorPoint: "Anchor-10" -300 520 mark 0
AnchorPoint: "Anchor-6" -300 520 mark 0
AnchorPoint: "Anchor-1" -300 520 mark 0
LayerCount: 2
Fore
SplineSet
-328 675 m 5,0,-1
 0 675 l 5,1,-1
 -3 655 l 5,2,-1
 -331 655 l 5,3,-1
 -328 675 l 5,0,-1
EndSplineSet
EndChar

StartChar: uni0305
Encoding: 773 773 542
Width: 39
GlyphClass: 4
Flags: W
LayerCount: 2
Fore
SplineSet
-425 820 m 1,0,-1
 124 820 l 1,1,-1
 121 800 l 1,2,-1
 -428 800 l 1,3,-1
 -425 820 l 1,0,-1
EndSplineSet
EndChar

StartChar: hookabovecomb
Encoding: 777 777 543
Width: 17
GlyphClass: 4
Flags: W
AnchorPoint: "Anchor-10" -197 765 basemark 0
AnchorPoint: "Anchor-10" -197 520 mark 0
AnchorPoint: "Anchor-6" -197 520 mark 0
AnchorPoint: "Anchor-1" -197 520 mark 0
LayerCount: 2
Fore
SplineSet
24.5 646.5 m 128,-1,1
 34 673 34 673 37 693 c 0,2,3
 42 723 42 723 22.5 734 c 128,-1,4
 3 745 3 745 -57 745 c 0,5,6
 -116 745 -116 745 -176 730 c 1,7,-1
 -178 749 l 1,8,9
 -114 765 -114 765 -53 765 c 0,10,11
 15 765 15 765 39 749 c 128,-1,12
 63 733 63 733 57 693 c 0,13,14
 54 674 54 674 45.5 649 c 128,-1,15
 37 624 37 624 27 605 c 1,16,-1
 5 605 l 1,17,0
 15 620 15 620 24.5 646.5 c 128,-1,1
EndSplineSet
EndChar

StartChar: uni030F
Encoding: 783 783 544
Width: 22
GlyphClass: 4
Flags: W
AnchorPoint: "Anchor-10" -326 770 basemark 0
AnchorPoint: "Anchor-10" -326 520 mark 0
AnchorPoint: "Anchor-6" -326 520 mark 0
AnchorPoint: "Anchor-1" -326 520 mark 0
LayerCount: 2
Fore
SplineSet
-342 770 m 1,0,-1
 -319 770 l 1,1,-1
 -234 560 l 1,2,-1
 -256 560 l 1,3,-1
 -342 770 l 1,0,-1
-165 770 m 1,4,-1
 -143 770 l 1,5,-1
 -57 560 l 1,6,-1
 -80 560 l 1,7,-1
 -165 770 l 1,4,-1
EndSplineSet
EndChar

StartChar: uni0311
Encoding: 785 785 545
Width: 22
GlyphClass: 4
Flags: W
AnchorPoint: "Anchor-10" -271 735 basemark 0
AnchorPoint: "Anchor-10" -271 520 mark 0
AnchorPoint: "Anchor-6" -271 520 mark 0
AnchorPoint: "Anchor-1" -271 520 mark 0
LayerCount: 2
Fore
SplineSet
-28.5 702 m 132,-1,1
 9 669 9 669 9 615 c 5,2,-1
 -10 615 l 5,3,4
 -12 660 -12 660 -45 687.5 c 132,-1,5
 -78 715 -78 715 -131 715 c 260,6,7
 -184 715 -184 715 -225.5 687.5 c 132,-1,8
 -267 660 -267 660 -283 615 c 5,9,-1
 -302 615 l 5,10,11
 -285 669 -285 669 -237 702 c 132,-1,12
 -189 735 -189 735 -128 735 c 260,13,0
 -66 735 -66 735 -28.5 702 c 132,-1,1
EndSplineSet
EndChar

StartChar: uni0312
Encoding: 786 786 546
Width: 10
GlyphClass: 4
Flags: W
AnchorPoint: "Anchor-10" -165 770 basemark 0
AnchorPoint: "Anchor-10" -165 520 mark 0
AnchorPoint: "Anchor-6" -165 520 mark 0
AnchorPoint: "Anchor-1" -165 520 mark 0
LayerCount: 2
Fore
SplineSet
21 770 m 1,0,-1
 43 770 l 1,1,-1
 -108 560 l 1,2,-1
 -131 560 l 1,3,-1
 21 770 l 1,0,-1
EndSplineSet
EndChar

StartChar: uni031B
Encoding: 795 795 547
Width: 10
GlyphClass: 4
Flags: W
AnchorPoint: "Anchor-11" -120 770 basemark 0
AnchorPoint: "Anchor-11" -285 615 mark 0
AnchorPoint: "Anchor-7" -285 615 mark 0
AnchorPoint: "Anchor-3" -285 615 mark 0
LayerCount: 2
Fore
SplineSet
-172 594 m 1,1,-1
 -166 615 l 1,2,3
 -139 600 -139 600 -109 600 c 0,4,5
 -45 600 -45 600 -33 678 c 0,6,7
 -29 701 -29 701 -30 726.5 c 128,-1,8
 -31 752 -31 752 -35 770 c 1,9,-1
 -15 770 l 1,10,11
 -7 722 -7 722 -14 678 c 0,12,13
 -21 631 -21 631 -46.5 605.5 c 128,-1,14
 -72 580 -72 580 -113 580 c 0,15,0
 -144 580 -144 580 -172 594 c 1,1,-1
EndSplineSet
EndChar

StartChar: uni0326
Encoding: 806 806 550
Width: 10
GlyphClass: 4
Flags: W
AnchorPoint: "Anchor-10" -216 -290 mark 0
AnchorPoint: "Anchor-9" -216 -210 basemark 0
AnchorPoint: "Anchor-6" -216 -290 mark 0
AnchorPoint: "Anchor-1" -216 -290 mark 0
LayerCount: 2
Fore
SplineSet
-289 -250 m 5,0,-1
 -312 -250 l 5,1,-1
 -160 -40 l 5,2,-1
 -138 -40 l 5,3,-1
 -289 -250 l 5,0,-1
EndSplineSet
EndChar

StartChar: uni0327
Encoding: 807 807 551
Width: 16
GlyphClass: 4
Flags: W
AnchorPoint: "Anchor-8" -244 0 mark 0
LayerCount: 2
Fore
SplineSet
-337 -199 m 1,1,-1
 -326 -181 l 1,2,3
 -289 -200 -289 -200 -238 -200 c 0,4,5
 -194 -200 -194 -200 -161 -186 c 128,-1,6
 -128 -172 -128 -172 -122 -135 c 0,7,8
 -117 -101 -117 -101 -142 -66.5 c 128,-1,9
 -167 -32 -167 -32 -220 0 c 1,10,-1
 -199 11 l 1,11,12
 -147 -21 -147 -21 -121.5 -58.5 c 128,-1,13
 -96 -96 -96 -96 -102 -135 c 0,14,15
 -107 -168 -107 -168 -138 -194 c 128,-1,16
 -169 -220 -169 -220 -241 -220 c 0,17,0
 -296 -220 -296 -220 -337 -199 c 1,1,-1
EndSplineSet
EndChar

StartChar: uni0328
Encoding: 808 808 552
Width: 16
GlyphClass: 4
Flags: W
AnchorPoint: "Anchor-5" -189 0 mark 0
AnchorPoint: "Anchor-2" -189 0 mark 0
LayerCount: 2
Fore
SplineSet
-309.5 -194 m 128,-1,1
 -332 -168 -332 -168 -327 -135 c 0,2,3
 -321 -96 -321 -96 -283.5 -58.5 c 128,-1,4
 -246 -21 -246 -21 -184 11 c 1,5,-1
 -166 0 l 1,6,7
 -229 -32 -229 -32 -265.5 -66.5 c 128,-1,8
 -302 -101 -302 -101 -307 -135 c 0,9,10
 -313 -172 -313 -172 -284.5 -186 c 128,-1,11
 -256 -200 -256 -200 -211 -200 c 0,12,13
 -160 -200 -160 -200 -117 -181 c 1,14,-1
 -112 -199 l 1,15,16
 -159 -220 -159 -220 -215 -220 c 0,17,0
 -287 -220 -287 -220 -309.5 -194 c 128,-1,1
EndSplineSet
EndChar

StartChar: uni0370
Encoding: 880 880 568
Width: 540
Flags: W
LayerCount: 2
Fore
SplineSet
514 410 m 1,0,-1
 511 390 l 1,1,-1
 119 390 l 1,2,-1
 57 0 l 1,3,-1
 38 0 l 1,4,-1
 153 730 l 1,5,-1
 173 730 l 1,6,-1
 122 410 l 1,7,-1
 514 410 l 1,0,-1
EndSplineSet
EndChar

StartChar: uni0371
Encoding: 881 881 569
Width: 404
Flags: W
LayerCount: 2
Fore
SplineSet
360 295 m 1,0,-1
 357 275 l 1,1,-1
 91 275 l 1,2,-1
 48 0 l 1,3,-1
 29 0 l 1,4,-1
 111 520 l 1,5,-1
 130 520 l 1,6,-1
 94 295 l 1,7,-1
 360 295 l 1,0,-1
EndSplineSet
EndChar

StartChar: uni0372
Encoding: 882 882 570
Width: 678
Flags: W
CounterMasks: 1 38
LayerCount: 2
Fore
SplineSet
397 710 m 1,0,-1
 152 710 l 1,1,-1
 101 390 l 1,2,-1
 81 390 l 1,3,-1
 135 730 l 1,4,-1
 684 730 l 1,5,-1
 630 390 l 1,6,-1
 611 390 l 1,7,-1
 661 710 l 1,8,-1
 416 710 l 1,9,-1
 304 0 l 1,10,-1
 284 0 l 1,11,-1
 397 710 l 1,0,-1
EndSplineSet
EndChar

StartChar: uni0373
Encoding: 883 883 571
Width: 537
Flags: W
LayerCount: 2
Fore
SplineSet
327 710 m 1,0,-1
 146 710 l 1,1,-1
 111 490 l 1,2,-1
 93 490 l 1,3,-1
 131 730 l 1,4,-1
 548 730 l 1,5,-1
 510 490 l 1,6,-1
 491 490 l 1,7,-1
 526 710 l 1,8,-1
 346 710 l 1,9,-1
 233 0 l 1,10,-1
 214 0 l 1,11,-1
 327 710 l 1,0,-1
EndSplineSet
EndChar

StartChar: uni0374
Encoding: 884 884 572
Width: 214
Flags: W
LayerCount: 2
Fore
SplineSet
132 550 m 1,0,-1
 111 550 l 1,1,-1
 225 770 l 1,2,-1
 245 770 l 1,3,-1
 132 550 l 1,0,-1
EndSplineSet
EndChar

StartChar: uni0375
Encoding: 885 885 573
Width: 215
Flags: W
LayerCount: 2
Fore
SplineSet
6 -110 m 1,0,-1
 -16 -110 l 1,1,-1
 97 110 l 1,2,-1
 119 110 l 1,3,-1
 6 -110 l 1,0,-1
EndSplineSet
EndChar

StartChar: uni0376
Encoding: 886 886 574
Width: 665
Flags: W
LayerCount: 2
Fore
SplineSet
61 21 m 1,0,-1
 63 21 l 1,1,-1
 622 730 l 1,2,-1
 653 730 l 1,3,-1
 538 0 l 1,4,-1
 518 0 l 1,5,-1
 630 709 l 1,6,-1
 628 709 l 1,7,-1
 69 0 l 1,8,-1
 38 0 l 1,9,-1
 153 730 l 1,10,-1
 173 730 l 1,11,-1
 61 21 l 1,0,-1
EndSplineSet
EndChar

StartChar: uni0377
Encoding: 887 887 575
Width: 553
Flags: W
LayerCount: 2
Fore
SplineSet
51 23 m 1,0,-1
 52 23 l 1,1,-1
 490 520 l 1,2,-1
 517 520 l 1,3,-1
 435 0 l 1,4,-1
 416 0 l 1,5,-1
 495 497 l 1,6,-1
 494 497 l 1,7,-1
 56 0 l 1,8,-1
 29 0 l 1,9,-1
 111 520 l 1,10,-1
 130 520 l 1,11,-1
 51 23 l 1,0,-1
EndSplineSet
EndChar

StartChar: uni037A
Encoding: 890 890 576
Width: 305
Flags: W
LayerCount: 2
Fore
SplineSet
19 -120 m 2,0,-1
 28 -60 l 1,1,-1
 48 -60 l 1,2,-1
 38 -120 l 2,3,4
 26 -197 26 -197 35.5 -213.5 c 128,-1,5
 45 -230 45 -230 99 -230 c 0,6,7
 137 -230 137 -230 173 -216 c 1,8,-1
 177 -235 l 1,9,10
 139 -250 139 -250 96 -250 c 0,11,12
 31 -250 31 -250 18.5 -226.5 c 128,-1,13
 6 -203 6 -203 19 -120 c 2,0,-1
EndSplineSet
EndChar

StartChar: uni037B
Encoding: 891 891 577
Width: 476
Flags: W
LayerCount: 2
Fore
SplineSet
35 43 m 1,0,1
 90 10 90 10 154 10 c 0,2,3
 252 10 252 10 323 78.5 c 128,-1,4
 394 147 394 147 412 260 c 0,5,6
 431 378 431 378 383.5 444 c 128,-1,7
 336 510 336 510 233 510 c 0,8,9
 168 510 168 510 104 477 c 1,10,-1
 98 495 l 1,11,12
 166 530 166 530 236 530 c 0,13,14
 346 530 346 530 398.5 457.5 c 128,-1,15
 451 385 451 385 431 260 c 0,16,17
 412 139 412 139 334.5 64.5 c 128,-1,18
 257 -10 257 -10 151 -10 c 0,19,20
 81 -10 81 -10 24 25 c 1,21,-1
 35 43 l 1,0,1
EndSplineSet
EndChar

StartChar: uni037C
Encoding: 892 892 578
Width: 476
Flags: W
LayerCount: 2
Fore
SplineSet
275 200 m 1,0,-1
 294 320 l 1,1,-1
 313 320 l 1,2,-1
 294 200 l 1,3,-1
 275 200 l 1,0,-1
365 43 m 1,4,-1
 371 25 l 1,5,6
 303 -10 303 -10 233 -10 c 0,7,8
 127 -10 127 -10 73 64.5 c 128,-1,9
 19 139 19 139 38 260 c 0,10,11
 58 385 58 385 133 457.5 c 128,-1,12
 208 530 208 530 318 530 c 0,13,14
 388 530 388 530 445 495 c 1,15,-1
 434 477 l 1,16,17
 379 510 379 510 315 510 c 0,18,19
 212 510 212 510 144 444 c 128,-1,20
 76 378 76 378 57 260 c 0,21,22
 39 147 39 147 88 78.5 c 128,-1,23
 137 10 137 10 236 10 c 0,24,25
 300 10 300 10 365 43 c 1,4,-1
EndSplineSet
EndChar

StartChar: uni037D
Encoding: 893 893 579
Width: 476
Flags: W
LayerCount: 2
Fore
SplineSet
156 200 m 1,0,-1
 175 320 l 1,1,-1
 194 320 l 1,2,-1
 175 200 l 1,3,-1
 156 200 l 1,0,-1
35 43 m 1,4,5
 90 10 90 10 154 10 c 0,6,7
 252 10 252 10 323 78.5 c 128,-1,8
 394 147 394 147 412 260 c 0,9,10
 431 378 431 378 383.5 444 c 128,-1,11
 336 510 336 510 233 510 c 0,12,13
 168 510 168 510 104 477 c 1,14,-1
 98 495 l 1,15,16
 166 530 166 530 236 530 c 0,17,18
 346 530 346 530 398.5 457.5 c 128,-1,19
 451 385 451 385 431 260 c 0,20,21
 412 139 412 139 334.5 64.5 c 128,-1,22
 257 -10 257 -10 151 -10 c 0,23,24
 81 -10 81 -10 24 25 c 1,25,-1
 35 43 l 1,4,5
EndSplineSet
EndChar

StartChar: uni037E
Encoding: 894 894 580
Width: 301
Flags: W
LayerCount: 2
Fore
SplineSet
129 110 m 1,0,-1
 151 110 l 1,1,-1
 37 -110 l 1,2,-1
 16 -110 l 1,3,-1
 129 110 l 1,0,-1
157 380 m 1,4,-1
 176 500 l 1,5,-1
 196 500 l 1,6,-1
 177 380 l 1,7,-1
 157 380 l 1,4,-1
EndSplineSet
EndChar

StartChar: tonos
Encoding: 900 900 581
Width: 257
Flags: W
LayerCount: 2
Fore
SplineSet
142 590 m 1,0,-1
 118 590 l 1,1,-1
 261 750 l 1,2,-1
 285 750 l 1,3,-1
 142 590 l 1,0,-1
EndSplineSet
EndChar

StartChar: dieresistonos
Encoding: 901 901 582
Width: 377
Flags: W
LayerCount: 2
Fore
SplineSet
261 790 m 1,0,-1
 237 790 l 1,1,-1
 380 950 l 1,2,-1
 404 950 l 1,3,-1
 261 790 l 1,0,-1
326 610 m 1,4,-1
 345 730 l 1,5,-1
 364 730 l 1,6,-1
 345 610 l 1,7,-1
 326 610 l 1,4,-1
130 610 m 1,8,-1
 149 730 l 1,9,-1
 168 730 l 1,10,-1
 149 610 l 1,11,-1
 130 610 l 1,8,-1
EndSplineSet
EndChar

StartChar: Alphatonos
Encoding: 902 902 583
Width: 643
Flags: W
LayerCount: 2
Fore
SplineSet
386 713 m 1,0,-1
 384 713 l 1,1,-1
 148 270 l 1,2,-1
 482 270 l 1,3,-1
 386 713 l 1,0,-1
123 590 m 1,4,-1
 98 590 l 1,5,-1
 241 750 l 1,6,-1
 266 750 l 1,7,-1
 123 590 l 1,4,-1
486 250 m 1,8,-1
 137 250 l 1,9,-1
 4 0 l 1,10,-1
 -17 0 l 1,11,-1
 373 730 l 1,12,-1
 403 730 l 1,13,-1
 561 0 l 1,14,-1
 541 0 l 1,15,-1
 486 250 l 1,8,-1
EndSplineSet
EndChar

StartChar: anoteleia
Encoding: 903 903 584
Width: 203
Flags: W
LayerCount: 2
Fore
SplineSet
83 230 m 1,0,-1
 102 350 l 1,1,-1
 122 350 l 1,2,-1
 103 230 l 1,3,-1
 83 230 l 1,0,-1
EndSplineSet
EndChar

StartChar: Epsilontonos
Encoding: 904 904 585
Width: 687
Flags: W
LayerCount: 2
Fore
SplineSet
259 390 m 1,0,-1
 200 20 l 1,1,-1
 572 20 l 1,2,-1
 569 0 l 1,3,-1
 177 0 l 1,4,-1
 293 730 l 1,5,-1
 685 730 l 1,6,-1
 682 710 l 1,7,-1
 309 710 l 1,8,-1
 262 410 l 1,9,-1
 615 410 l 1,10,-1
 611 390 l 1,11,-1
 259 390 l 1,0,-1
101 590 m 1,12,-1
 77 590 l 1,13,-1
 220 750 l 1,14,-1
 244 750 l 1,15,-1
 101 590 l 1,12,-1
EndSplineSet
EndChar

StartChar: Etatonos
Encoding: 905 905 586
Width: 795
Flags: W
LayerCount: 2
Fore
SplineSet
763 730 m 1,0,-1
 783 730 l 1,1,-1
 667 0 l 1,2,-1
 648 0 l 1,3,-1
 709 390 l 1,4,-1
 259 390 l 1,5,-1
 197 0 l 1,6,-1
 177 0 l 1,7,-1
 293 730 l 1,8,-1
 312 730 l 1,9,-1
 262 410 l 1,10,-1
 713 410 l 1,11,-1
 763 730 l 1,0,-1
101 590 m 1,12,-1
 77 590 l 1,13,-1
 220 750 l 1,14,-1
 244 750 l 1,15,-1
 101 590 l 1,12,-1
EndSplineSet
EndChar

StartChar: Iotatonos
Encoding: 906 906 587
Width: 388
Flags: W
LayerCount: 2
Fore
SplineSet
205 0 m 1,0,-1
 320 730 l 1,1,-1
 340 730 l 1,2,-1
 224 0 l 1,3,-1
 205 0 l 1,0,-1
128 590 m 1,4,-1
 104 590 l 1,5,-1
 247 750 l 1,6,-1
 271 750 l 1,7,-1
 128 590 l 1,4,-1
EndSplineSet
EndChar

StartChar: Omicrontonos
Encoding: 908 908 588
Width: 866
Flags: W
LayerCount: 2
Fore
SplineSet
151.5 365 m 128,-1,1
 178 533 178 533 289 636.5 c 128,-1,2
 400 740 400 740 554 740 c 128,-1,3
 708 740 708 740 786 636.5 c 128,-1,4
 864 533 864 533 837.5 365 c 128,-1,5
 811 197 811 197 700 93.5 c 128,-1,6
 589 -10 589 -10 435.5 -10 c 128,-1,7
 282 -10 282 -10 203.5 93.5 c 128,-1,0
 125 197 125 197 151.5 365 c 128,-1,1
101 590 m 1,8,-1
 77 590 l 1,9,-1
 220 750 l 1,10,-1
 244 750 l 1,11,-1
 101 590 l 1,8,-1
438.5 10 m 128,-1,13
 584 10 584 10 688.5 108 c 128,-1,14
 793 206 793 206 818 365 c 128,-1,15
 843 524 843 524 769.5 622 c 128,-1,16
 696 720 696 720 551 720 c 128,-1,17
 406 720 406 720 301.5 622 c 128,-1,18
 197 524 197 524 171.5 365 c 128,-1,19
 146 206 146 206 219.5 108 c 128,-1,12
 293 10 293 10 438.5 10 c 128,-1,13
EndSplineSet
EndChar

StartChar: Upsilontonos
Encoding: 910 910 589
Width: 803
Flags: W
LayerCount: 2
Fore
SplineSet
501 348 m 1,0,-1
 503 348 l 1,1,-1
 818 730 l 1,2,-1
 842 730 l 1,3,-1
 508 327 l 1,4,-1
 457 0 l 1,5,-1
 437 0 l 1,6,-1
 489 327 l 1,7,-1
 283 730 l 1,8,-1
 307 730 l 1,9,-1
 501 348 l 1,0,-1
101 590 m 1,10,-1
 77 590 l 1,11,-1
 220 750 l 1,12,-1
 244 750 l 1,13,-1
 101 590 l 1,10,-1
EndSplineSet
EndChar

StartChar: Omegatonos
Encoding: 911 911 590
Width: 895
Flags: W
LayerCount: 2
Fore
SplineSet
554 740 m 128,-1,1
 706 740 706 740 785.5 638 c 128,-1,2
 865 536 865 536 839 375 c 0,3,4
 819 251 819 251 747 157.5 c 128,-1,5
 675 64 675 64 570 22 c 1,6,-1
 569 20 l 1,7,-1
 798 20 l 1,8,-1
 795 0 l 1,9,-1
 501 0 l 1,10,-1
 504 20 l 1,11,12
 627 45 627 45 712.5 142 c 128,-1,13
 798 239 798 239 820 375 c 0,14,15
 844 527 844 527 769 623.5 c 128,-1,16
 694 720 694 720 551 720 c 128,-1,17
 408 720 408 720 302.5 623.5 c 128,-1,18
 197 527 197 527 173 375 c 0,19,20
 151 239 151 239 206.5 142 c 128,-1,21
 262 45 262 45 376 20 c 1,22,-1
 373 0 l 1,23,-1
 79 0 l 1,24,-1
 82 20 l 1,25,-1
 311 20 l 1,26,-1
 311 22 l 1,27,28
 219 64 219 64 176.5 157.5 c 128,-1,29
 134 251 134 251 153 375 c 0,30,31
 179 536 179 536 290.5 638 c 128,-1,0
 402 740 402 740 554 740 c 128,-1,1
101 590 m 1,32,-1
 77 590 l 1,33,-1
 220 750 l 1,34,-1
 244 750 l 1,35,-1
 101 590 l 1,32,-1
EndSplineSet
EndChar

StartChar: iotadieresistonos
Encoding: 912 912 591
Width: 419
Flags: W
CounterMasks: 1 1c
LayerCount: 2
Fore
SplineSet
216 520 m 1,0,-1
 155 140 l 2,1,2
 142 60 142 60 161.5 35 c 128,-1,3
 181 10 181 10 244 10 c 0,4,5
 285 10 285 10 325 24 c 1,6,-1
 329 5 l 1,7,8
 287 -10 287 -10 241 -10 c 0,9,10
 168 -10 168 -10 145.5 22 c 128,-1,11
 123 54 123 54 137 140 c 2,12,-1
 197 520 l 1,13,-1
 216 520 l 1,0,-1
306 610 m 1,14,-1
 325 730 l 1,15,-1
 344 730 l 1,16,-1
 325 610 l 1,17,-1
 306 610 l 1,14,-1
116 610 m 1,18,-1
 135 730 l 1,19,-1
 154 730 l 1,20,-1
 135 610 l 1,21,-1
 116 610 l 1,18,-1
263 790 m 1,22,-1
 240 790 l 1,23,-1
 378 950 l 1,24,-1
 402 950 l 1,25,-1
 263 790 l 1,22,-1
EndSplineSet
EndChar

StartChar: Alpha
Encoding: 913 913 592
Width: 652
Flags: W
LayerCount: 2
Fore
SplineSet
395 713 m 1,0,-1
 393 713 l 1,1,-1
 158 270 l 1,2,-1
 491 270 l 1,3,-1
 395 713 l 1,0,-1
495 250 m 1,4,-1
 147 250 l 1,5,-1
 13 0 l 1,6,-1
 -8 0 l 1,7,-1
 382 730 l 1,8,-1
 412 730 l 1,9,-1
 571 0 l 1,10,-1
 550 0 l 1,11,-1
 495 250 l 1,4,-1
EndSplineSet
EndChar

StartChar: Gamma
Encoding: 915 915 594
Width: 520
Flags: W
LayerCount: 2
Fore
SplineSet
170 710 m 1,0,-1
 57 0 l 1,1,-1
 38 0 l 1,2,-1
 153 730 l 1,3,-1
 536 730 l 1,4,-1
 532 710 l 1,5,-1
 170 710 l 1,0,-1
EndSplineSet
EndChar

StartChar: uni0394
Encoding: 916 916 595
Width: 652
Flags: W
LayerCount: 2
Fore
SplineSet
395 713 m 1,0,-1
 393 713 l 1,1,-1
 24 20 l 1,2,-1
 545 20 l 1,3,-1
 395 713 l 1,0,-1
550 0 m 1,4,-1
 13 0 l 1,5,-1
 7 0 l 1,6,-1
 -8 0 l 1,7,-1
 382 730 l 1,8,-1
 412 730 l 1,9,-1
 571 0 l 1,10,-1
 556 0 l 1,11,-1
 550 0 l 1,4,-1
EndSplineSet
EndChar

StartChar: Epsilon
Encoding: 917 917 596
Width: 548
Flags: W
LayerCount: 2
Fore
SplineSet
119 390 m 1,0,-1
 61 20 l 1,1,-1
 433 20 l 1,2,-1
 430 0 l 1,3,-1
 38 0 l 1,4,-1
 153 730 l 1,5,-1
 545 730 l 1,6,-1
 542 710 l 1,7,-1
 170 710 l 1,8,-1
 122 410 l 1,9,-1
 475 410 l 1,10,-1
 472 390 l 1,11,-1
 119 390 l 1,0,-1
EndSplineSet
EndChar

StartChar: Zeta
Encoding: 918 918 597
Width: 598
Flags: W
LayerCount: 2
Fore
SplineSet
567 708 m 1,0,-1
 567 710 l 1,1,-1
 141 710 l 1,2,-1
 144 730 l 1,3,-1
 595 730 l 1,4,-1
 592 710 l 1,5,-1
 57 22 l 1,6,-1
 56 20 l 1,7,-1
 483 20 l 1,8,-1
 480 0 l 1,9,-1
 29 0 l 1,10,-1
 32 20 l 1,11,-1
 567 708 l 1,0,-1
EndSplineSet
EndChar

StartChar: Eta
Encoding: 919 919 598
Width: 655
Flags: W
LayerCount: 2
Fore
SplineSet
624 730 m 1,0,-1
 643 730 l 1,1,-1
 528 0 l 1,2,-1
 508 0 l 1,3,-1
 570 390 l 1,4,-1
 119 390 l 1,5,-1
 57 0 l 1,6,-1
 38 0 l 1,7,-1
 153 730 l 1,8,-1
 173 730 l 1,9,-1
 122 410 l 1,10,-1
 573 410 l 1,11,-1
 624 730 l 1,0,-1
EndSplineSet
EndChar

StartChar: Theta
Encoding: 920 920 599
Width: 769
Flags: W
CounterMasks: 1 e0
LayerCount: 2
Fore
SplineSet
180 355 m 1,0,-1
 184 375 l 1,1,-1
 615 375 l 1,2,-1
 612 355 l 1,3,-1
 180 355 l 1,0,-1
54.5 365 m 128,-1,5
 81 533 81 533 192 636.5 c 128,-1,6
 303 740 303 740 457 740 c 128,-1,7
 611 740 611 740 689 636.5 c 128,-1,8
 767 533 767 533 740.5 365 c 128,-1,9
 714 197 714 197 603 93.5 c 128,-1,10
 492 -10 492 -10 338 -10 c 128,-1,11
 184 -10 184 -10 106 93.5 c 128,-1,4
 28 197 28 197 54.5 365 c 128,-1,5
341 10 m 128,-1,13
 486 10 486 10 591 108 c 128,-1,14
 696 206 696 206 721 365 c 128,-1,15
 746 524 746 524 672.5 622 c 128,-1,16
 599 720 599 720 454 720 c 128,-1,17
 309 720 309 720 204 622 c 128,-1,18
 99 524 99 524 74 365 c 128,-1,19
 49 206 49 206 122.5 108 c 128,-1,12
 196 10 196 10 341 10 c 128,-1,13
EndSplineSet
EndChar

StartChar: Iota
Encoding: 921 921 600
Width: 258
Flags: W
LayerCount: 2
Fore
SplineSet
74 0 m 1,0,-1
 190 730 l 1,1,-1
 209 730 l 1,2,-1
 94 0 l 1,3,-1
 74 0 l 1,0,-1
EndSplineSet
EndChar

StartChar: Kappa
Encoding: 922 922 601
Width: 570
Flags: W
LayerCount: 2
Fore
SplineSet
117 367 m 1,0,-1
 116 367 l 1,1,-1
 57 0 l 1,2,-1
 38 0 l 1,3,-1
 153 730 l 1,4,-1
 173 730 l 1,5,-1
 120 394 l 1,6,-1
 122 394 l 1,7,-1
 564 730 l 1,8,-1
 594 730 l 1,9,-1
 132 380 l 1,10,-1
 489 0 l 1,11,-1
 459 0 l 1,12,-1
 117 367 l 1,0,-1
EndSplineSet
EndChar

StartChar: Lambda
Encoding: 923 923 602
Width: 652
Flags: W
LayerCount: 2
Fore
SplineSet
395 713 m 1,0,-1
 393 713 l 1,1,-1
 13 0 l 1,2,-1
 -8 0 l 1,3,-1
 382 730 l 1,4,-1
 412 730 l 1,5,-1
 571 0 l 1,6,-1
 550 0 l 1,7,-1
 395 713 l 1,0,-1
EndSplineSet
EndChar

StartChar: Mu
Encoding: 924 924 603
Width: 812
Flags: W
LayerCount: 2
Fore
SplineSet
665 0 m 1,0,-1
 777 709 l 1,1,-1
 775 709 l 1,2,-1
 413 250 l 1,3,-1
 389 250 l 1,4,-1
 172 709 l 1,5,-1
 170 709 l 1,6,-1
 57 0 l 1,7,-1
 38 0 l 1,8,-1
 153 730 l 1,9,-1
 185 730 l 1,10,-1
 403 270 l 1,11,-1
 405 270 l 1,12,-1
 769 730 l 1,13,-1
 800 730 l 1,14,-1
 685 0 l 1,15,-1
 665 0 l 1,0,-1
EndSplineSet
EndChar

StartChar: Nu
Encoding: 925 925 604
Width: 665
Flags: W
LayerCount: 2
Fore
SplineSet
521 21 m 1,0,-1
 634 730 l 1,1,-1
 653 730 l 1,2,-1
 538 0 l 1,3,-1
 506 0 l 1,4,-1
 172 709 l 1,5,-1
 170 709 l 1,6,-1
 57 0 l 1,7,-1
 38 0 l 1,8,-1
 153 730 l 1,9,-1
 185 730 l 1,10,-1
 519 21 l 1,11,-1
 521 21 l 1,0,-1
EndSplineSet
EndChar

StartChar: Xi
Encoding: 926 926 605
Width: 568
Flags: W
LayerCount: 2
Fore
SplineSet
29 0 m 1,0,-1
 32 20 l 1,1,-1
 453 20 l 1,2,-1
 450 0 l 1,3,-1
 29 0 l 1,0,-1
110 390 m 1,4,-1
 113 410 l 1,5,-1
 495 410 l 1,6,-1
 492 390 l 1,7,-1
 110 390 l 1,4,-1
141 710 m 1,8,-1
 144 730 l 1,9,-1
 566 730 l 1,10,-1
 563 710 l 1,11,-1
 141 710 l 1,8,-1
EndSplineSet
EndChar

StartChar: Pi
Encoding: 928 928 607
Width: 655
Flags: W
LayerCount: 2
Fore
SplineSet
153 730 m 1,0,-1
 643 730 l 1,1,-1
 528 0 l 1,2,-1
 508 0 l 1,3,-1
 621 710 l 1,4,-1
 170 710 l 1,5,-1
 57 0 l 1,6,-1
 38 0 l 1,7,-1
 153 730 l 1,0,-1
EndSplineSet
EndChar

StartChar: Sigma
Encoding: 931 931 609
Width: 530
Flags: W
LayerCount: 2
Fore
SplineSet
161 710 m 1,0,-1
 344 386 l 1,1,-1
 51 20 l 1,2,-1
 419 20 l 1,3,-1
 416 0 l 1,4,-1
 24 0 l 1,5,-1
 27 20 l 1,6,-1
 320 385 l 1,7,-1
 137 710 l 1,8,-1
 140 730 l 1,9,-1
 532 730 l 1,10,-1
 529 710 l 1,11,-1
 161 710 l 1,0,-1
EndSplineSet
EndChar

StartChar: Tau
Encoding: 932 932 610
Width: 629
Flags: W
LayerCount: 2
Fore
SplineSet
640 730 m 1,0,-1
 637 710 l 1,1,-1
 392 710 l 1,2,-1
 280 0 l 1,3,-1
 260 0 l 1,4,-1
 373 710 l 1,5,-1
 128 710 l 1,6,-1
 131 730 l 1,7,-1
 640 730 l 1,0,-1
EndSplineSet
EndChar

StartChar: Upsilon
Encoding: 933 933 611
Width: 624
Flags: W
LayerCount: 2
Fore
SplineSet
321 348 m 1,0,-1
 323 348 l 1,1,-1
 638 730 l 1,2,-1
 662 730 l 1,3,-1
 329 327 l 1,4,-1
 277 0 l 1,5,-1
 257 0 l 1,6,-1
 309 327 l 1,7,-1
 103 730 l 1,8,-1
 127 730 l 1,9,-1
 321 348 l 1,0,-1
EndSplineSet
EndChar

StartChar: Phi
Encoding: 934 934 612
Width: 682
Flags: W
CounterMasks: 1 0e
LayerCount: 2
Fore
SplineSet
325 120 m 1,0,1
 451 123 451 123 536 190.5 c 128,-1,2
 621 258 621 258 639 370 c 128,-1,3
 657 482 657 482 593 549.5 c 128,-1,4
 529 617 529 617 404 620 c 1,5,-1
 325 120 l 1,0,1
407 640 m 1,6,7
 540 637 540 637 608.5 563 c 128,-1,8
 677 489 677 489 658.5 370 c 128,-1,9
 640 251 640 251 548 177 c 128,-1,10
 456 103 456 103 322 100 c 1,11,-1
 306 0 l 1,12,-1
 286 0 l 1,13,-1
 302 100 l 1,14,15
 169 103 169 103 100.5 177 c 128,-1,16
 32 251 32 251 51 370 c 128,-1,17
 70 489 70 489 162 563 c 128,-1,18
 254 637 254 637 388 640 c 1,19,-1
 402 730 l 1,20,-1
 422 730 l 1,21,-1
 407 640 l 1,6,7
385 620 m 1,22,23
 259 617 259 617 173.5 549.5 c 128,-1,24
 88 482 88 482 70.5 370 c 128,-1,25
 53 258 53 258 116.5 190.5 c 128,-1,26
 180 123 180 123 305 120 c 1,27,-1
 385 620 l 1,22,23
EndSplineSet
EndChar

StartChar: Chi
Encoding: 935 935 613
Width: 602
Flags: W
LayerCount: 2
Fore
SplineSet
313 351 m 1,0,-1
 311 351 l 1,1,-1
 25 0 l 1,2,-1
 1 0 l 1,3,-1
 303 369 l 1,4,-1
 122 730 l 1,5,-1
 145 730 l 1,6,-1
 317 387 l 1,7,-1
 318 387 l 1,8,-1
 598 730 l 1,9,-1
 622 730 l 1,10,-1
 326 369 l 1,11,-1
 511 0 l 1,12,-1
 487 0 l 1,13,-1
 313 351 l 1,0,-1
EndSplineSet
EndChar

StartChar: Psi
Encoding: 936 936 614
Width: 745
Flags: W
CounterMasks: 1 1c
LayerCount: 2
Fore
SplineSet
368 190 m 1,0,1
 499 192 499 192 581.5 260 c 128,-1,2
 664 328 664 328 683 450 c 2,3,-1
 728 730 l 1,4,-1
 747 730 l 1,5,-1
 703 450 l 2,6,7
 682 319 682 319 593.5 245.5 c 128,-1,8
 505 172 505 172 365 170 c 1,9,-1
 338 0 l 1,10,-1
 318 0 l 1,11,-1
 345 170 l 1,12,13
 205 172 205 172 140 245.5 c 128,-1,14
 75 319 75 319 95 450 c 2,15,-1
 140 730 l 1,16,-1
 159 730 l 1,17,-1
 115 450 l 2,18,19
 96 328 96 328 157 260 c 128,-1,20
 218 192 218 192 348 190 c 1,21,-1
 434 730 l 1,22,-1
 453 730 l 1,23,-1
 368 190 l 1,0,1
EndSplineSet
EndChar

StartChar: uni03A9
Encoding: 937 937 615
Width: 826
Flags: W
LayerCount: 2
Fore
SplineSet
485.5 740 m 128,-1,1
 637 740 637 740 716.5 638 c 128,-1,2
 796 536 796 536 771 375 c 0,3,4
 751 251 751 251 679 157.5 c 128,-1,5
 607 64 607 64 501 22 c 1,6,-1
 501 20 l 1,7,-1
 729 20 l 1,8,-1
 726 0 l 1,9,-1
 432 0 l 1,10,-1
 435 20 l 1,11,12
 558 45 558 45 643.5 142 c 128,-1,13
 729 239 729 239 751 375 c 0,14,15
 775 527 775 527 700 623.5 c 128,-1,16
 625 720 625 720 482 720 c 128,-1,17
 339 720 339 720 233.5 623.5 c 128,-1,18
 128 527 128 527 104 375 c 0,19,20
 82 239 82 239 137.5 142 c 128,-1,21
 193 45 193 45 308 20 c 1,22,-1
 305 0 l 1,23,-1
 11 0 l 1,24,-1
 14 20 l 1,25,-1
 242 20 l 1,26,-1
 242 22 l 1,27,28
 150 64 150 64 107.5 157.5 c 128,-1,29
 65 251 65 251 85 375 c 0,30,31
 111 536 111 536 222.5 638 c 128,-1,0
 334 740 334 740 485.5 740 c 128,-1,1
EndSplineSet
EndChar

StartChar: Iotadieresis
Encoding: 938 938 616
Width: 273
Flags: W
CounterMasks: 1 38
LayerCount: 2
Fore
SplineSet
308 810 m 1,0,-1
 327 930 l 1,1,-1
 347 930 l 1,2,-1
 328 810 l 1,3,-1
 308 810 l 1,0,-1
112 810 m 1,4,-1
 131 930 l 1,5,-1
 151 930 l 1,6,-1
 132 810 l 1,7,-1
 112 810 l 1,4,-1
82 0 m 1,8,-1
 198 730 l 1,9,-1
 217 730 l 1,10,-1
 102 0 l 1,11,-1
 82 0 l 1,8,-1
EndSplineSet
EndChar

StartChar: Upsilondieresis
Encoding: 939 939 617
Width: 624
Flags: W
CounterMasks: 1 38
LayerCount: 2
Fore
SplineSet
484 810 m 1,0,-1
 503 930 l 1,1,-1
 522 930 l 1,2,-1
 503 810 l 1,3,-1
 484 810 l 1,0,-1
288 810 m 1,4,-1
 307 930 l 1,5,-1
 326 930 l 1,6,-1
 307 810 l 1,7,-1
 288 810 l 1,4,-1
321 348 m 1,8,-1
 323 348 l 1,9,-1
 638 730 l 1,10,-1
 662 730 l 1,11,-1
 329 327 l 1,12,-1
 277 0 l 1,13,-1
 257 0 l 1,14,-1
 309 327 l 1,15,-1
 103 730 l 1,16,-1
 127 730 l 1,17,-1
 321 348 l 1,8,-1
EndSplineSet
EndChar

StartChar: alphatonos
Encoding: 940 940 618
Width: 571
Flags: W
LayerCount: 2
Fore
SplineSet
320 590 m 1,0,-1
 296 590 l 1,1,-1
 435 750 l 1,2,-1
 459 750 l 1,3,-1
 320 590 l 1,0,-1
408 246 m 1,4,5
 382 359 382 359 356 418 c 128,-1,6
 330 477 330 477 307 493.5 c 128,-1,7
 284 510 284 510 248 510 c 0,8,9
 181 510 181 510 130 442 c 128,-1,10
 79 374 79 374 61 260 c 128,-1,11
 43 146 43 146 72.5 78 c 128,-1,12
 102 10 102 10 169 10 c 0,13,14
 282 10 282 10 408 246 c 1,4,5
414 219 m 1,15,16
 288 -10 288 -10 166 -10 c 0,17,18
 93 -10 93 -10 58 62 c 128,-1,19
 23 134 23 134 43 260 c 128,-1,20
 63 386 63 386 120.5 458 c 128,-1,21
 178 530 178 530 252 530 c 0,22,23
 293 530 293 530 319 512.5 c 128,-1,24
 345 495 345 495 371 438.5 c 128,-1,25
 397 382 397 382 423 274 c 1,26,27
 473 372 473 372 529 520 c 1,28,-1
 549 520 l 1,29,30
 487 357 487 357 429 246 c 1,31,32
 446 173 446 173 476 0 c 1,33,-1
 456 0 l 1,34,35
 436 120 436 120 414 219 c 1,15,16
EndSplineSet
EndChar

StartChar: epsilontonos
Encoding: 941 941 619
Width: 476
Flags: W
LayerCount: 2
Fore
SplineSet
190 284 m 1,0,-1
 191 286 l 1,1,2
 124 301 124 301 96.5 333.5 c 128,-1,3
 69 366 69 366 75 405 c 0,4,5
 84 464 84 464 143.5 497 c 128,-1,6
 203 530 203 530 299 530 c 0,7,8
 387 530 387 530 458 494 c 1,9,-1
 448 476 l 1,10,11
 378 510 378 510 296 510 c 0,12,13
 209 510 209 510 155.5 482 c 128,-1,14
 102 454 102 454 94 405 c 0,15,16
 86 354 86 354 141 324.5 c 128,-1,17
 196 295 196 295 300 295 c 2,18,-1
 347 295 l 1,19,-1
 344 275 l 1,20,-1
 296 275 l 2,21,22
 182 275 182 275 117.5 240.5 c 128,-1,23
 53 206 53 206 42 140 c 0,24,25
 32 77 32 77 77 43.5 c 128,-1,26
 122 10 122 10 216 10 c 0,27,28
 300 10 300 10 384 44 c 1,29,-1
 389 26 l 1,30,31
 299 -10 299 -10 213 -10 c 0,32,33
 111 -10 111 -10 61.5 29.5 c 128,-1,34
 12 69 12 69 24 140 c 0,35,36
 28 168 28 168 41 193 c 128,-1,37
 54 218 54 218 92.5 245 c 128,-1,38
 131 272 131 272 190 284 c 1,0,-1
267 590 m 1,39,-1
 244 590 l 1,40,-1
 383 750 l 1,41,-1
 407 750 l 1,42,-1
 267 590 l 1,39,-1
EndSplineSet
EndChar

StartChar: etatonos
Encoding: 942 942 620
Width: 512
Flags: W
LayerCount: 2
Fore
SplineSet
110 392 m 1,0,-1
 111 392 l 1,1,2
 146 454 146 454 199.5 492 c 128,-1,3
 253 530 253 530 312 530 c 0,4,5
 402 530 402 530 434 478 c 128,-1,6
 466 426 466 426 448 310 c 2,7,-1
 364 -220 l 1,8,-1
 345 -220 l 1,9,-1
 429 310 l 2,10,11
 446 418 446 418 418 464 c 128,-1,12
 390 510 390 510 309 510 c 0,13,14
 234 510 234 510 171 445.5 c 128,-1,15
 108 381 108 381 93 290 c 2,16,-1
 48 0 l 1,17,-1
 29 0 l 1,18,-1
 111 520 l 1,19,-1
 130 520 l 1,20,-1
 110 392 l 1,0,-1
276 590 m 1,21,-1
 252 590 l 1,22,-1
 391 750 l 1,23,-1
 415 750 l 1,24,-1
 276 590 l 1,21,-1
EndSplineSet
EndChar

StartChar: iotatonos
Encoding: 943 943 621
Width: 401
Flags: W
LayerCount: 2
Fore
SplineSet
171 520 m 1,0,-1
 111 140 l 2,1,2
 98 60 98 60 117.5 35 c 128,-1,3
 137 10 137 10 199 10 c 0,4,5
 240 10 240 10 280 24 c 1,6,-1
 284 5 l 1,7,8
 242 -10 242 -10 196 -10 c 0,9,10
 123 -10 123 -10 100.5 22 c 128,-1,11
 78 54 78 54 92 140 c 2,12,-1
 152 520 l 1,13,-1
 171 520 l 1,0,-1
187 590 m 1,14,-1
 163 590 l 1,15,-1
 302 750 l 1,16,-1
 326 750 l 1,17,-1
 187 590 l 1,14,-1
EndSplineSet
EndChar

StartChar: upsilondieresistonos
Encoding: 944 944 622
Width: 513
Flags: W
LayerCount: 2
Fore
SplineSet
396 610 m 1,0,-1
 415 730 l 1,1,-1
 434 730 l 1,2,-1
 415 610 l 1,3,-1
 396 610 l 1,0,-1
206 610 m 1,4,-1
 225 730 l 1,5,-1
 244 730 l 1,6,-1
 225 610 l 1,7,-1
 206 610 l 1,4,-1
417 531 m 1,8,-1
 436 539 l 1,9,10
 475 392 475 392 456 270 c 0,11,12
 445 203 445 203 424.5 152.5 c 128,-1,13
 404 102 404 102 380.5 71.5 c 128,-1,14
 357 41 357 41 327 22 c 128,-1,15
 297 3 297 3 269.5 -3.5 c 128,-1,16
 242 -10 242 -10 212 -10 c 0,17,18
 115 -10 115 -10 76.5 39 c 128,-1,19
 38 88 38 88 54 190 c 2,20,-1
 107 520 l 1,21,-1
 125 520 l 1,22,-1
 73 190 l 2,23,24
 58 97 58 97 92.5 53.5 c 128,-1,25
 127 10 127 10 215 10 c 0,26,27
 395 10 395 10 437 270 c 0,28,29
 455 389 455 389 417 531 c 1,8,-1
312 790 m 1,30,-1
 289 790 l 1,31,-1
 428 950 l 1,32,-1
 452 950 l 1,33,-1
 312 790 l 1,30,-1
EndSplineSet
EndChar

StartChar: alpha
Encoding: 945 945 623
Width: 571
Flags: W
LayerCount: 2
Fore
SplineSet
408 246 m 1,0,1
 382 359 382 359 356 418 c 128,-1,2
 330 477 330 477 307 493.5 c 128,-1,3
 284 510 284 510 248 510 c 0,4,5
 181 510 181 510 130 442 c 128,-1,6
 79 374 79 374 61 260 c 128,-1,7
 43 146 43 146 72.5 78 c 128,-1,8
 102 10 102 10 169 10 c 0,9,10
 282 10 282 10 408 246 c 1,0,1
414 219 m 1,11,12
 288 -10 288 -10 166 -10 c 0,13,14
 93 -10 93 -10 58 62 c 128,-1,15
 23 134 23 134 43 260 c 128,-1,16
 63 386 63 386 120.5 458 c 128,-1,17
 178 530 178 530 252 530 c 0,18,19
 293 530 293 530 319 512.5 c 128,-1,20
 345 495 345 495 371 438.5 c 128,-1,21
 397 382 397 382 423 274 c 1,22,23
 473 372 473 372 529 520 c 1,24,-1
 549 520 l 1,25,26
 487 357 487 357 429 246 c 1,27,28
 446 173 446 173 476 0 c 1,29,-1
 456 0 l 1,30,31
 436 120 436 120 414 219 c 1,11,12
EndSplineSet
EndChar

StartChar: beta
Encoding: 946 946 624
Width: 537
Flags: W
AnchorPoint: "Anchor-0" 246 -220 basechar 0
LayerCount: 2
Fore
SplineSet
337 720 m 0,0,1
 250 720 250 720 201 675 c 128,-1,2
 152 630 152 630 137 535 c 2,3,-1
 57 33 l 1,4,5
 134 10 134 10 196 10 c 0,6,7
 231 10 231 10 263 15 c 128,-1,8
 295 20 295 20 329.5 33.5 c 128,-1,9
 364 47 364 47 390.5 68.5 c 128,-1,10
 417 90 417 90 437.5 126 c 128,-1,11
 458 162 458 162 465 210 c 0,12,13
 494 390 494 390 228 390 c 2,14,-1
 171 390 l 1,15,-1
 174 410 l 1,16,-1
 231 410 l 2,17,18
 340 410 340 410 406 452 c 128,-1,19
 472 494 472 494 484 570 c 0,20,21
 495 638 495 638 454.5 679 c 128,-1,22
 414 720 414 720 337 720 c 0,0,1
54 12 m 1,23,-1
 17 -220 l 1,24,-1
 -2 -220 l 1,25,-1
 118 535 l 2,26,27
 150 740 150 740 340 740 c 0,28,29
 425 740 425 740 470 692.5 c 128,-1,30
 515 645 515 645 503 570 c 0,31,32
 482 440 482 440 333 403 c 1,33,-1
 333 401 l 1,34,35
 509 368 509 368 484 210 c 0,36,37
 467 104 467 104 392.5 47 c 128,-1,38
 318 -10 318 -10 193 -10 c 0,39,40
 128 -10 128 -10 54 12 c 1,23,-1
EndSplineSet
EndChar

StartChar: gamma
Encoding: 947 947 625
Width: 530
Flags: W
LayerCount: 2
Fore
SplineSet
231 60 m 1,0,1
 317 258 317 258 509 520 c 1,2,-1
 530 520 l 1,3,4
 314 228 314 228 233 20 c 1,5,-1
 195 -220 l 1,6,-1
 176 -220 l 1,7,-1
 214 20 l 1,8,9
 198 228 198 228 75 520 c 1,10,-1
 97 520 l 1,11,12
 206 258 206 258 229 60 c 1,13,-1
 231 60 l 1,0,1
EndSplineSet
EndChar

StartChar: delta
Encoding: 948 948 626
Width: 529
Flags: W
LayerCount: 2
Fore
SplineSet
288 511 m 0,0,1
 198 507 198 507 136.5 439.5 c 128,-1,2
 75 372 75 372 57 260 c 0,3,4
 39 144 39 144 82.5 77 c 128,-1,5
 126 10 126 10 221 10 c 128,-1,6
 316 10 316 10 381.5 77 c 128,-1,7
 447 144 447 144 465 260 c 0,8,9
 502 495 502 495 300 510 c 0,10,11
 298 510 298 510 294 510.5 c 128,-1,12
 290 511 290 511 288 511 c 0,0,1
236 520 m 1,13,14
 141 546 141 546 153 630 c 0,15,16
 161 679 161 679 210 709.5 c 128,-1,17
 259 740 259 740 337 740 c 0,18,19
 420 740 420 740 492 700 c 1,20,-1
 481 682 l 1,21,22
 411 720 411 720 334 720 c 0,23,24
 264 720 264 720 221 694.5 c 128,-1,25
 178 669 178 669 172 630 c 0,26,27
 158 541 158 541 304 530 c 0,28,29
 412 522 412 522 458 453.5 c 128,-1,30
 504 385 504 385 484 260 c 128,-1,31
 464 135 464 135 393 62.5 c 128,-1,32
 322 -10 322 -10 218.5 -10 c 128,-1,33
 115 -10 115 -10 66.5 62.5 c 128,-1,34
 18 135 18 135 38 260 c 0,35,36
 54 363 54 363 106.5 431 c 128,-1,37
 159 499 159 499 236 520 c 1,13,14
EndSplineSet
EndChar

StartChar: epsilon
Encoding: 949 949 627
Width: 476
Flags: W
LayerCount: 2
Fore
SplineSet
190 284 m 1,0,-1
 191 286 l 1,1,2
 124 301 124 301 96.5 333.5 c 128,-1,3
 69 366 69 366 75 405 c 0,4,5
 84 464 84 464 143.5 497 c 128,-1,6
 203 530 203 530 299 530 c 0,7,8
 387 530 387 530 458 494 c 1,9,-1
 448 476 l 1,10,11
 378 510 378 510 296 510 c 0,12,13
 209 510 209 510 155.5 482 c 128,-1,14
 102 454 102 454 94 405 c 0,15,16
 86 354 86 354 141 324.5 c 128,-1,17
 196 295 196 295 300 295 c 2,18,-1
 347 295 l 1,19,-1
 344 275 l 1,20,-1
 296 275 l 2,21,22
 182 275 182 275 117.5 240.5 c 128,-1,23
 53 206 53 206 42 140 c 0,24,25
 32 77 32 77 77 43.5 c 128,-1,26
 122 10 122 10 216 10 c 0,27,28
 300 10 300 10 384 44 c 1,29,-1
 389 26 l 1,30,31
 299 -10 299 -10 213 -10 c 0,32,33
 111 -10 111 -10 61.5 29.5 c 128,-1,34
 12 69 12 69 24 140 c 0,35,36
 28 168 28 168 41 193 c 128,-1,37
 54 218 54 218 92.5 245 c 128,-1,38
 131 272 131 272 190 284 c 1,0,-1
EndSplineSet
EndChar

StartChar: zeta
Encoding: 950 950 628
Width: 510
Flags: W
LayerCount: 2
Fore
SplineSet
401 728 m 1,0,-1
 401 730 l 1,1,-1
 150 730 l 1,2,-1
 153 750 l 1,3,-1
 457 750 l 1,4,-1
 454 730 l 1,5,6
 375 708 375 708 291.5 632.5 c 128,-1,7
 208 557 208 557 146.5 453 c 128,-1,8
 85 349 85 349 69 250 c 0,9,10
 49 121 49 121 98.5 65.5 c 128,-1,11
 148 10 148 10 283 10 c 0,12,13
 366 10 366 10 398 -18 c 128,-1,14
 430 -46 430 -46 422 -100 c 0,15,16
 401 -230 401 -230 240 -230 c 0,17,18
 169 -230 169 -230 116 -205 c 1,19,-1
 126 -187 l 1,20,21
 176 -210 176 -210 243 -210 c 0,22,23
 289 -210 289 -210 320.5 -200 c 128,-1,24
 352 -190 352 -190 368.5 -172 c 128,-1,25
 385 -154 385 -154 392.5 -137.5 c 128,-1,26
 400 -121 400 -121 403 -100 c 0,27,28
 409 -60 409 -60 385.5 -35 c 128,-1,29
 362 -10 362 -10 280 -10 c 0,30,31
 138 -10 138 -10 83 51.5 c 128,-1,32
 28 113 28 113 50 250 c 0,33,34
 72 390 72 390 176 530 c 128,-1,35
 280 670 280 670 401 728 c 1,0,-1
EndSplineSet
EndChar

StartChar: eta
Encoding: 951 951 629
Width: 512
Flags: W
LayerCount: 2
Fore
SplineSet
110 392 m 1,0,-1
 111 392 l 1,1,2
 146 454 146 454 199.5 492 c 128,-1,3
 253 530 253 530 312 530 c 0,4,5
 402 530 402 530 434 478 c 128,-1,6
 466 426 466 426 448 310 c 2,7,-1
 364 -220 l 1,8,-1
 345 -220 l 1,9,-1
 429 310 l 2,10,11
 446 418 446 418 418 464 c 128,-1,12
 390 510 390 510 309 510 c 0,13,14
 234 510 234 510 171 445.5 c 128,-1,15
 108 381 108 381 93 290 c 2,16,-1
 48 0 l 1,17,-1
 29 0 l 1,18,-1
 111 520 l 1,19,-1
 130 520 l 1,20,-1
 110 392 l 1,0,-1
EndSplineSet
EndChar

